SplineFontDB: 3.0
FontName: Amatic
FullName: Amatic Bold
FamilyName: Amatic
Weight: Bold
Copyright: vernon adams 2011
Version: 001.001
ItalicAngle: 0
UnderlinePosition: -102
UnderlineWidth: 102
Ascent: 1638
Descent: 410
sfntRevision: 0x00010000
LayerCount: 2
Layer: 0 0 "Back"  1
Layer: 1 0 "Fore"  0
NeedsXUIDChange: 1
XUID: [1021 14 500265001 8008471]
FSType: 0
OS2Version: 0
OS2_WeightWidthSlopeOnly: 0
OS2_UseTypoMetrics: 1
CreationTime: 1313674889
ModificationTime: 1315258733
PfmFamily: 81
TTFWeight: 700
TTFWidth: 5
LineGap: 0
VLineGap: 0
Panose: 0 0 0 0 0 0 0 0 0 0
OS2TypoAscent: 410
OS2TypoAOffset: 1
OS2TypoDescent: 357
OS2TypoDOffset: 1
OS2TypoLinegap: 0
OS2WinAscent: -172
OS2WinAOffset: 1
OS2WinDescent: -507
OS2WinDOffset: 1
HheadAscent: -172
HheadAOffset: 1
HheadDescent: 507
HheadDOffset: 1
OS2SubXSize: 1331
OS2SubYSize: 1229
OS2SubXOff: 0
OS2SubYOff: 154
OS2SupXSize: 1331
OS2SupYSize: 1229
OS2SupXOff: 0
OS2SupYOff: 717
OS2StrikeYSize: 102
OS2StrikeYPos: 614
OS2Vendor: 'newt'
OS2CodePages: 00000001.00000000
OS2UnicodeRanges: 00000001.00000000.00000000.00000000
MarkAttachClasses: 1
DEI: 91125
LangName: 1033 "" "" "" "vernon adams : Amatic : 17-8-2011" "" "Version 1.000" "" "vernon adams" "" "" "" "" "" "" "http://scripts.sil.org/OFL" "" "Amatic" "Bold" 
Encoding: Custom
UnicodeInterp: none
NameList: Adobe Glyph List
DisplaySize: -48
AntiAlias: 1
FitToEm: 1
WidthSeparation: 240
WinInfo: 132 22 12
BeginPrivate: 8
BlueValues 37 [-78 0 1356 1357 1374 1381 1551 1585]
BlueScale 9 0.0126923
BlueShift 2 12
StdHW 4 [59]
StdVW 4 [55]
StemSnapH 13 [51 55 59 63]
StemSnapV 13 [55 59 68 78]
ForceBold 4 true
EndPrivate
BeginChars: 386 385

StartChar: exclam
Encoding: 1 33 1
Width: 345
Flags: HW
LayerCount: 2
Fore
SplineSet
165 303 m 0
 132 303 135 446 135 482 c 0
 135 596 134 713 134 821 c 0
 134 1045 117 1269 117 1493 c 0
 117 1537 162 1572 204 1572 c 0
 232 1572 254 1550 254 1522 c 0
 254 1195 203 870 203 543 c 0
 203 505 199 467 199 430 c 0
 199 387 199 303 165 303 c 0
148 -38 m 1
 113 -29 85 2 70 33 c 1
 70 78 107 125 155 125 c 0
 210 125 239 77 239 26 c 0
 239 -29 197 -49 148 -52 c 1
 148 -38 l 1
EndSplineSet
EndChar

StartChar: numbersign
Encoding: 3 35 2
Width: 795
Flags: HW
LayerCount: 2
Fore
SplineSet
309 686 m 1
 317 685 326 685 334 685 c 0
 388 685 442 685 495 681 c 1
 505 770 515 861 516 952 c 1
 486 959 455 960 424 960 c 0
 396 960 368 959 341 954 c 1
 317 867 312 776 309 686 c 1
424 -47 m 0
 424 176 463 354 487 581 c 1
 442 585 396 585 351 585 c 2
 301 585 l 1
 276 432 243 -36 190 -80 c 0
 186 -83 182 -84 177 -84 c 0
 157 -84 132 -62 132 -40 c 0
 132 185 181 386 203 576 c 1
 185 574 164 571 143 571 c 0
 99 571 58 583 58 637 c 0
 58 676 108 683 154 683 c 0
 179 683 203 681 216 681 c 1
 231 769 240 859 247 948 c 1
 234 947 215 945 196 945 c 0
 150 945 99 955 99 1004 c 2
 99 1047 l 1
 120 1047 171 1046 192 1046 c 0
 213 1046 234 1047 255 1049 c 1
 272 1185 300 1320 300 1457 c 0
 300 1468 299 1481 299 1494 c 0
 299 1530 305 1567 352 1567 c 1
 388 1520 l 1
 388 1365 355 1213 353 1058 c 1
 370 1054 387 1054 405 1054 c 2
 444 1054 l 2
 476 1054 507 1054 539 1056 c 1
 565 1215 579 1375 599 1535 c 1
 612 1552 630 1566 652 1566 c 0
 671 1566 700 1547 700 1528 c 0
 700 1434 644 1155 627 1056 c 1
 693 1056 l 1
 736 1020 l 1
 729 991 718 959 682 959 c 2
 615 959 l 1
 596 872 591 786 590 698 c 1
 597 698 604 699 611 699 c 0
 652 699 696 687 696 637 c 0
 696 595 653 586 619 586 c 0
 617 586 615 586 613 586 c 1
 595 377 545 180 527 -39 c 0
 524 -71 492 -92 465 -92 c 0
 443 -92 424 -79 424 -47 c 0
EndSplineSet
EndChar

StartChar: dollar
Encoding: 4 36 3
Width: 542
Flags: HW
LayerCount: 2
Fore
SplineSet
66 1286 m 0
 66 1355.69957082 90.4639175258 1490.12017167 179 1518 c 1
 177 1534 173 1559 173 1584 c 0
 173 1612.88 178.49 1641 203.5 1641 c 1
 241.551470588 1637.91566265 241 1620.99876651 241 1577 c 0
 241 1553.41876302 242.586538462 1529.20019531 248.5 1529.20019531 c 0
 266.466666667 1529.20019531 295.010067114 1521.83327399 325.5 1502 c 1
 348.785714286 1477.87387387 407 1433.33333333 407 1399 c 0
 407 1374.06122449 393.346645609 1351.64440291 374.5 1352 c 0
 318.228395062 1353 295.115384615 1409.6741573 245.5 1439 c 1
 245.5 1390 249 1342 249 1293 c 0
 249 1197.9296875 260.825 1103.96484375 270.5 1010 c 1
 284.358522237 1014.09451784 490 540.712334744 490 421 c 0
 490 280.155844156 393.799657534 205.038961039 336.5 180 c 1
 337.833333333 155.695238095 342.5 109.295238095 342.5 64 c 0
 342.5 22.8349514563 335.177966102 -16 306.5 -16 c 0
 274.119047619 -16 266.5 18.8571428571 266.5 45 c 2
 266.5 163 l 1
 161.996575446 163 80 181.649615677 80 281 c 0
 80 304 99 324 122 324 c 0
 157 324 164.5 278 187 250 c 1
 198 248 211 243 222 243 c 0
 236.953125 243 250.546875 246.75 265.5 248 c 1
 264.908163265 360.942122186 236.5 810 236.5 810 c 1
 156.769784173 980.081534772 66 1087.38129496 66 1286 c 0
392 385 m 0
 392 518 335.269230769 653.084287446 303.5 735.200195312 c 1
 309.5 579.800130208 324.5 424.400065104 327.5 269 c 1
 363.333333333 298.798165138 392 341.366972477 392 385 c 0
212 1084.20019531 m 1
 197.49906824 1191.85106991 193.248959872 1306.00803246 188.5 1418.20019531 c 1
 148.685185185 1381.27970072 145.5 1329.59745559 145.5 1286.20019531 c 0
 145.5 1217.66448103 173.017241379 1149.12876674 212 1084.20019531 c 1
EndSplineSet
EndChar

StartChar: percent
Encoding: 5 37 4
Width: 1127
Flags: HW
LayerCount: 2
Fore
SplineSet
267 700 m 0
 73 700 72 1025 72 1163 c 0
 72 1255 105 1553 241 1553 c 0
 446 1553 470 1300 470 1147 c 0
 470 1003 512 700 267 700 c 0
841 2 m 0
 711 2 679 270 679 370 c 1
 669 504 670 838 860 838 c 0
 1049 838 1058 603 1058 429 c 2
 1058 378 l 2
 1058 229 1022 2 841 2 c 0
347 65 m 0
 347 251 614 1188 683 1437 c 1
 684 1467 700 1536 741 1536 c 0
 769 1536 794 1517 794 1487 c 0
 794 1363 657 892 620 732 c 0
 562 481 464 152 428 36 c 0
 422 16 409 10 399 10 c 0
 373 10 347 54 347 65 c 0
248 1449 m 0
 210 1449 171 1210 171 1165 c 0
 171 1102 178 800 264 800 c 0
 372 800 376 1017 376 1092 c 0
 376 1179 376 1449 248 1449 c 0
854 733 m 0
 773 733 767 428 777 366 c 1
 777 329 809 116 845 116 c 0
 954 116 958 303 958 386 c 2
 958 434 l 2
 958 547 951 733 854 733 c 0
EndSplineSet
EndChar

StartChar: ampersand
Encoding: 6 38 5
Width: 937
Flags: HW
LayerCount: 2
Fore
SplineSet
277 969 m 1
 205 851 172 709 172 570 c 0
 172 443 225 283 371 283 c 0
 410 283 487 308 515 338 c 1
 506 351 495 361 484 372 c 0
 347 518 308 775 277 969 c 1
815 902 m 1
 843 896 873 881 873 848 c 0
 873 798 796 792 760 792 c 2
 709 792 l 1
 709 746 707 700 704 654 c 1
 722 656 665 437 625 355 c 1
 659 320 705 292 755 292 c 0
 783 292 810 298 838 298 c 1
 876 267 l 1
 876 206 821 199 772 199 c 0
 698 199 632 233 575 276 c 1
 506 227 439 198 354 198 c 0
 195 198 78 382 78 534 c 0
 78 780 151 913 257 1125 c 1
 256 1219 243 1312 243 1406 c 2
 243 1576 l 2
 243 1632 260 1728 329 1728 c 0
 395 1728 500 1682 500 1600 c 0
 500 1565 494 1530 494 1496 c 0
 494 1481 496 1466 499 1452 c 1
 460 1365 443 1268 399 1184 c 0
 385 1157 349 1116 349 1086 c 0
 349 963 478 506 555 418 c 1
 603 532 617 657 617 780 c 2
 617 789 l 1
 595 789 575 804 566 824 c 1
 566 876 l 1
 620 876 764 885 815 902 c 1
333 1471 m 2
 333 1409 335 1348 335 1286 c 2
 335 1263 l 1
 365 1328 412 1461 412 1531 c 0
 412 1566 409 1628 364 1630 c 1
 349 1617 341 1598 333 1580 c 1
 333 1471 l 2
EndSplineSet
EndChar

StartChar: parenleft
Encoding: 8 40 6
Width: 467
Flags: HW
LayerCount: 2
Fore
SplineSet
336 -130 m 0
 365 -193 407 -250 424 -318 c 1
 415 -340 392 -361 366 -361 c 0
 174 -361 80 701 80 881 c 0
 80 1001 159 1651 301 1651 c 2
 346 1651 l 1
 345 1575 301 1484 273 1416 c 0
 209 1259 182 1048 182 879 c 0
 182 583 213 139 336 -130 c 0
EndSplineSet
EndChar

StartChar: parenright
Encoding: 9 41 7
Width: 482
Flags: HW
LayerCount: 2
Fore
SplineSet
406 817 m 1
 406 815 l 1
 405 651 268 -303 98 -303 c 0
 71 -303 44 -284 44 -255 c 0
 44 -217 111 -112 130 -71 c 0
 233 158 304 564 304 816 c 0
 304 993 280 1253 213 1416 c 0
 187 1480 139 1538 139 1610 c 2
 139 1621 l 1
 176 1621 l 2
 342 1621 404 954 406 817 c 1
EndSplineSet
EndChar

StartChar: asterisk
Encoding: 10 42 8
Width: 893
Flags: HW
LayerCount: 2
Fore
SplineSet
211 736 m 1
 211 742 l 1
 213 811 336 1011 364 1096 c 1
 141 1096 l 2
 96 1096 63 1092 63 1150 c 0
 63 1175 83 1198 109 1198 c 2
 350 1198 l 1
 324 1252 216 1455 216 1501 c 0
 216 1531 245 1547 272 1547 c 0
 327 1547 394 1307 418 1258 c 1
 437 1317 496 1567 565 1567 c 0
 593 1567 621 1542 621 1512 c 0
 621 1486 604 1466 590 1445 c 0
 544 1372 534 1275 502 1194 c 1
 532 1190 560 1189 590 1189 c 0
 617 1189 674 1199 725 1199 c 0
 780 1199 829 1187 829 1137 c 0
 829 1096 793 1085 758 1085 c 0
 669 1085 580 1094 495 1094 c 1
 524 1015 643 819 643 752 c 0
 643 723 602 691 573 691 c 1
 433 1011 l 1
 395 910 359 789 304 697 c 1
 255 697 l 1
 211 736 l 1
EndSplineSet
EndChar

StartChar: plus
Encoding: 11 43 9
Width: 740
Flags: HW
LayerCount: 2
Fore
SplineSet
412 909 m 2
 412 884 l 1
 413 853 404 701 431 701 c 0
 456 701 504 709 550 709 c 0
 605 709 656 697 656 647 c 0
 656 615 630 591 598 591 c 0
 557 591 518 602 477 602 c 0
 443 602 412 593 412 553 c 0
 412 498 431 444 431 389 c 0
 431 353 396 333 364 333 c 0
 335 333 298 352 298 385 c 0
 298 451 304 518 304 584 c 2
 304 599 l 1
 276 599 211 590 171 590 c 0
 124 590 84 602 84 655 c 0
 84 682 101 708 130 708 c 0
 170 708 211 701 251 701 c 0
 267 701 282 702 298 705 c 1
 296 755 286 805 286 855 c 0
 286 900 293 968 352 968 c 0
 384 968 412 942 412 909 c 2
EndSplineSet
EndChar

StartChar: comma
Encoding: 12 44 10
Width: 425
Flags: HW
VStem: 137 195<11.5419 167.437>
LayerCount: 2
Fore
SplineSet
82 -202 m 1
 82 -130 l 1
 116 -96 186 -54 196 -4 c 1
 163 20 137 55 137 97 c 0
 137 149 190 184 238 184 c 0
 292 184 315 143 332 98 c 1
 332 91 l 2
 332 87 329 82 329 77 c 0
 329 -15 238 -202 143 -202 c 2
 82 -202 l 1
EndSplineSet
EndChar

StartChar: hyphen
Encoding: 13 45 11
Width: 649
Flags: HW
HStem: 701 97<106.03 543.97>
LayerCount: 2
Fore
SplineSet
546 739 m 0
 546 706 229 701 171 701 c 4
 138 701 104 725 104 760 c 4
 104 793 421 798 478 798 c 0
 511 798 546 775 546 739 c 0
EndSplineSet
EndChar

StartChar: period
Encoding: 14 46 12
Width: 355
Flags: HW
LayerCount: 2
Fore
SplineSet
105 41 m 0
 105 82 141 120 182 120 c 0
 221 120 255 81 255 43 c 0
 255 -4 219 -32 174 -32 c 0
 136 -32 105 4 105 41 c 0
EndSplineSet
EndChar

StartChar: slash
Encoding: 15 47 13
Width: 567
Flags: HW
LayerCount: 2
Fore
SplineSet
64 30 m 0
 64 340 324 1099 393 1453 c 0
 399 1483 405 1553 450 1553 c 0
 478 1553 505 1533 505 1503 c 0
 505 1437 478 1374 463 1311 c 0
 384 972 306 632 232 292 c 0
 219 233 185 -31 110 -31 c 1
 89 -18 64 5 64 30 c 0
EndSplineSet
EndChar

StartChar: zero
Encoding: 16 48 14
Width: 644
Flags: HW
LayerCount: 2
Fore
SplineSet
98 1233 m 2
 98 1413 111 1563 266 1563 c 0
 295 1563 323 1548 348 1534 c 0
 480 1454 484 1329 502 1195 c 0
 532 971 568 747 568 521 c 0
 568 373 560 7 343 7 c 0
 116 7 98 648 98 804 c 2
 98 1233 l 2
473 568 m 0
 473 767 429 1062 399 1254 c 0
 376 1401 315 1458 266 1458 c 0
 221 1458 184 1410 184 1338 c 0
 184 1222 195 1106 195 990 c 0
 195 923 217 857 217 790 c 0
 217 685 226 100 363 100 c 0
 454 100 473 497 473 568 c 0
EndSplineSet
EndChar

StartChar: one
Encoding: 17 49 15
Width: 602
Flags: HW
LayerCount: 2
Fore
SplineSet
464 102 m 1
 464 103 l 1
 500 103 550 99 550 52 c 0
 550 -4 388 -8 317 -8 c 0
 287 -8 279 -9 256 -9 c 0
 215 -9 173 -3 173 47 c 2
 173 91 l 1
 186 90 226 86 245 86 c 0
 269 86 290 93 290 120 c 0
 290 388 274 656 255 924 c 0
 246 1052 228 1179 228 1308 c 0
 228 1329 231 1356 231 1383 c 0
 231 1432 220 1479 160 1479 c 0
 147 1479 130 1477 113 1477 c 0
 83 1477 55 1483 55 1521 c 0
 55 1574 177 1575 220 1575 c 0
 253 1575 292 1574 310 1541 c 1
 304 1513 313 1484 313 1455 c 0
 313 1329 344 1205 344 1079 c 0
 344 756 389 433 389 109 c 2
 389 96 l 1
 414 98 439 102 464 102 c 1
EndSplineSet
EndChar

StartChar: two
Encoding: 18 50 16
Width: 578
Flags: HW
LayerCount: 2
Fore
SplineSet
278 1586 m 1
 278 1587 l 1
 497 1587 498 1357 498 1201 c 0
 498 970 434 633 340 422 c 0
 290 309 224 204 185 86 c 1
 262 99 339 107 417 107 c 1
 479 55 l 1
 443 4 l 1
 339 4 235 -15 131 -15 c 0
 95 -15 56 7 56 47 c 2
 56 55 l 1
 114 125 132 218 169 299 c 0
 311 614 400 886 400 1236 c 0
 400 1305 396 1492 302 1500 c 1
 246 1470 272 1327 196 1327 c 0
 158 1327 146 1357 146 1390 c 0
 146 1465 186 1586 278 1586 c 1
EndSplineSet
EndChar

StartChar: three
Encoding: 19 51 17
Width: 600
Flags: HW
LayerCount: 2
Fore
SplineSet
234 865 m 1
 234 889 l 1
 235 950 354 1016 354 1150 c 0
 354 1216 340 1477 247 1477 c 0
 171 1477 195 1360 112 1360 c 0
 80 1360 58 1387 53 1416 c 1
 87 1501 154 1573 251 1573 c 0
 292 1573 330 1551 357 1522 c 1
 426 1521 456 1184 456 1124 c 0
 456 1040 407 993 364 927 c 1
 502 844 535 509 535 361 c 0
 535 213 522 -20 323 -20 c 0
 266 -20 172 5 172 76 c 2
 172 89 l 1
 206 89 l 1
 248 83 274 88 307 64 c 1
 422 69 432 207 432 294 c 0
 432 482 430 694 307 849 c 1
 303 848 299 848 294 848 c 0
 274 848 252 857 234 865 c 1
EndSplineSet
EndChar

StartChar: four
Encoding: 20 52 18
Width: 554
Flags: HW
LayerCount: 2
Fore
SplineSet
286 587 m 1
 285 778 269 966 269 1160 c 0
 269 1191 298 1206 318 1206 c 1
 360 1170 l 1
 360 979 357 785 386 596 c 1
 401 597 423 601 445 601 c 0
 476 601 506 593 506 557 c 0
 506 513 475 507 439 507 c 0
 424 507 391 505 391 489 c 0
 391 436 397 190 412 155 c 1
 410 143 408 130 408 117 c 0
 408 103 410 89 418 76 c 1
 418 39 l 2
 418 9 407 -38 369 -38 c 0
 323 -38 308 23 308 59 c 2
 308 66 l 1
 315 90 315 115 315 140 c 0
 315 207 300 272 300 339 c 0
 300 369 302 398 302 428 c 0
 302 449 301 470 298 491 c 1
 255 489 213 480 170 480 c 1
 170 479 l 1
 139 479 113 493 89 512 c 1
 89 539 91 565 98 591 c 1
 91 628 89 666 89 706 c 0
 89 844 120 991 120 1124 c 2
 120 1503 l 2
 120 1525 122 1543 159 1543 c 0
 188 1543 219 1524 219 1492 c 0
 219 1440 210 1386 210 1333 c 0
 210 1107 191 858 191 622 c 0
 191 607 192 591 194 576 c 1
 225 577 255 581 286 587 c 1
EndSplineSet
EndChar

StartChar: five
Encoding: 21 53 19
Width: 578
Flags: HW
LayerCount: 2
Fore
SplineSet
103 1008 m 0
 103 1043 114 1077 114 1112 c 0
 114 1256 86 1398 64 1540 c 1
 99 1574 l 1
 266 1574 l 2
 303 1574 351 1572 351 1524 c 2
 351 1513 l 1
 313 1482 l 1
 269 1482 l 1
 269 1477 l 1
 175 1477 l 1
 181 1314 199 1164 215 1002 c 1
 268 996 336 996 381 965 c 0
 483 895 509 553 509 434 c 0
 509 234 509 95 336 -36 c 1
 326 -36 314 -37 301 -37 c 0
 252 -37 189 -31 189 21 c 0
 189 54 224 67 252 67 c 0
 271 67 290 61 305 50 c 1
 379 75 411 259 411 328 c 0
 411 415 388 914 285 914 c 2
 245 914 l 1
 245 907 l 1
 224 905 199 891 178 891 c 0
 110 891 103 955 103 1008 c 0
EndSplineSet
EndChar

StartChar: six
Encoding: 22 54 20
Width: 531
Flags: HW
LayerCount: 2
Fore
SplineSet
367 212 m 0
 367 320 347 860 234 882 c 1
 194 853 191 814 191 770 c 0
 191 578 215 396 240 207 c 0
 247 152 242 73 316 73 c 0
 366 73 367 177 367 212 c 0
300 -14 m 0
 113 -14 138 262 122 391 c 0
 102 554 91 715 91 880 c 0
 91 1030 90 1586 306 1586 c 0
 325 1586 352 1567 352 1545 c 0
 352 1505 309 1482 277 1475 c 1
 222 1419 196 1044 192 949 c 1
 203 951 213 952 223 952 c 0
 453 952 463 396 463 236 c 0
 463 114 452 -14 300 -14 c 0
EndSplineSet
EndChar

StartChar: seven
Encoding: 23 55 21
Width: 465
Flags: HW
LayerCount: 2
Fore
SplineSet
244 1498 m 0
 201 1498 157 1493 114 1489 c 1
 92 1499 66 1522 66 1549 c 0
 66 1580 206 1582 254 1582 c 2
 292 1582 l 2
 338 1582 382 1578 396 1523 c 1
 387 1479 385 1435 381 1390 c 0
 356 1086 282 385 189 119 c 1
 190 114 190 108 190 101 c 0
 190 55 170 -11 120 -11 c 1
 71 24 l 1
 71 80 94 129 108 182 c 0
 197 519 212 873 257 1217 c 0
 269 1309 290 1401 292 1494 c 1
 276 1496 260 1498 244 1498 c 0
EndSplineSet
EndChar

StartChar: eight
Encoding: 24 56 22
Width: 526
Flags: HW
LayerCount: 2
Fore
SplineSet
219 1515 m 1
 194 1487 170 1449 170 1413 c 0
 170 1308 217 1072 248 969 c 1
 273 1080 289 1196 289 1312 c 0
 289 1342 274 1518 240 1518 c 1
 219 1515 l 1
211 190 m 2
 211 188 l 2
 211 148 240 6 276 6 c 4
 351 6 372 74 372 140 c 0
 372 359 318 574 260 783 c 1
 222 628 211 354 211 190 c 2
460 72 m 1
 460 68 460 64 460 60 c 1
 423 -24 366 -82 274 -82 c 0
 147 -82 115 98 115 198 c 0
 115 384 127 580 181 759 c 0
 191 793 203 828 211 863 c 1
 211 863 70 1225 70 1421 c 0
 70 1510 109 1607 212 1607 c 2
 253 1607 l 1
 373 1530 376 1466 376 1313 c 0
 376 1160 340 1010 307 862 c 1
 395 651 466 349 466 119 c 0
 466 103 464 87 460 72 c 1
EndSplineSet
EndChar

StartChar: nine
Encoding: 25 57 23
Width: 531
Flags: HW
LayerCount: 2
Fore
SplineSet
163 1247 m 0
 163 1228 167 1178 179 1162 c 1
 192 1047 240 1057 326 1009 c 1
 334 1148 335 1288 335 1427 c 0
 335 1480 326 1527 262 1527 c 0
 181 1527 163 1306 163 1247 c 0
408 237 m 0
 408 188 395 139 395 90 c 0
 395 78 396 64 396 49 c 0
 396 9 389 -34 339 -34 c 1
 296 4 l 1
 326 94 328 502 328 686 c 0
 328 772 325 848 324 931 c 1
 175 965 63 1087 63 1243 c 0
 63 1370 90 1614 261 1614 c 0
 402 1614 433 1547 433 1420 c 0
 433 1026 408 631 408 237 c 0
EndSplineSet
EndChar

StartChar: colon
Encoding: 26 58 24
Width: 354
Flags: HW
LayerCount: 2
Fore
SplineSet
115 1024 m 0
 115 1064 150 1103 191 1103 c 0
 230 1103 264 1064 264 1026 c 0
 264 979 228 951 183 951 c 0
 145 951 115 987 115 1024 c 0
94 250 m 0
 94 291 130 329 171 329 c 0
 210 329 243 290 243 252 c 0
 243 206 208 177 163 177 c 0
 125 177 94 213 94 250 c 0
EndSplineSet
EndChar

StartChar: semicolon
Encoding: 27 59 25
Width: 410
Flags: HW
LayerCount: 2
Fore
SplineSet
125 -11 m 0
 109 -11 83 10 83 27 c 2
 83 51 l 1
 117 83 182 122 191 171 c 1
 158 195 132 230 132 272 c 0
 132 324 185 359 233 359 c 0
 286 359 324 309 324 258 c 0
 324 168 228 -11 125 -11 c 0
168 1025 m 0
 168 1065 203 1104 244 1104 c 0
 283 1104 317 1065 317 1027 c 0
 317 980 281 952 236 952 c 0
 198 952 168 988 168 1025 c 0
EndSplineSet
EndChar

StartChar: question
Encoding: 31 63 26
Width: 1161
Flags: HW
LayerCount: 2
Fore
SplineSet
566.015625 1525 m 0
 479.015625 1525 461.015625 1475 461.015625 1407 c 0
 461.015625 1364 469.015625 1312 469.015625 1263 c 0
 469.015625 1175 470.015625 1086 492.015625 1000 c 1
 608.015625 1049 670.015625 1142 670.015625 1272 c 0
 670.015625 1347 672.015625 1525 566.015625 1525 c 0
862.015625 199 m 0
 862.015625 175 829.015625 143 807.015625 143 c 0
 690.015625 143 592.015625 797 548.015625 914 c 1
 495.015625 914 l 1
 493.015625 882 490.015625 828 490.015625 796 c 0
 490.015625 600 534.015625 406 534.015625 210 c 0
 534.015625 174 518.015625 143 479.015625 143 c 0
 443.015625 143 406.015625 169 406.015625 208 c 0
 406.015625 295 372.015625 383 372.015625 470 c 2
 372.015625 1454 l 2
 372.015625 1603 429.015625 1635 560.015625 1635 c 0
 759.015625 1635 787.015625 1433 787.015625 1270 c 0
 787.015625 1023 663.015625 1007 652.015625 969 c 1
 655.015625 888 794.015625 425 827.015625 314 c 1
 827.015625 271 862.015625 239 862.015625 199 c 0
963.015625 706 m 0
 963.015625 1023 947.015625 1354 842.015625 1655 c 1
 842.015625 1670 l 1
 806.015625 1727 690.015625 1832 624.015625 1832 c 0
 233.015625 1832 211.015625 1241 211.015625 954 c 0
 211.015625 747 212.015625 179 345.015625 27 c 0
 380.015625 -13 426.015625 -31 467.015625 -64 c 1
 526.015625 -64 l 1
 526.015625 -84 l 1
 926.015625 -79 963.015625 396 963.015625 706 c 0
613.015625 -190 m 0
 118.015625 -190 93.015625 366 93.015625 765 c 0
 93.015625 1072 45.015625 1938 609.015625 1938 c 0
 729.015625 1938 839.015625 1851 907.015625 1755 c 1
 1029.015625 1679 1077.015625 968 1077.015625 807 c 0
 1077.015625 470 1076.015625 -190 613.015625 -190 c 0
EndSplineSet
EndChar

StartChar: at
Encoding: 32 64 27
Width: 1078
Flags: HW
LayerCount: 2
Fore
SplineSet
518 1246 m 0
 416 1246 421 965 421 855 c 0
 421 678 424 410 529 410 c 0
 589 410 659 550 659 605 c 2
 659 759 l 2
 659 875 633 1246 518 1246 c 0
463 -31 m 0
 738 -31 695 57 877 169 c 1
 877 179 l 1
 926 140 l 1
 880 -27 620 -120 470 -120 c 0
 91 -120 90 683 90 956 c 0
 90 1262 97 1719 505 1719 c 0
 874 1719 926 1333 971 1041 c 0
 985 950 1002 859 1002 767 c 0
 1002 645 999 406 829 406 c 0
 795 406 762 426 737 449 c 1
 691 368 605 306 514 306 c 0
 301 306 299 661 299 851 c 0
 299 1047 303 1351 518 1351 c 0
 578 1351 632 1327 675 1284 c 0
 732 1227 778 680 791 565 c 1
 791 556 l 1
 836 510 l 1
 882 536 887 723 887 776 c 0
 887 987 854 1208 778 1404 c 1
 719 1549 652 1612 496 1612 c 0
 178 1612 200 1171 200 891 c 0
 200 713 190 -31 463 -31 c 0
EndSplineSet
EndChar

StartChar: A
Encoding: 33 65 28
Width: 709
Flags: HW
HStem: 1 21G<530 573.5>
VStem: 484 134<3.51562 340.09>
LayerCount: 2
Fore
SplineSet
482 447 m 1
 472 576 417 1110 417 1236 c 0
 417 1243 417 1249 418 1254 c 1
 401 1236 327 736 308 659 c 0
 291 594 264 531 261 464 c 1
 320 448 382 441 443 441 c 0
 456 441 470 444 482 447 c 1
490 1529 m 1
 533 1224 618 443 618 70 c 0
 618 24 597 1 550 1 c 0
 510 1 484 13 484 54 c 2
 484 321 l 1
 440 351 304 369 248 373 c 1
 197 286 224 117 166 23 c 1
 134 23 66 26 57 64 c 1
 116 149 269 1090 310 1279 c 0
 321 1332 362 1543 429 1543 c 0
 451 1543 472 1539 490 1525 c 1
 490 1529 l 1
EndSplineSet
EndChar

StartChar: B
Encoding: 34 66 29
Width: 625
Flags: HW
LayerCount: 2
Fore
SplineSet
550.014648438 374 m 1
 499.014648438 172 500.014648438 94 292.014648438 3 c 0
 277.014648438 -4 228.014648438 -17 212.014648438 -17 c 0
 176.014648438 -17 108.014648438 -19 108.014648438 34 c 0
 108.014648438 202 118.014648438 370 118.014648438 538 c 0
 118.014648438 815 104.014648438 1093 104.014648438 1370 c 0
 104.014648438 1425 101.014648438 1537 181.014648438 1537 c 0
 374.014648438 1537 484.014648438 1392 484.014648438 1201 c 0
 484.014648438 1079 428.014648438 966 359.014648438 869 c 1
 568.014648438 569 499.014648438 742 543.014648438 394 c 0
 544.014648438 388 548.014648438 380 550.014648438 374 c 1
292.014648438 785 m 1
 292.014648438 786 l 1
 222.014648438 786 l 1
 230.014648438 560 231.014648438 316 231.014648438 90 c 1
 366.014648438 112 444.014648438 232 444.014648438 369 c 0
 444.014648438 503 430.014648438 721 292.014648438 785 c 1
243.014648438 1421 m 0
 215.014648438 1421 215.014648438 1376 215.014648438 1357 c 0
 215.014648438 1201 222.014648438 1044 223.014648438 888 c 1
 312.014648438 909 354.014648438 1095 384.014648438 1173 c 1
 384.014648438 1246 l 2
 384.014648438 1321 322.014648438 1421 243.014648438 1421 c 0
EndSplineSet
EndChar

StartChar: C
Encoding: 35 67 30
Width: 685
Flags: HW
HStem: -33 126<290.088 539.877> 1440 125<269.929 450>
VStem: 83 117<858.249 1365.78> 418 32<1440 1444>
LayerCount: 2
Fore
SplineSet
450 1444 m 1
 450 1440 l 1
 418 1440 l 1
 418 1448 l 1
 221 1448 200 1294 200 1140 c 0
 200 1093 206 1046 206 999 c 0
 206 951 188 904 188 856 c 0
 188 756 230 217 269 160 c 0
 303 111 366 93 423 93 c 0
 473 93 522 113 555 152 c 1
 577 152 599 155 620 162 c 1
 620 135 l 2
 620 4 502 -33 396 -33 c 0
 302 -33 202 41 163 124 c 0
 102 253 83 853 83 1037 c 0
 83 1100 85 1164 97 1226 c 1
 93 1248 91 1270 91 1290 c 0
 91 1463 240 1565 417 1565 c 0
 472 1565 560 1531 560 1465 c 0
 560 1434 531 1419 503 1419 c 0
 483 1419 461 1426 450 1444 c 1
EndSplineSet
EndChar

StartChar: D
Encoding: 36 68 31
Width: 691
Flags: HW
LayerCount: 2
Fore
SplineSet
602.359375 773 m 1xe8
 591.359375 754 591.359375 733 591.359375 711 c 0
 591.359375 510 487.639648438 224 343.639648438 92 c 0
 311.959960938 63 239.959960938 -5 196 -5 c 0
 154 -5 96 14 96 65 c 1
 141 112 141 244 141 306 c 0xd8
 141 533 103 758 103 982 c 0
 103 1055 109 1131 109 1206 c 0
 109 1263 105 1319 93 1374 c 0
 85 1410 64 1443 64 1481 c 0
 64 1557 191 1552 239.881835938 1552 c 0
 356.517578125 1552 499.359375 1399 542.359375 1290 c 0
 590.359375 1168 574.359375 929 602.359375 868 c 1
 602.359375 773 l 1xe8
239 310 m 1
 239 114 l 1xd8
 438.6796875 254 494.359375 615 494.359375 854 c 0
 494.359375 1061 472.189453125 1429 210 1429 c 1
 210 1427 l 2xe8
 210.963867188 1054 236.989257812 683 239 310 c 1
EndSplineSet
EndChar

StartChar: E
Encoding: 37 69 32
Width: 505
Flags: HW
HStem: -12 117<228 438.095> 750 120<229.427 366.494> 1423 128<207.354 375.19>
VStem: 110 259<752.218 851.135 1425.89 1533> 110 118<105 751.998 855.656 1418.7> 110 103<852 1082.34 1091.3 1425>
LayerCount: 2
Fore
SplineSet
228 105 m 1xe8
 263 107 301 111 336 111 c 0
 372 111 450 108 450 57 c 2
 450 50 l 1
 419 -11 337 -12 278 -12 c 2
 214 -12 l 2
 166 -12 110 -10 110 55 c 2xe4
 110 1533 l 1xf0
 161 1533 236 1551 287 1551 c 0
 323 1551 381 1527 381 1484 c 0
 381 1432 330 1423 288 1423 c 0
 268 1423 249 1425 229 1425 c 0
 222 1425 214 1425 207 1424 c 1
 207 1311 223 1199 223 1086 c 0
 223 1008 214 930 213 852 c 1xe4
 245 858 276 870 309 870 c 0
 339 870 369 844 369 813 c 0xf0
 369 782 349 750 315 750 c 0
 302 750 283 752 264 752 c 0
 243 752 238 749 228 737 c 1
 228 105 l 1xe8
EndSplineSet
EndChar

StartChar: F
Encoding: 38 70 33
Width: 452
Flags: HW
LayerCount: 2
Fore
SplineSet
260 94 m 0
 260 90 257 85 256 81 c 1
 259 72 259 64 259 56 c 0
 259 21 232 -2 190 -2 c 0
 135 -2 131 90 131 129 c 0
 131 283 101 1390 69 1440 c 1
 69 1550 184 1554 267 1554 c 0
 319 1554 354 1544 354 1484 c 0
 354 1453 324 1440 297 1440 c 0
 288 1440 268 1442 247 1442 c 0
 219 1442 190 1438 190 1419 c 0
 190 1235 219 1053 221 869 c 1
 259 876 296 891 335 891 c 0
 367 891 391 858 391 828 c 0
 391 762 266 764 221 761 c 1
 221 538 260 317 260 94 c 0
EndSplineSet
EndChar

StartChar: G
Encoding: 39 71 34
Width: 771
Flags: HW
HStem: -54 105<316.578 536.893> 363 126<404.739 554.824> 1495 96<316.188 501.501>
VStem: 81 108<266.283 1188.12> 574 119<-37.3857 4 89.9616 368.48>
LayerCount: 2
Fore
SplineSet
574 2 m 1
 574 4 l 1
 527 -18 484 -54 430 -54 c 0
 90 -54 81 464 81 711 c 0
 81 753 80 805 80 862 c 0
 80 1158 106 1591 421 1591 c 0
 457 1591 503 1580 503 1533 c 0
 503 1503 478 1485 451 1485 c 0
 432 1485 414 1495 395 1495 c 0
 195 1495 190 927 190 744 c 0
 190 709 189 670 189 617 c 0
 189 400 206 51 426 51 c 0
 489 51 535 84 571 137 c 1
 570 190 563 329 540 371 c 1
 519 369 490 363 463 363 c 0
 427 363 395 374 395 421 c 0
 395 477 527 489 565 489 c 0
 626 489 652 434 652 380 c 0
 652 257 693 138 693 15 c 0
 693 -14 674 -41 643 -41 c 0
 614 -41 585 -26 574 2 c 1
EndSplineSet
EndChar

StartChar: H
Encoding: 40 72 35
Width: 624
Flags: HW
HStem: -31 21G<442.297 480.297> 769 55<212.12 391.649> 1537 20G<117.5 142.5>
VStem: 84 112<1069.82 1553.48> 121 89<330.198 765.379> 374 110<1055 1543.92> 410 112<-28.184 485.08>
LayerCount: 2
Fore
SplineSet
374 1496 m 0xf4
 373 1515 399 1547 426 1547 c 0
 454 1547 484 1512 484 1393 c 0xf4
 484 943 522 491 522 43 c 0
 522 10 499 -31 462 -31 c 0
 423 -31 410 4 410 37 c 0
 410 278 405 519 393 759 c 1
 371 763 349 769 327 769 c 0
 288 769 246 769 210 753 c 1
 212 521 244 291 244 59 c 0
 244 34 228 5 201 5 c 0
 171 5 160 16 145 41 c 0
 120 83 127 514 121 602 c 0xea
 100 904 84 1207 84 1510 c 2
 84 1525 l 1
 86 1547 106 1557 129 1557 c 0
 156 1557 186 1542 191 1514 c 1
 186 1462 184 1411 184 1360 c 0
 184 1220 198 1079 198 939 c 0
 198 914 196 888 196 862 c 0
 196 844 197 827 200 809 c 1
 264 811 327 822 392 824 c 1
 391 1048 374 1272 374 1496 c 0xf4
EndSplineSet
EndChar

StartChar: I
Encoding: 41 73 36
Width: 489
Flags: HW
HStem: 19 94<62.1949 196.997 304 431.276> 1442 111<253.531 373.693>
VStem: 159 93<970.339 1427.6> 197 107<115.015 601.922>
LayerCount: 2
Fore
SplineSet
378 19 m 2xd0
 121 19 l 2
 106 19 62 23 62 64 c 0
 62 101 92 113 124 113 c 0
 149 113 169 112 187 112 c 0
 193 112 197 120 197 158 c 0xd0
 197 474 159 789 159 1105 c 0
 159 1175 163 1244 163 1314 c 0
 163 1352 162 1390 158 1428 c 1
 143 1423 125 1419 110 1419 c 0
 83 1419 62 1430 62 1468 c 0
 62 1540 263 1553 315 1553 c 0
 346 1553 375 1529 375 1497 c 0
 375 1470 357 1442 327 1442 c 0
 313 1442 301 1443 291 1443 c 0
 267 1443 252 1437 252 1401 c 0xe0
 252 1001 304 603 304 203 c 2
 304 115 l 5
 319 115 331 116 346 116 c 0
 390 116 429 109 429 82 c 1
 441 33 410 19 378 19 c 2xd0
EndSplineSet
EndChar

StartChar: J
Encoding: 42 74 37
Width: 475
Flags: HW
HStem: 1444 109<319 408.587>
VStem: 218 101<676.164 1234.98> 241 111<14.3192 725.664>
LayerCount: 2
Fore
SplineSet
352 315 m 0xa0
 352 64 306 -86 153 -194 c 1
 113 -194 79 -175 79 -131 c 0
 79 -94 129 -61 159 -48 c 1
 194 -4 241 84 241 241 c 0xa0
 241 428 222 615 218 802 c 0
 213 1016 223 1233 188 1445 c 1
 159 1439 129 1429 99 1429 c 0
 71 1429 47 1453 47 1481 c 0
 47 1553 243 1553 292 1553 c 0
 334 1553 410 1548 410 1497 c 0
 410 1451 354 1443 319 1444 c 1
 319 1439 319 1434 319 1429 c 0xc0
 319 1323 315 1218 315 1112 c 0
 315 846 352 581 352 315 c 0xa0
EndSplineSet
EndChar

StartChar: K
Encoding: 43 75 38
Width: 691
Flags: HW
HStem: -27 20G<124 188.96 557.842 581.842>
VStem: 93 130<5.64945 573.75 1054.9 1534.1> 120 90<228.75 833.91 954 1368.44> 518 113<-44.5786 161.312>
LayerCount: 2
Fore
SplineSet
334 955 m 1xd0
 369 864 631 48 631 11 c 0
 631 -23 598 -48 566 -48 c 0
 550 -48 534 -41 518 -40 c 1
 465 272 405 590 278 880 c 1
 226 776 210 769 210 650 c 0xb0
 210 523 223 397 223 270 c 0
 223 226 225 -7 153 -7 c 0
 95 -7 93 67 93 108 c 0xd0
 93 292 120 476 120 660 c 0xb0
 120 754 123 905 123 1049 c 0
 123 1175 120 1296 111 1369 c 0
 107 1402 93 1443 93 1476 c 0
 93 1509 116 1541 151 1541 c 0
 225 1541 227 1426 227 1375 c 0
 227 1235 221 1094 218 954 c 1
 256 1045 446 1596 513 1596 c 0
 543 1596 571 1574 571 1542 c 0
 571 1497 359 1108 334 991 c 1
 334 955 l 1xd0
EndSplineSet
EndChar

StartChar: L
Encoding: 44 76 39
Width: 485
Flags: HW
HStem: -23 21G<168 195.5> -4 106<241.661 347.391 348.424 429.473> 1551 20G<125.5 154.5>
VStem: 88 112<1092.36 1568.47> 129 112<102 568.643>
LayerCount: 2
Fore
SplineSet
241 102 m 1x68
 387 102 l 1
 409 87 431 83 431 54 c 0
 431 25 410 -4 379 -4 c 0x68
 369 -4 357 1 348 3 c 1
 335 0 322 -1 309 -1 c 0
 287 -1 265 2 243 2 c 1
 229 -15 206 -23 185 -23 c 0
 151 -23 116 7 116 42 c 0
 116 73 129 101 129 132 c 0xa8
 129 598 88 1063 88 1529 c 0
 88 1556 113 1571 138 1571 c 0
 171 1571 200 1546 200 1512 c 0xb0
 200 1266 221 1019 221 775 c 0
 221 753 220 732 217 710 c 1
 217 701 l 1
 225 523 241 345 241 167 c 2
 241 102 l 1x68
EndSplineSet
EndChar

StartChar: M
Encoding: 45 77 40
Width: 854
Flags: HW
LayerCount: 2
Fore
SplineSet
593.150390625 1529 m 1
 600.150390625 1565 631.150390625 1587 671.150390625 1587 c 0
 697.150390625 1587 719.150390625 1560 719.150390625 1535 c 0
 719.150390625 1049 744.50390625 565 744.50390625 79 c 0
 744.50390625 -2 676.50390625 -45 676.50390625 -23 c 1
 616.6015625 -42 630.50390625 15 629.50390625 57 c 0
 620.288085938 416 630.50390625 256 627.150390625 1132 c 1
 595.150390625 947 560.89453125 815 524.44140625 577 c 1
 500.479492188 463 486.65625 222 411.084960938 222 c 0
 346.573242188 222 352.102539062 364 346.573242188 413 c 0
 325.376953125 589 254.001953125 931 208.842773438 1210 c 1
 207.921875 1115 207 1020 207 925 c 0
 207 641 224 357 224 73 c 0
 224 44 213 17 193 -4 c 1
 118 -4 106 58 106 122 c 0
 106 236 113 350 113 464 c 0
 113 729 106 993 106 1257 c 0
 106 1346 107 1434 109 1522 c 1
 166 1554 l 1
 266.904296875 1545 395.41796875 585 423.065429688 424 c 1
 485.323242188 780 554.443359375 1150 593.150390625 1517 c 1
 593.150390625 1529 l 1
EndSplineSet
EndChar

StartChar: N
Encoding: 46 78 41
Width: 764
Flags: HW
LayerCount: 2
Fore
SplineSet
234.78515625 1112 m 1xc4
 236.627929688 1183 208.05859375 1235 197 1298 c 1xe4
 197 2 l 1
 125 2 l 1
 125 40 l 1xd0
 132 67 119 116 119 177 c 0
 119 371 93 688 93 812 c 2
 93 1073 l 2
 93 1198 107 1324 107 1449 c 0
 107 1514 104 1554 184 1554 c 0
 215.432617188 1554 249.53125 1528 249.53125 1492 c 0
 249.53125 1419 283.629882812 1356 302.061523438 1288 c 0
 320.494140625 1220 318.651367188 1148 331.553710938 1078 c 0
 379.4765625 817 494.676757812 564 511.264648438 298 c 1
 523.24609375 276 528.775390625 250 530.619140625 225 c 1
 530.619140625 463 537.069335938 701 537.069335938 939 c 2xe4
 537.069335938 1545 l 1
 545.069335938 1580 571.069335938 1596 604.069335938 1596 c 0
 649.069335938 1596 660.069335938 1553 660.069335938 1516 c 2
 660.069335938 1504 l 1xc8
 651.069335938 1485 647.069335938 1465 647.069335938 1444 c 0
 647.069335938 1193 639.069335938 939 639.069335938 687 c 2
 639.069335938 61 l 2
 639.069335938 17 610.069335938 -21 549.069335938 -21 c 0
 483.6171875 -21 490.068359375 65 478.087890625 113 c 0
 399.751953125 421 300.21875 721 249.53125 1037 c 0
 245.844726562 1061 249.53125 1092 234.78515625 1112 c 1xc4
EndSplineSet
EndChar

StartChar: O
Encoding: 47 79 42
Width: 694
Flags: HW
HStem: -57 112<313.879 430.661> 1477 108<247.884 379.064>
VStem: 81 92<405.651 1256.12> 506 93<202.334 1065.61>
LayerCount: 2
Fore
SplineSet
304 1477 m 0
 171 1477 173 950 173 852 c 0
 173 720 217 55 379 55 c 0
 495 55 506 561 506 653 c 0
 506 797 501 1477 304 1477 c 0
568 215 m 0
 568 113 493 -57 375 -57 c 0
 107 -57 81 609 81 799 c 0
 81 915 91 1030 97 1146 c 0
 105 1292 82 1585 295 1585 c 0
 489 1585 528 1400 550 1242 c 0
 579 1035 599 827 599 618 c 0
 599 531 582 446 581 359 c 1
 581 350 l 1
 571 306 568 261 568 215 c 0
EndSplineSet
EndChar

StartChar: P
Encoding: 48 80 43
Width: 551
Flags: HW
LayerCount: 2
Fore
SplineSet
360 1158 m 2
 360 1159 l 2
 360 1334 324 1362 187 1459 c 1
 188 1243 204 1027 205 811 c 1
 309 909 360 1014 360 1158 c 2
67 1520 m 1
 85 1546 113 1566 145 1566 c 0
 356 1566 466 1365 466 1175 c 0
 466 983 384 805 210 712 c 1
 211 499 226 287 226 74 c 0
 226 30 209 -11 158 -11 c 0
 122 -11 109 29 109 58 c 0
 109 260 119 526 119 789 c 0
 119 1059 108 1327 67 1520 c 1
EndSplineSet
EndChar

StartChar: Q
Encoding: 49 81 44
Width: 720
Flags: HW
LayerCount: 2
Fore
SplineSet
297 20 m 1
 108 149 82 359 82 574 c 0
 82 685 92 797 92 908 c 0
 92 943 90 994 90 1052 c 0
 90 1265 112 1576 311 1576 c 0
 420 1576 526 1486 551 1377 c 0
 603 1146 606 897 606 659 c 0
 606 408 616 260 481 70 c 1
 491 27 511 -169 567 -169 c 0
 603 -169 663 -167 663 -219 c 0
 663 -270 613 -282 572 -282 c 0
 541 -282 513 -268 487 -253 c 1
 487 -252 l 1
 393 -207 396 -69 378 20 c 1
 297 20 l 1
494 793 m 2
 494 925 472 1057 461 1188 c 0
 450 1314 458 1474 294 1474 c 0
 191 1474 183 775 183 653 c 0
 183 522 194 95 364 80 c 1
 364 82 l 1
 374 99 392 108 411 108 c 1
 411 107 l 1
 469 162 494 252 494 327 c 2
 494 793 l 2
EndSplineSet
EndChar

StartChar: R
Encoding: 50 82 45
Width: 601
Flags: HW
HStem: -13 13G<144.5 185.48 468.684 511.184> 1537 20G<145.5 256.48>
VStem: 116 213<865.225 948.014> 116 94<189.764 859 952.454 1463> 308 116<1121.77 1412.2> 412 123<-12.75 200.897>
LayerCount: 2
Fore
SplineSet
308 1207 m 1xd8
 308 1266 288 1449 221 1463 c 1
 220 1324 210 1184 210 1045 c 0
 210 1014 210 982 212 951 c 1
 236 975 258 1002 278 1030 c 1
 308 1207 l 1xd8
102 44 m 2
 102 60 l 2
 102 460 116 861 116 1261 c 2
 116 1513 l 2
 116 1541 121 1557 170 1557 c 0
 343 1557 424 1370 424 1217 c 0xd8
 424 1097 372 985 329 876 c 1
 331 648 464 299 535 76 c 1
 535 71 l 2
 535 35 537 -21 486 -21 c 0
 452 -21 429 8 412 34 c 1
 412 41 l 1xe4
 403 183 337 312 307 450 c 0
 277 586 260 724 227 859 c 1
 227 52 l 2
 227 17 211 -13 160 -13 c 0
 129 -13 102 12 102 44 c 2
EndSplineSet
EndChar

StartChar: S
Encoding: 51 83 46
Width: 581
Flags: HW
HStem: -45 93<92.7991 300.393> 1456 118<324.108 417.828>
VStem: 89 117<1077.43 1430.07> 382 121<153.265 579.036>
LayerCount: 2
Fore
SplineSet
427 685 m 1
 458 572 503 461 503 342 c 0
 503 179 415 -45 223 -45 c 0
 183 -45 64 -31 64 24 c 0
 64 52 78 79 110 79 c 0
 154 79 191 48 223 48 c 0
 336 48 382 268 382 355 c 0
 382 690 89 940 89 1275 c 0
 89 1408 163 1574 317 1574 c 0
 365 1574 419 1545 438 1500 c 1
 438 1456 l 1
 410 1456 346 1460 323 1476 c 1
 241 1468 206 1360 206 1290 c 0
 206 1052 427 714 427 701 c 2
 427 685 l 1
EndSplineSet
EndChar

StartChar: T
Encoding: 52 84 47
Width: 543
Flags: HW
HStem: -14 21G<293.5 345.5> 1438 112<333.328 486.91>
VStem: 241 102<615.456 1421.31> 253 125<-9.7756 410.891> 269 106<94.1094 854.544>
LayerCount: 2
Fore
SplineSet
375 611 m 1xc8
 375 610 l 1xc8
 364 559 361 506 361 454 c 0
 361 331 378 209 378 86 c 0
 378 46 372 -14 319 -14 c 0
 268 -14 253 48 253 89 c 0xd0
 253 198 269 307 269 416 c 0xc8
 269 629 241 841 241 1054 c 0
 241 1093 244 1163 244 1233 c 0
 244 1311 240 1389 225 1424 c 1
 188 1422 151 1413 114 1413 c 0
 82 1413 47 1433 47 1469 c 0
 47 1539 366 1550 423 1550 c 0
 455 1550 489 1526 489 1492 c 0
 489 1457 459 1438 427 1438 c 0
 402 1438 378 1442 354 1442 c 0
 347 1442 340 1442 333 1441 c 1
 343 1357 347 1273 347 1189 c 0
 347 1102 343 1013 343 925 c 0xe0
 343 819 349 714 375 611 c 1xc8
EndSplineSet
EndChar

StartChar: U
Encoding: 53 85 48
Width: 752
Flags: HW
HStem: -37 72<386.592 515.535>
VStem: 82 118<994.622 1476.3> 125 123<292.357 904.419> 499 129<1339.97 1497> 543 104<51.85 1090.33> 543 67<939.71 1373.83>
LayerCount: 2
Fore
SplineSet
651 460 m 1x84
 651 429 l 1
 650 422 646 414 646 407 c 0
 646 372 647 331 647 288 c 0
 647 137 627 -37 447 -37 c 0
 182 -37 187 283 125 474 c 0xa8
 123 480 82 1363 82 1435 c 1
 72 1446 67 1462 67 1477 c 0
 67 1509 93 1540 126 1540 c 0
 194 1540 200 1443 200 1394 c 0xc0
 200 1157 219 919 219 682 c 1
 237 641 248 492 248 444 c 0
 248 335 322 35 460 35 c 0
 542 35 543 160 543 219 c 2xa8
 543 1138 l 2x84
 543 1255 499 1372 499 1489 c 0
 499 1525 534 1545 566 1545 c 1
 628 1497 l 1
 628 1463 l 1x90
 627 1421 610 1380 610 1338 c 0
 610 1108 639 879 641 649 c 1
 641 646 l 1
 638 626 645 606 645 586 c 0
 645 544 650 502 651 460 c 1x84
EndSplineSet
EndChar

StartChar: V
Encoding: 54 86 49
Width: 664
Flags: HW
LayerCount: 2
Fore
SplineSet
554 1569 m 2
 597 1569 l 1
 553 1166 481 729 444 288 c 0
 435 180 457 -34 370 -34 c 0
 352 -34 334 -26 322 -12 c 1
 232 359 133 1161 51 1523 c 1
 59 1550 84 1563 111 1563 c 0
 164 1563 166 1501 172 1465 c 0
 232 1089 278 712 354 339 c 1
 399 733 479 1130 479 1528 c 1
 498 1552 523 1569 554 1569 c 2
EndSplineSet
EndChar

StartChar: W
Encoding: 55 87 50
Width: 950
Flags: HW
LayerCount: 2
Fore
SplineSet
380 1286 m 0
 380 1299 380 1312 380 1325 c 0
 380 1353 405 1388 434 1388 c 0
 473 1388 517 1374 517 1328 c 2
 517 1297 l 2
 518 1011 606 740 650 461 c 1
 685 809 753 1155 753 1506 c 0
 753 1561 764 1592 827 1592 c 0
 857 1592 890 1569 890 1536 c 0
 890 1519 881 1501 869 1489 c 1
 810 1165 819 825 765 498 c 0
 740 347 714 196 714 43 c 0
 714 5 696 -28 653 -28 c 0
 565 -28 561 298 552 365 c 0
 530 543 485 717 453 893 c 1
 415 606 378 318 378 28 c 0
 378 -2 348 -29 319 -29 c 0
 247 -29 244 76 244 127 c 0
 244 250 84 1413 52 1491 c 1
 66 1517 92 1540 123 1540 c 0
 232 1540 221 1164 227 1086 c 0
 243 891 277 697 305 503 c 1
 326 694 380 1115 380 1286 c 0
EndSplineSet
EndChar

StartChar: X
Encoding: 56 88 51
Width: 578
Flags: HW
LayerCount: 2
Fore
SplineSet
102 1473 m 2
 102 1478 l 1
 112 1500 134 1520 160 1520 c 0
 227 1520 219 1463 226 1415 c 0
 241 1304 278 1196 301 1087 c 1
 321 1158 364 1550 443 1550 c 0
 469 1550 504 1536 504 1505 c 0
 504 1474 486 1447 476 1419 c 0
 448 1343 351 872 351 796 c 0
 351 765 447 309 459 248 c 1
 459 236 l 1
 463 182 489 134 489 80 c 0
 489 50 463 24 433 24 c 0
 402 24 373 38 373 73 c 0
 373 231 328 385 293 538 c 1
 257 385 220 232 192 77 c 0
 184 31 175 -13 118 -13 c 0
 93 -13 63 5 63 33 c 0
 63 84 94 144 109 193 c 0
 150 326 235 689 235 819 c 0
 235 1045 102 1262 102 1473 c 2
EndSplineSet
EndChar

StartChar: Y
Encoding: 57 89 52
Width: 522
Flags: HW
HStem: -25 21G<278.5 307.5>
VStem: 53 393<1287 1539> 53 113<1260.28 1544.11> 211 143<426.621 996.203> 240 112<-23.0074 869.068>
LayerCount: 2
Fore
SplineSet
240 25 m 0x88
 240 157 250 289 250 421 c 0
 250 541 211 656 211 776 c 0x90
 211 1025 53 1267 53 1513 c 0xc0
 53 1540 99 1546 118 1546 c 0
 138 1546 164 1527 166 1507 c 0xa0
 180 1338 217 1170 268 1006 c 1
 284 1088 294 1539 392 1539 c 0
 406 1539 446 1539 446 1517 c 0xc0
 446 1287 348 1062 348 828 c 0
 348 804 354 781 354 757 c 2
 354 726 l 2x90
 354 545 353 364 353 183 c 0
 353 149 352 115 352 81 c 2
 352 35 l 2
 352 -2 323 -25 292 -25 c 0
 265 -25 240 -3 240 25 c 0x88
EndSplineSet
EndChar

StartChar: Z
Encoding: 58 90 53
Width: 494
Flags: HW
HStem: -19 104<187 371> 1441 108<82.0618 305.812> 1544 20G<326 374>
LayerCount: 2
Fore
SplineSet
79 1549 m 1xc0
 108 1550 l 1
 127 1545 145 1543 165 1543 c 0
 229 1543 294 1564 358 1564 c 0xa0
 390 1564 414 1536 414 1505 c 0
 414 1414 386 1314 374 1224 c 0
 329 886 298 543 231 209 c 0
 222 165 198 128 187 85 c 1
 210 86 253 93 295 93 c 0
 350 93 403 81 403 30 c 2
 403 21 l 1
 371 -11 l 1
 287 -11 202 -19 118 -19 c 0
 87 -19 70 5 60 31 c 1
 163 197 293 1235 307 1451 c 1
 282 1449 235 1441 190 1441 c 0
 133 1441 79 1453 79 1506 c 2
 79 1549 l 1xc0
EndSplineSet
EndChar

StartChar: bracketleft
Encoding: 59 91 54
Width: 523
Flags: HW
LayerCount: 2
Fore
SplineSet
385 -68 m 0
 385 -103 346 -112 319 -112 c 0
 268 -112 72 -108 72 -35 c 0
 72 134 115 301 115 470 c 0
 115 808 168 1142 168 1480 c 0
 168 1525 182 1556 207 1576 c 5
 285 1576 l 2
 327 1576 471 1572 471 1511 c 0
 471 1481 441 1465 415 1465 c 0
 376 1465 339 1478 300 1478 c 0
 287 1478 262 1478 262 1458 c 0
 262 1095 232 732 209 370 c 0
 202 263 182 156 182 48 c 2
 182 6 l 1
 235 6 385 11 385 -68 c 0
EndSplineSet
EndChar

StartChar: backslash
Encoding: 60 92 55
Width: 561
Flags: HW
LayerCount: 2
Fore
SplineSet
463 -30 m 1
 463 -31 l 1
 388 -31 346 234 333 293 c 0
 260 633 177 972 102 1312 c 0
 88 1376 60 1439 60 1505 c 0
 60 1535 87 1555 115 1555 c 0
 160 1555 165 1484 172 1453 c 0
 250 1109 501 332 501 31 c 0
 501 6 484 -17 463 -30 c 1
EndSplineSet
EndChar

StartChar: bracketright
Encoding: 61 93 56
Width: 506
Flags: HW
LayerCount: 2
Fore
SplineSet
263 1458 m 2
 263 1476 l 1
 218 1475 173 1465 128 1465 c 0
 97 1465 54 1471 54 1511 c 0
 54 1573 204 1578 247 1578 c 2
 319 1578 l 1
 366 1559 358 1540 358 1481 c 0
 358 1156 394 835 394 510 c 4
 394 327 435 148 435 -35 c 4
 435 -108 238 -112 187 -112 c 4
 158 -112 121 -103 121 -68 c 4
 121 11 271 5 323 6 c 5
 323 48 l 5
 313 519 263 986 263 1458 c 2
EndSplineSet
EndChar

StartChar: asciicircum
Encoding: 62 94 57
Width: 355
Flags: HW
LayerCount: 2
Fore
SplineSet
108 1575 m 0
 108 1612 128 1656 171 1656 c 0
 211 1656 245 1623 245 1583 c 0
 245 1546 219 1515 181 1515 c 0
 144 1515 108 1534 108 1575 c 0
EndSplineSet
EndChar

StartChar: underscore
Encoding: 63 95 58
Width: 982
Flags: HW
LayerCount: 2
Fore
SplineSet
141 -137 m 4
 113 -137 90 -113 90 -85 c 4
 90 -34 201 -23 308 -23 c 4
 385 -23 458 -20 485 -20 c 4
 593 -20 702 0 814 0 c 4
 846 0 881 -24 881 -58 c 4
 881 -127 832 -115 690 -115 c 4
 508 -115 328 -137 141 -137 c 4
EndSplineSet
EndChar

StartChar: grave
Encoding: 64 96 59
Width: 583
Flags: HW
HStem: 1525 176<286.184 363.196> 1596 130<93.0743 214.484>
LayerCount: 2
Fore
SplineSet
215 1598 m 1x80
 204 1597 192 1596 180 1596 c 0
 137 1596 91 1607 91 1658 c 0
 91 1683 96 1712 119 1726 c 1x40
 158 1726 202 1728 233 1701 c 1
 287 1682 473 1634 473 1565 c 0
 473 1541 447 1525 425 1525 c 0
 393 1525 254 1583 215 1598 c 1x80
EndSplineSet
EndChar

StartChar: a
Encoding: 65 97 60
Width: 674
Flags: HW
HStem: -11 13G<113 169 541.5 577.5> 304 71<252.689 432>
VStem: 426 146<376.172 560.205> 445 116<2.86023 298 375 620.862> 475 122<-14.1442 287.545>
LayerCount: 2
Fore
SplineSet
597 41 m 2xc8
 597 39 l 2
 597 15 589 -10 566 -19 c 1
 517 -19 475 -10 475 49 c 0xc8
 475 133 459 216 445 298 c 1xd0
 424 299 403 304 382 304 c 2
 314 304 l 1
 289 315 260 314 233 314 c 1
 227 254 210 -11 128 -11 c 0
 98 -11 63 11 63 44 c 1
 124 272 160 510 201 744 c 0
 222 863 257 980 273 1100 c 0
 282 1169 280 1307 317 1363 c 1
 386 1363 l 2
 418 1363 456 1359 456 1321 c 0
 456 1058 482 794 533 536 c 0
 546 468 572 401 572 331 c 0xe0
 572 318 561 303 561 290 c 0xd0
 561 239 597 99 597 41 c 2xc8
432 375 m 1
 427 400 426 425 426 451 c 0xe0
 426 648 391 843 371 1038 c 1
 328 832 254 619 251 408 c 1
 286 385 388 378 432 375 c 1
EndSplineSet
EndChar

StartChar: b
Encoding: 66 98 61
Width: 542
Flags: HW
LayerCount: 2
Fore
SplineSet
378 1296 m 0
 378 1205 439 1118 439 1028 c 0
 439 956 437 883 415 815 c 0
 402 774 381 740 356 705 c 1
 445 620 451 475 451 360 c 0
 451 167 369 -20 155 -20 c 0
 93 -20 91 42 91 88 c 0
 91 234 111 378 111 524 c 0
 111 740 120 957 120 1173 c 0
 120 1208 120 1244 118 1279 c 1
 118 1298 l 6
 118 1342 128 1383 176 1383 c 0
 217 1383 378 1350 378 1296 c 0
220 244 m 1
 208 224 207 199 207 176 c 2
 207 84 l 1
 302 107 341 217 341 308 c 0
 341 400 332 619 222 643 c 1
 215 540 214 436 214 333 c 0
 214 303 213 273 220 244 c 1
220 1288 m 1
 220 763 l 1
 318 766 323 939 323 1012 c 0
 323 1076 302 1278 220 1288 c 1
EndSplineSet
EndChar

StartChar: c
Encoding: 67 99 62
Width: 568
Flags: HW
HStem: -29 108<275.686 463.64> 1256 108<285.037 484.623>
VStem: 77 135<150.659 1085.61>
LayerCount: 2
Fore
SplineSet
499 52 m 0
 499 -9 446 -29 385 -29 c 0
 319 -29 245 -6 214 14 c 0
 86 97 78 359 78 495 c 0
 78 527 77 569 77 615 c 0
 77 847 89 1213 221 1310 c 0
 276 1350 331 1364 427 1364 c 0
 456 1364 486 1340 486 1311 c 2
 486 1303 l 1
 472 1268 436 1256 387 1256 c 0
 375 1256 363 1258 350 1258 c 0
 230 1258 212 913 212 827 c 2
 212 817 l 2
 212 685 199 554 199 422 c 0
 199 286 211 79 393 79 c 0
 409 79 425 86 437 97 c 1
 465 97 499 85 499 52 c 0
EndSplineSet
EndChar

StartChar: d
Encoding: 68 100 63
Width: 645
Flags: HW
LayerCount: 2
Fore
SplineSet
239 141 m 2xd0
 239 92 l 1xd0
 275.864257812 92 l 1
 421.4765625 270 442.673828125 374 442.673828125 612 c 0
 442.673828125 784 437.14453125 1231 231 1258 c 1
 218 1188 216 1116 216 1045 c 0xb0
 216 743 239 443 239 141 c 2xd0
296.139648438 -12 m 1
 156 -12 l 2
 106 -12 104 190 104 256 c 0xd0
 104 471 110 686 110 901 c 0xb0
 110 1013 108 1125 103 1237 c 1
 91 1251 86 1268 86 1286 c 0
 86 1322 124 1353 158 1353 c 0
 183 1353 207 1337 220 1317 c 1
 250.059570312 1304 280.471679688 1307 308.120117188 1294 c 0
 463.673828125 1222 550.673828125 1020 550.673828125 808 c 0
 550.673828125 778 546.673828125 741 546.673828125 705 c 2
 546.673828125 593 l 2
 546.673828125 341 529.673828125 119 296.139648438 -12 c 1
EndSplineSet
EndChar

StartChar: e
Encoding: 69 101 64
Width: 517
Flags: HW
HStem: -27 104<225.479 446.636> 711 114<218.998 327.96> 1197 140<224.383 422.47>
VStem: 102.45 122<79.7676 711 822.47 1233.18> 105.45 331<-23.7102 76.9902 1236.42 1309.54>
LayerCount: 2
Fore
SplineSet
102.44921875 36 m 0xf0
 99.44921875 91 112.44921875 119 112.44921875 174 c 4
 112.44921875 261 102.44921875 349 102.44921875 436 c 0xf0
 102.44921875 635 116.44921875 835 116.44921875 1034 c 0
 116.44921875 1092 105.44921875 1149 105.44921875 1207 c 0
 105.44921875 1266 114.44921875 1352 191.44921875 1352 c 0
 207.44921875 1352 223.44921875 1346 236.44921875 1337 c 1
 283.44921875 1330 436.44921875 1330 436.44921875 1261 c 0xe8
 436.44921875 1229 403.44921875 1207 376.44921875 1197 c 1
 326.44921875 1214 274.44921875 1230 221.44921875 1236 c 1
 223.44921875 1207 224.44921875 1177 224.44921875 1148 c 0
 224.44921875 1050 215.44921875 952 215.44921875 854 c 0
 215.44921875 844 219.44921875 832 221.44921875 822 c 1
 238.44921875 822 266.44921875 825 294.44921875 825 c 0
 343.44921875 825 393.44921875 816 393.44921875 769 c 0
 393.44921875 732 369.44921875 693 328.44921875 693 c 0
 308.44921875 693 286.44921875 699 270.44921875 711 c 1
 218.44921875 711 l 1
 222.44921875 659 224.44921875 615 224.44921875 563 c 0
 224.44921875 440 215.44921875 315 215.44921875 192 c 0
 215.44921875 139 223.44921875 77 289.44921875 77 c 0
 307.44921875 77 339.44921875 82 370.44921875 82 c 0
 410.44921875 82 448.44921875 73 448.44921875 32 c 0
 448.44921875 -13 397.44921875 -27 360.44921875 -27 c 2
 167.44921875 -27 l 2
 131.44921875 -27 104.44921875 1 102.44921875 36 c 0xf0
EndSplineSet
EndChar

StartChar: f
Encoding: 70 102 65
Width: 541
Flags: HW
LayerCount: 2
Fore
SplineSet
119 975 m 0
 100 655 113 333 84 13 c 1
 141 -30 l 1
 197 -30 210 25 210 72 c 2
 210 652 l 1
 232 645 268 640 291 640 c 0
 325 640 363 662 363 700 c 0
 363 747 308 754 264 754 c 0
 249 754 236 753 226 753 c 1
 226 808 l 2
 226 945 244 1082 245 1219 c 1
 245 1243 l 1
 281 1243 343 1239 376 1223 c 1
 415 1223 480 1229 480 1281 c 0
 480 1358 265 1364 211 1364 c 0
 175 1364 132 1344 132 1303 c 0
 132 1193 125 1085 119 975 c 0
EndSplineSet
EndChar

StartChar: g
Encoding: 71 103 66
Width: 654
Flags: HW
LayerCount: 2
Fore
SplineSet
370.947265625 624 m 1xf8
 370.947265625 623 l 1
 427.165039062 623 571.361328125 619 571.361328125 560 c 0xf8
 571.361328125 509 549.361328125 462 549.361328125 411 c 0
 549.361328125 341 559.361328125 266 559.361328125 194 c 0xf4
 559.361328125 160 557.361328125 126 550.361328125 93 c 1
 487.361328125 36 417.02734375 -16 338.69140625 -16 c 0
 279.708984375 -16 225.333984375 9 168 105 c 4
 112 194 72 516 72 622 c 4
 72 716 85 809 92 903 c 4
 106 1094 119 1354 346.985351562 1354 c 0
 378.3203125 1354 424.400390625 1349 424.400390625 1302 c 0
 424.400390625 1268 393.987304688 1247 366.338867188 1247 c 0
 353.4375 1247 340.534179688 1252 328.553710938 1252 c 0
 203.215820312 1252 194 732 194 629 c 4
 194 433 200.451171875 91 360.809570312 91 c 0
 455.361328125 91 448.361328125 380 448.361328125 450 c 2
 448.361328125 511 l 1
 435.458984375 519 420.713867188 519 405.967773438 519 c 0
 395.831054688 519 382.927734375 518 370.025390625 518 c 0
 338.69140625 518 307.357421875 524 307.357421875 565 c 0
 307.357421875 606 338.69140625 624 370.947265625 624 c 1xf8
EndSplineSet
EndChar

StartChar: h
Encoding: 72 104 67
Width: 627
Flags: HW
HStem: 0 21G<455.556 485.056> 632 80<218.874 389.635> 1335 20G<138 182.98> 1354 20G<411.556 437.056>
VStem: 99 112<84.2507 651 714.093 1353.61> 369 118<883.109 1372.28> 392 133<7.05811 501.005>
LayerCount: 2
Fore
SplineSet
525 38 m 0xda
 525 12 499 0 472 0 c 0
 440 0 405 17 403 46 c 0
 394 213 392 381 392 548 c 2
 392 556 l 1
 393 576 391 595 391 615 c 0
 391 621 390 628 390 634 c 2
 390 636 l 1
 378 633 356 632 344 632 c 0
 301 632 262 649 217 651 c 1
 216 576 211 500 211 425 c 2
 211 416 l 2
 211 304 228 191 228 79 c 0
 228 44 211 5 171 5 c 0
 111 5 99 134 99 283 c 0
 99 391 105 509 105 595 c 0
 105 647 106 680 106 712 c 0
 106 752 110 792 110 832 c 0
 110 986 96 1140 96 1294 c 0
 96 1325 122 1355 154 1355 c 0xea
 212 1355 219 1276 219 1233 c 0
 219 1063 211 892 211 722 c 1
 247 712 283 712 319 712 c 2
 397 712 l 1
 397 755 l 2
 397 944 369 1131 369 1320 c 0
 369 1351 397 1374 427 1374 c 0
 448 1374 487 1395 487 1326 c 0xdc
 487 896 525 468 525 38 c 0xda
EndSplineSet
EndChar

StartChar: i
Encoding: 73 105 68
Width: 551
Flags: HW
HStem: 18 100<115.714 215.998 322 490.574> 1254 102<53.5369 206.779 317 422.715>
VStem: 202 112<227.891 1065.91> 213 112<130.234 674.203 687.094 1248>
LayerCount: 2
Fore
SplineSet
280 22 m 0xe0
 246 22 219 18 191 18 c 0
 160 18 130 26 115 55 c 1
 115 88 119 118 154 118 c 2
 212 118 l 1
 213 127 216 136 216 145 c 0
 216 290 202 435 202 580 c 0xe0
 202 732 213 884 213 1036 c 0
 213 1109 210 1182 203 1254 c 1
 164 1254 l 1
 149 1255 133 1254 117 1254 c 0
 83 1254 53 1262 53 1309 c 0
 53 1360 136 1356 171 1356 c 0
 227 1356 434 1355 434 1286 c 4
 434 1276 426 1257 422 1248 c 5
 317 1248 l 1
 323 1192 325 1129 325 1072 c 0xd0
 325 942 314 811 314 681 c 0
 314 536 329 391 329 246 c 2
 329 185 l 2
 329 166 325 146 322 130 c 1
 409 130 l 2
 450 130 493 122 493 79 c 0
 493 48 470 24 446 24 c 0
 416 24 387 23 357 23 c 0
 341 23 317 22 280 22 c 0xe0
EndSplineSet
EndChar

StartChar: j
Encoding: 74 106 69
Width: 569
Flags: HW
HStem: 1205 154<354.64 427.22> 1242 117<90.6294 243>
VStem: 243 110<791.681 1225> 261 112<-34.875 628.319>
LayerCount: 2
Fore
SplineSet
103 -254 m 1x90
 42 -193 l 1
 218 -82 261 -9 261 187 c 0x90
 261 536 243 884 243 1233 c 2
 243 1242 l 1
 201 1247 81 1252 81 1312 c 0
 81 1342 124 1359 148 1359 c 0x60
 208 1359 513 1327 513 1253 c 0
 513 1222 485 1205 457 1205 c 0
 422 1205 388 1219 353 1225 c 1
 353 1208 l 2xa0
 353 933 373 657 373 382 c 0
 373 352 370 321 370 290 c 0
 370 230 373 171 373 114 c 0
 373 -64 343 -217 103 -254 c 1x90
EndSplineSet
EndChar

StartChar: k
Encoding: 75 107 70
Width: 696
Flags: HW
HStem: -35 21G<145 179 505.5 590> 1337 20G<184 213>
VStem: 97 113<-27.628 717.004> 136 114<862.956 1354.82>
LayerCount: 2
Fore
SplineSet
603 1289 m 0xd0
 603 1284 411 976 383 919 c 1
 383 878 379 838 379 797 c 0
 379 678 505 252 567 149 c 0
 592 108 633 71 633 19 c 0
 633 -13 605 -35 575 -35 c 0
 436 -35 302 626 281 752 c 1
 228 698 210 591 210 578 c 2
 210 17 l 2
 210 -14 193 -31 165 -31 c 0
 125 -31 97 -7 97 34 c 2
 97 656 l 2xe0
 97 877 136 1097 136 1318 c 1
 147 1342 171 1357 197 1357 c 0
 229 1357 250 1326 250 1288 c 0
 250 1252 238 1038 233 915 c 1
 233 808 l 1
 273 883 470 1344 524 1344 c 0
 557 1344 603 1329 603 1289 c 0xd0
EndSplineSet
EndChar

StartChar: l
Encoding: 76 108 71
Width: 522
Flags: HW
HStem: -28 16G<137 166 377.5 420.5> -9 87<218.917 404.232> 1335 20G<146 195>
VStem: 96 109<83.2345 482.203> 116 103<510.797 1301.56>
LayerCount: 2
Fore
SplineSet
213 545 m 0xe8
 213 435 205 333 205 219 c 0
 205 154 214 78 274 78 c 0
 293 78 326 81 359 81 c 0
 413 81 469 72 469 21 c 0
 469 -11 434 -29 407 -33 c 1
 348 -14 286 -9 224 -9 c 1
 203 -21 178 -28 154 -28 c 0
 120 -28 96 7 96 39 c 0xf0
 96 344 116 649 116 954 c 2
 116 969 l 1
 110 1033 110 1097 110 1161 c 0
 110 1207 111 1355 181 1355 c 0
 209 1355 233 1332 233 1304 c 0
 233 1252 219 1200 219 1148 c 0
 219 984 225 820 225 656 c 1
 211 622 213 581 213 545 c 0xe8
EndSplineSet
EndChar

StartChar: m
Encoding: 77 109 72
Width: 878
Flags: HW
LayerCount: 2
Fore
SplineSet
766.2421875 93 m 5
 771.2421875 81 775.2421875 67 775.2421875 54 c 4
 775.2421875 15 754.2421875 -34 717.2421875 -34 c 4
 658.2421875 -34 653.2421875 52 653.2421875 94 c 4
 653.2421875 156.759541985 656.2421875 220.240458015 656.2421875 283 c 0
 656.2421875 402 655.2421875 521 652.2421875 639 c 1
 657.2421875 794 655.2421875 955 655.2421875 1125 c 1
 603.397460938 802 554.552734375 529 508.508789062 255 c 1
 500.545898438 212 501.4296875 114 433.305664062 114 c 0
 387.299804688 114 367.8359375 150 360.7578125 202 c 0
 343.948242188 337 257.866210938 904 221.923828125 1065 c 1
 214.55078125 740 206.021484375 415 206.021484375 89 c 0
 206.021484375 69 209.021484375 47 209.021484375 28 c 0
 209.021484375 -10 199.021484375 -40 143.021484375 -40 c 0
 118.021484375 -40 84.021484375 -20 85.021484375 9 c 0
 88.021484375 193 131.021484375 843 131.021484375 1261 c 1
 135.021484375 1331 148.021484375 1347 198.021484375 1351 c 0
 245.885742188 1355 255.1015625 1269 265.239257812 1217 c 1
 275.376953125 1147 315.927734375 991 333.331054688 873 c 1
 368.720703125 665 401.456054688 459 432.420898438 243 c 1
 489.928710938 551 535.19921875 841 586.80859375 1179 c 0
 595.102539062 1238 600.6328125 1348 676.2421875 1348 c 0
 707.2421875 1348 751.2421875 1329 751.2421875 1292 c 0
 751.2421875 1075 752.2421875 857 760.2421875 640 c 1
 761.2421875 569 768.66015625 491.999023438 768.2421875 423 c 2
 766.2421875 93 l 5
EndSplineSet
EndChar

StartChar: n
Encoding: 78 110 73
Width: 769
Flags: HW
LayerCount: 2
Fore
SplineSet
223.23046875 278 m 6
 223.23046875 46 l 6
 223.23046875 12 204 -18 170 -18 c 4
 111 -18 103 64 103 107 c 4
 103 347.666992188 99 588.333007812 99 829 c 0
 99 956 111 1084 111 1211 c 0
 111 1243 108 1349 186 1349 c 0
 222.2890625 1349 244.869140625 1303 251.454101562 1280 c 0
 305.58984375 1017.6875 391.325195312 781.900390625 444.470703125 524.5 c 1
 480.08984375 402.040039062 504.470703125 279.318359375 540.470703125 152.5 c 5
 546.484375 509.620117188 547.942382812 868.809570312 547.942382812 1228 c 0
 547.942382812 1244 544.942382812 1264 544.942382812 1283 c 0
 544.942382812 1315 552.942382812 1344 595.942382812 1344 c 0
 637.942382812 1344 663.942382812 1302 663.942382812 1264 c 0
 663.942382812 1046.58398438 648.704101562 160.666015625 599.942382812 -9 c 5
 576.942382812 -16 551.942382812 -26 527.942382812 -26 c 4
 468.942382812 -26 477.942382812 35 458.942382812 73 c 5
 422.470703125 219.309570312 254.919921875 980.0078125 211 1114.5 c 1
 211 808 l 2
 211 693.686523438 223.23046875 440.1171875 223.23046875 278 c 6
EndSplineSet
EndChar

StartChar: o
Encoding: 79 111 74
Width: 669
Flags: HW
HStem: -38 85<272.183 380.183> 1269 84<228.377 390.933>
VStem: 77.1946 112<272.02 713.998 714 1175.18> 460.195 110<164.842 1011.35>
LayerCount: 2
Fore
SplineSet
192.596679688 912.900390625 m 0
 192.596679688 847.600585938 192.193359375 782.299804688 192.193359375 717 c 0
 192.193359375 613 201.966796875 47 321.193359375 47 c 0
 444.474609375 47 457.193359375 454 457.193359375 564 c 0
 457.193359375 614.819335938 459.974609375 691.202148438 459.974609375 775.193359375 c 0
 459.974609375 995.87890625 440.77734375 1269.0859375 301.499023438 1269.0859375 c 0
 300.076171875 1269.0859375 298.641601562 1269.05761719 297.193359375 1269 c 1
 204.00390625 1269 190.040039062 1142.71777344 190.040039062 1033.15917969 c 0
 190.040039062 986.274414062 192.596679688 942.452148438 192.596679688 912.900390625 c 0
329.193359375 -38 m 0
 108.193359375 -38 78.193359375 410 78.193359375 626 c 0
 78.193359375 672.4140625 77.193359375 715.243164062 77.193359375 751 c 0
 77.193359375 758.412109375 77 772.287109375 77 791.017578125 c 0
 77 931.495117188 87.8994140625 1345.05859375 273.193359375 1353 c 1
 369.193359375 1319 414.193359375 1349 480.193359375 1237 c 1
 551.193359375 1120 570.193359375 932 570.193359375 798 c 2
 570.193359375 551 l 2
 570.193359375 368 556.193359375 -38 329.193359375 -38 c 0
EndSplineSet
EndChar

StartChar: p
Encoding: 80 112 75
Width: 540
Flags: HW
LayerCount: 2
Fore
SplineSet
226 1228 m 1
 226 1115 l 2
 226 982 214 849 215 716 c 1
 215 713 l 1
 334 729 339 969 339 1059 c 0
 339 1136 326 1228 226 1228 c 1
114 1080 m 0
 114 1147 111 1213 97 1270 c 1
 102 1297 120 1342 153 1342 c 2
 243 1342 l 2
 408 1342 451 1180 451 1044 c 0
 451 831 448 699 216 628 c 1
 216 409 l 2
 216 279 232 151 232 21 c 0
 232 -14 204 -39 170 -39 c 2
 120 -39 l 1
 110 8 108 80 108 128 c 0
 108 303 103 477 103 652 c 0
 103 714 111 815 111 885 c 0
 111 944 114 1012 114 1080 c 0
EndSplineSet
EndChar

StartChar: q
Encoding: 81 113 76
Width: 654
Flags: HW
LayerCount: 2
Fore
SplineSet
283 1288 m 0
 196 1288 177 785 177 699 c 0
 177 590 177 7 304 6 c 1
 322 14 342 18 361 18 c 0
 402 18 462 386 462 726 c 0
 462 1018 419 1288 283 1288 c 0
504 -434 m 1
 504 -432 l 1
 451 -432 389 -427 353 -385 c 1
 353 -276 330 -169 310 -62 c 1
 150 -25 116 81 100 241 c 0
 82 411 78 583 78 754 c 0
 78 903 86 1369 288 1369 c 1
 317 1356 354 1353 383 1341 c 1
 546 1262 556 990 556 812 c 0
 556 635 554 30 406 -49 c 1
 406 -143 431 -235 450 -326 c 1
 490 -326 554 -333 554 -384 c 0
 554 -412 532 -434 504 -434 c 1
EndSplineSet
EndChar

StartChar: r
Encoding: 82 114 77
Width: 557
Flags: HW
HStem: -5 21G<149.5 171 388 464.5> 1289 76<191.004 272.812>
VStem: 87 104<831.08 1287.55> 122 90<-3.5918 513.901 522.673 567.658> 306 102<875.573 1264.11>
LayerCount: 2
Fore
SplineSet
187 520 m 0xe8
 187 391 212 190 212 86 c 0
 212 25 184 -5 158 -5 c 0
 141 -5 125 9 120 36 c 1
 121 74 122 111 122 149 c 0xd8
 122 518 87 898 87 1268 c 0
 87 1314 98 1365 155 1365 c 0
 289 1365 408 1295 408 1149 c 0
 408 948 375 875 303 736 c 1
 349 533 375 296 462 107 c 0
 474 80 496 47 496 17 c 0
 496 -10 479 -35 450 -35 c 0
 326 -35 264 576 215 689 c 1
 215 636 187 577 187 520 c 0xe8
306 1098 m 0
 306 1175 300 1287 198 1289 c 1
 196 1280 191 1269 191 1260 c 0xe8
 191 1102 198 945 199 787 c 1
 271 824 306 1023 306 1098 c 0
EndSplineSet
EndChar

StartChar: s
Encoding: 83 115 78
Width: 500
Flags: HW
HStem: -23 94<179 256.281> 1261 120<208.681 350.031>
VStem: 75 104<881.844 1245.32> 321 100<147.571 556.658>
LayerCount: 2
Fore
SplineSet
176 1075 m 0
 176 811 421 689 421 342 c 0
 421 191 363 -19 179 -23 c 1
 179 -28 l 1
 135 -22 81 3 75 51 c 1
 75 86 l 1
 103 82 154 71 183 71 c 0
 294 71 321 286 321 367 c 0
 321 631 76 790 76 1086 c 0
 76 1194 125 1381 261 1381 c 0
 305 1381 362 1349 362 1300 c 0
 362 1273 335 1261 312 1261 c 0
 298 1261 281 1266 269 1273 c 1
 201 1271 176 1127 176 1075 c 0
EndSplineSet
EndChar

StartChar: t
Encoding: 84 116 79
Width: 552
Flags: HW
HStem: 1237 104<328.453 487.562> 1255 105<53.4468 222.646>
VStem: 223 100<820.949 1250.72> 283 108<8.80151 503.359>
LayerCount: 2
Fore
SplineSet
283 260 m 1x90
 271 299 225 1154 223 1255 c 1
 181 1256 49 1255 49 1316 c 0
 49 1344 91 1360 114 1360 c 0x60
 207 1360 299 1341 392 1341 c 0
 402 1341 413 1342 425 1342 c 0
 457 1342 489 1336 489 1293 c 0
 489 1257 453 1237 421 1237 c 0
 389 1237 358 1247 327 1251 c 1
 326 1245 323 1237 323 1230 c 0xa0
 323 841 391 456 391 67 c 0
 391 34 362 6 329 6 c 2
 283 6 l 1
 283 58 279 138 279 190 c 0
 279 213 282 237 283 260 c 1x90
EndSplineSet
EndChar

StartChar: u
Encoding: 85 117 80
Width: 698
Flags: HW
HStem: -31 62<259.392 377.482> 1335 20G<81 116>
VStem: 95 92<122.761 1332.91> 460 123<422.727 1014.43> 486 118<915.672 1386.63>
LayerCount: 2
Fore
SplineSet
583 878 m 1xf0
 539 672 617 -31 322 -31 c 0
 120 -31 95 257 95 473 c 0
 95 693 106 821 106 1013 c 0
 106 1114 101 1213 81 1306 c 1
 81 1355 l 1
 151 1355 187 1289 187 1232 c 2
 187 241 l 2
 187 152 230 31 343 31 c 0
 437 31 455 479 460 559 c 0xf0
 474 808 486 1057 486 1307 c 0
 486 1319 485 1330 485 1341 c 0
 485 1369 492 1389 541 1389 c 0
 601 1389 604 1336 604 1290 c 0xe8
 604 1221 590 1151 590 1084 c 0
 590 1027 581 970 581 913 c 0
 581 901 583 890 583 878 c 1xf0
EndSplineSet
EndChar

StartChar: v
Encoding: 86 118 81
Width: 732
Flags: HW
LayerCount: 2
Fore
SplineSet
373 247 m 1
 392 341 402 437 413 532 c 0
 446 817 514 1096 561 1378 c 1
 607 1378 l 1
 630 1375 654 1377 654 1351 c 0
 654 1170 574 998 545 821 c 0
 525 698 521 572 502 449 c 0
 490 375 464 304 451 230 c 0
 438 156 454 -24 342 -24 c 1
 296 7 l 1
 296 377 206 754 114 1110 c 0
 101 1161 58 1274 58 1319 c 0
 58 1345 83 1366 108 1366 c 0
 186 1366 197 1194 209 1139 c 0
 274 843 330 547 373 247 c 1
EndSplineSet
EndChar

StartChar: w
Encoding: 87 119 82
Width: 841
Flags: HW
LayerCount: 2
Fore
SplineSet
719.3203125 1046 m 1
 722.3203125 1144 750.3203125 1241 752.3203125 1329 c 0
 752.3203125 1360 729.3203125 1377 700.3203125 1377 c 0
 655.3203125 1377 637.3203125 1357 637.3203125 1327 c 0
 637.3203125 1316 639.3203125 1305 644.3203125 1292 c 1
 644.3203125 1189 613.3203125 1087 613.3203125 984 c 0
 613.3203125 758 605.948242188 531 579.221679688 307 c 1
 543.278320312 586 543.278320312 871 471.39453125 1143 c 1
 471.39453125 1160 l 2
 471.39453125 1194 443.74609375 1210 416 1210 c 2
 361 1210 l 1
 356 1105 335 971 335 858 c 0
 335 665 302 474 274 283 c 1
 263 589 183 888 183 1195 c 0
 183 1238 177 1329 117 1329 c 0
 92 1329 69 1316 58 1293 c 1
 115 1164 105 989 115 850 c 0
 123 740 147 632 160 522 c 0
 170 436 163 -43 272 -43 c 0
 350 -43 358 205 365 262 c 0
 388 450 429 636 429 826 c 0
 429 865 431.764648438 903 435.452148438 942 c 1
 462.178710938 741 466.786132812 538 489.826171875 337 c 0
 501.806640625 233 529.455078125 131 529.455078125 25 c 0
 529.455078125 -13 538.670898438 -69 581.064453125 -69 c 0
 656.3203125 -69 656.3203125 86 656.3203125 139 c 0
 656.3203125 192 669.3203125 235 678.3203125 286 c 0
 713.3203125 485 719.3203125 695 719.3203125 896 c 2
 719.3203125 1046 l 1
EndSplineSet
EndChar

StartChar: x
Encoding: 88 120 83
Width: 531
Flags: HW
LayerCount: 2
Fore
SplineSet
210 660 m 0
 210 733 115 1172 82 1219 c 1
 82 1241 l 1
 69 1254 65 1274 65 1292 c 0
 65 1322 102 1334 126 1334 c 0
 195 1334 184 1240 194 1194 c 0
 215 1094 242 995 262 894 c 1
 280 1003 312 1137 312 1238 c 0
 312 1285 330 1344 374 1340 c 0
 422 1336 402 1275 402 1202 c 2
 402 1109 l 1
 370 1021 310 741 310 646 c 0
 310 475 456 175 456 54 c 0
 456 24 429 3 401 3 c 0
 385 3 368 9 354 17 c 1
 324 156 288 294 259 433 c 1
 240 320 242 203 209 93 c 1
 210 86 210 78 210 69 c 0
 210 33 199 -7 157 -7 c 0
 130 -7 95 8 95 40 c 0
 95 253 210 447 210 660 c 0
EndSplineSet
EndChar

StartChar: y
Encoding: 89 121 84
Width: 580
Flags: HW
HStem: -28 21G<302.5 347>
VStem: 265 114<368.688 756.455> 282 97<19.2493 659.312>
LayerCount: 2
Fore
SplineSet
379 109 m 2xa0
 379 53 378 -28 316 -28 c 0
 289 -28 269 -6 259 17 c 1
 282 62 282 300 282 364 c 0xa0
 282 464 269 564 265 664 c 1
 215 751 58 1207 58 1288 c 6
 58 1299 l 1
 104 1333 l 1
 183 1331 266 951 292 877 c 1
 322 954 362 1362 452 1362 c 0
 476 1362 502 1346 502 1319 c 0
 502 1118 379 932 379 726 c 2xc0
 379 109 l 2xa0
EndSplineSet
EndChar

StartChar: z
Encoding: 90 122 85
Width: 550
Flags: HW
HStem: -4 21G<105.5 133.5> 18 89<182.039 384.965> 1244 115<151.588 367.001>
VStem: 65 116<107 239.334> 368 106<1110.4 1256>
LayerCount: 2
Fore
SplineSet
302 111 m 1
 302 112 l 1
 337 112 385 109 385 62 c 0
 385 25 344 12 314 12 c 0
 274 12 233 18 193 18 c 0
 166 18 147 -4 120 -4 c 0
 91 -4 65 18 65 48 c 0
 65 115 116 263 136 335 c 0
 165 439 182 546 209 651 c 0
 261 853 358 1045 368 1256 c 1
 312 1254 257 1244 201 1244 c 0
 171 1244 148 1272 148 1301 c 0
 148 1356 291 1359 356 1359 c 0
 391 1359 474 1364 474 1302 c 0
 474 1172 397 1059 377 933 c 0
 332 653 192 393 181 107 c 1
 216 107 l 2
 245 107 273 111 302 111 c 1
EndSplineSet
EndChar

StartChar: cent
Encoding: 95 162 86
Width: 666
Flags: HW
LayerCount: 2
Fore
SplineSet
520 1140 m 1
 520 1135 l 2
 520 1114 500 1084 476 1084 c 0
 444 1084 419 1112 408 1140 c 1
 350 1140 l 1
 366 929 390 612 406 428 c 0
 407 420 404 411 404 403 c 0
 404 399 405 395 406 391 c 1
 484 395 519 452 558 511 c 1
 599 511 617 492 617 451 c 0
 617 373 474 307 405 301 c 1
 405 222 l 2
 405 157 419 93 419 28 c 0
 419 2 397 -20 371 -20 c 1
 349 9 339 17 339 65 c 0
 339 111 331 156 331 202 c 0
 331 239 327 276 324 313 c 1
 87 402 84 560 84 777 c 0
 84 943 89 1156 250 1254 c 1
 246 1292 238 1330 238 1368 c 0
 238 1403 244 1456 292 1456 c 1
 327 1433 326 1422 326 1371 c 0
 326 1332 331 1293 336 1254 c 1
 395 1236 513 1218 520 1140 c 1
262 1150 m 1
 200 1068 183 889 183 790 c 0
 183 695 189 427 327 406 c 1
 320 547 287 908 262 1150 c 1
EndSplineSet
EndChar

StartChar: sterling
Encoding: 96 163 87
Width: 764
Flags: HW
LayerCount: 2
Fore
SplineSet
293 1539 m 1
 293 1519 l 1
 265 1486 205 1318 205 1270 c 0
 205 1173 204 1071 224 976 c 1
 293 979 360 1002 429 1002 c 0
 456 1002 481 980 481 952 c 0
 481 873 297 891 245 883 c 1
 276 717 352 548 352 378 c 0
 352 305 326 238 305 169 c 1
 395 162 480 125 570 125 c 0
 602 125 634 130 663 144 c 1
 712 109 l 1
 712 41 662 27 606 27 c 0
 570 27 533 34 506 34 c 2
 440 34 l 1
 411 45 350 71 306 71 c 0
 269 71 157 21 122 2 c 1
 122 6 l 1
 97 8 64 23 64 53 c 0
 64 123 151 125 193 158 c 0
 240 194 255 325 255 382 c 0
 255 550 189 707 148 867 c 1
 123 871 104 893 104 918 c 0
 104 937 114 956 131 966 c 1
 128 1057 106 1147 106 1238 c 0
 106 1329 121 1632 251 1632 c 2
 316 1632 l 2
 396 1632 483 1474 483 1403 c 2
 483 1394 l 1
 451 1359 l 1
 397 1359 393 1380 370 1422 c 1
 370 1459 l 1
 362 1475 356 1492 352 1509 c 1
 339 1523 313 1536 293 1539 c 1
EndSplineSet
EndChar

StartChar: currency
Encoding: 97 164 88
Width: 899
Flags: HW
LayerCount: 2
Fore
SplineSet
235 696 m 0
 235 687 240 678 240 669 c 0
 240 641 235 614 235 585 c 0
 235 527 242 462 291 421 c 1
 291 332 367 305 447 305 c 0
 645 305 683 640 683 779 c 0
 683 840 657 1027 620 1071 c 1
 590 1077 569 1103 566 1132 c 1
 535 1165 484 1181 438 1181 c 0
 411 1181 344 1121 327 1100 c 1
 327 1086 l 2
 327 1055 336 1009 293 1009 c 0
 267 1009 235 774 235 696 c 0
684 251 m 1
 684 293 l 1
 616 235 501 205 410 205 c 0
 338 205 270 243 221 290 c 1
 204 253 184 201 135 201 c 0
 91 201 71 236 71 276 c 0
 71 315 136 360 157 392 c 1
 128 446 125 507 125 567 c 0
 125 692 129 977 197 1078 c 1
 174 1119 100 1160 100 1209 c 0
 100 1235 123 1255 148 1255 c 0
 200 1255 229 1209 257 1172 c 1
 285 1202 348 1285 392 1285 c 0
 474 1285 554 1259 623 1216 c 1
 658 1260 686 1351 754 1351 c 1
 807 1304 l 1
 803 1241 712 1165 712 1141 c 0
 712 1019 802 902 802 772 c 0
 802 643 735 525 735 396 c 0
 735 335 812 308 812 247 c 0
 812 219 790 195 762 195 c 0
 727 195 688 212 684 251 c 1
EndSplineSet
EndChar

StartChar: yen
Encoding: 98 165 89
Width: 938
Flags: HW
LayerCount: 2
Fore
SplineSet
106 1774 m 0
 205 1774 443 1293 500 1207 c 1
 537 1302 654 1832 751 1832 c 0
 781 1832 809 1809 809 1778 c 2
 809 1768 l 1
 748 1597 680 1438 635 1262 c 0
 618 1192 587 1129 573 1059 c 1
 600 1059 690 1066 751 1066 c 0
 818 1066 878 1054 878 1005 c 0
 878 963 806 957 765 957 c 2
 567 957 l 1
 567 887 l 1
 599 887 680 889 763 889 c 0
 818 889 873 876 873 820 c 0
 873 797 844 780 817 780 c 0
 705 780 712 780 562 776 c 1
 561 564 531 354 531 142 c 0
 531 128 532 111 532 94 c 0
 532 45 524 -8 463 -8 c 0
 436 -8 400 6 400 40 c 2
 400 45 l 1
 426 112 442 663 442 773 c 1
 206 773 l 1
 167 774 144 809 144 838 c 0
 144 854 151 869 168 875 c 1
 264 875 358 878 450 883 c 1
 452 907 452 934 452 958 c 1
 304 958 l 2
 236 958 173 968 173 1010 c 0
 173 1049 213 1057 254 1057 c 0
 287 1057 322 1052 353 1052 c 0
 386 1052 418 1054 451 1059 c 1
 451 1071 l 1
 354 1220 197 1534 53 1705 c 1
 47 1717 44 1728 44 1737 c 0
 44 1762 66 1774 106 1774 c 0
EndSplineSet
EndChar

StartChar: dieresis
Encoding: 101 168 90
Width: 754
Flags: HW
HStem: 954 141<102.829 231.519 522.922 652.34>
VStem: 97 141<963.054 1089.7> 517 141<960.578 1091>
LayerCount: 2
Fore
SplineSet
517 1023 m 0
 517 1062 551 1098 590 1098 c 0
 627 1098 658 1061 658 1025 c 0
 658 983 621 954 581 954 c 0
 545 954 517 988 517 1023 c 0
156 954 m 0
 117 954 97 984 97 1021 c 0
 97 1061 126 1095 167 1095 c 0
 205 1095 238 1065 238 1026 c 0
 238 984 195 954 156 954 c 0
EndSplineSet
EndChar

StartChar: copyright
Encoding: 102 169 91
Width: 1233
Flags: HW
LayerCount: 2
Fore
SplineSet
622 332 m 0
 730 332 750 440 823 440 c 0
 864 440 883 404 883 372 c 0
 883 283 716 225 634 225 c 0
 328 225 296 583 296 813 c 0
 296 817 296 821 296 825 c 0
 296 1028 299 1499 596 1499 c 0
 708 1499 862 1380 862 1275 c 0
 862 1247 839 1223 807 1223 c 0
 697 1223 705 1387 606 1387 c 0
 490 1387 414 1093 414 815 c 4
 414 567 474 332 622 332 c 0
204 940 m 0
 204 825 216 710 223 595 c 0
 236 366 248 81 561 81 c 0
 844 81 979 234 1040 464 c 1
 1040 894 l 2
 1040 971 1012 1046 997 1121 c 0
 954 1328 889 1528 692 1658 c 0
 655 1683 612 1713 562 1713 c 0
 244 1713 204 1160 204 940 c 0
87 924 m 0
 87 1208 137 1812 535 1812 c 0
 1044 1812 1154 1105 1154 757 c 0
 1154 403 1071 -20 589 -20 c 0
 132 -20 119 311 99 660 c 0
 94 748 87 836 87 924 c 0
EndSplineSet
EndChar

StartChar: guillemotleft
Encoding: 103 171 92
Width: 728
Flags: HW
LayerCount: 2
Fore
SplineSet
471 1440 m 1
 364 1193 291 929 177 687 c 1
 210 526 534 65 534 -13 c 0
 534 -45 496 -59 470 -59 c 0
 425 -59 66 607 66 697 c 0
 66 749 289 1261 327 1361 c 1
 331 1398 363 1456 388 1483 c 1
 388 1485 l 1
 394 1486 401 1489 407 1489 c 0
 436 1489 469 1473 471 1440 c 1
640 -22 m 0
 628 -22 612 -22 600 -18 c 0
 568 -8 280 612 240 698 c 1
 243 798 426 1125 464 1255 c 0
 475 1293 502 1447 563 1447 c 0
 565 1447 567 1446 570 1446 c 1
 615 1411 l 1
 588 1193 357 869 357 702 c 0
 357 679 631 135 668 69 c 1
 666 39 677 -22 640 -22 c 0
EndSplineSet
EndChar

StartChar: registered
Encoding: 106 174 93
Width: 1161
Flags: HW
LayerCount: 2
Fore
SplineSet
566.015625 1525 m 0
 479.015625 1525 461.015625 1475 461.015625 1407 c 0
 461.015625 1364 469.015625 1312 469.015625 1263 c 0
 469.015625 1175 470.015625 1086 492.015625 1000 c 1
 608.015625 1049 670.015625 1142 670.015625 1272 c 0
 670.015625 1347 672.015625 1525 566.015625 1525 c 0
862.015625 199 m 0
 862.015625 175 829.015625 143 807.015625 143 c 0
 690.015625 143 592.015625 797 548.015625 914 c 1
 495.015625 914 l 1
 493.015625 882 490.015625 828 490.015625 796 c 0
 490.015625 600 534.015625 406 534.015625 210 c 0
 534.015625 174 518.015625 143 479.015625 143 c 0
 443.015625 143 406.015625 169 406.015625 208 c 0
 406.015625 295 372.015625 383 372.015625 470 c 2
 372.015625 1454 l 2
 372.015625 1603 429.015625 1635 560.015625 1635 c 0
 759.015625 1635 787.015625 1433 787.015625 1270 c 0
 787.015625 1023 663.015625 1007 652.015625 969 c 1
 655.015625 888 794.015625 425 827.015625 314 c 1
 827.015625 271 862.015625 239 862.015625 199 c 0
963.015625 706 m 0
 963.015625 1058 965.015625 1832 624.015625 1832 c 4
 233.015625 1832 211.015625 1241 211.015625 954 c 0
 211.015625 747 212.015625 179 345.015625 27 c 0
 380.015625 -13 426.015625 -31 467.015625 -64 c 1
 526.015625 -64 l 1
 526.015625 -84 l 1
 926.015625 -79 963.015625 396 963.015625 706 c 0
613.015625 -190 m 0
 118.015625 -190 93.015625 366 93.015625 765 c 0
 93.015625 1072 45.015625 1938 609.015625 1938 c 0
 729.015625 1938 839.015625 1851 907.015625 1755 c 1
 1029.015625 1679 1077.015625 968 1077.015625 807 c 0
 1077.015625 470 1076.015625 -190 613.015625 -190 c 0
EndSplineSet
EndChar

StartChar: acute
Encoding: 112 180 94
Width: 530
Flags: HW
HStem: 1553 20G<334 376>
LayerCount: 2
Fore
SplineSet
90 1339 m 2
 90 1341 l 1
 92 1396 310 1528 358 1573 c 1
 394 1573 436 1560 436 1517 c 0
 436 1500 430 1484 427 1468 c 1
 339 1432 224 1354 159 1285 c 1
 125 1285 90 1300 90 1339 c 2
EndSplineSet
EndChar

StartChar: paragraph
Encoding: 114 182 95
Width: 935
Flags: HW
LayerCount: 2
Fore
SplineSet
697 1859 m 1
 697 1858 l 1
 751 1858 l 1
 751 1854 l 1
 786 1852 883 1838 883 1790 c 0
 883 1747 843 1737 803 1739 c 1
 804 1540 817 1341 817 1142 c 0
 817 850 805 557 805 265 c 0
 805 188 817 113 817 36 c 0
 817 4 790 -20 759 -20 c 0
 692 -20 685 52 685 103 c 0
 685 461 703 819 703 1177 c 0
 703 1326 689 1474 689 1623 c 0
 689 1642 692 1666 692 1689 c 0
 692 1731 682 1769 632 1769 c 0
 625 1769 624 1700 624 1689 c 0
 624 1452 649 1217 649 980 c 0
 649 674 613 370 613 64 c 0
 613 21 603 -8 554 -8 c 0
 518 -8 492 21 492 56 c 0
 492 359 535 661 535 964 c 0
 535 1009 532 1053 531 1098 c 1
 360 1098 122 1118 76 1321 c 0
 71 1342 72 1364 63 1384 c 1
 63 1747 228 1823 558 1854 c 1
 575 1871 597 1876 620 1876 c 0
 646 1876 672 1864 697 1859 c 1
433 1748 m 0
 286 1748 177 1592 176 1455 c 1
 176 1224 323 1196 518 1196 c 0
 522 1196 529 1199 533 1200 c 1
 533 1366 513 1531 513 1697 c 2
 513 1740 l 1
 486 1748 461 1748 433 1748 c 0
EndSplineSet
EndChar

StartChar: cedilla
Encoding: 116 184 96
Width: 461
Flags: HW
HStem: -504 123<98.2449 199.106> -219 221<131.637 229.415>
VStem: 131 99<-104.547 2> 246 133<-400.507 -215.556>
LayerCount: 2
Fore
SplineSet
112 -157 m 1
 129 -123 131 -84 131 -45 c 2
 131 2 l 1
 243 2 l 1
 236 -34 232 -54 230 -91 c 1
 342 -112 379 -216 379 -318 c 0
 379 -406 290 -504 200 -504 c 0
 153 -504 88 -481 88 -425 c 0
 88 -400 110 -381 134 -381 c 0
 157 -381 181 -388 200 -401 c 1
 221 -399 246 -361 246 -341 c 0
 246 -306 231 -273 223 -240 c 1
 258 -275 l 1
 258 -266 l 2
 258 -247 256 -228 241 -214 c 1
 221 -217 206 -219 194 -219 c 0
 158 -219 143 -204 112 -157 c 1
EndSplineSet
EndChar

StartChar: guillemotright
Encoding: 118 187 97
Width: 755
Flags: HW
LayerCount: 2
Fore
SplineSet
363 1486 m 1
 363 1485 l 1
 391 1457 424 1402 429 1363 c 1
 467 1264 689 751 689 700 c 0
 689 610 330 -56 286 -56 c 0
 260 -56 221 -43 221 -10 c 0
 221 68 545 528 579 689 c 1
 464 928 432 1211 283 1433 c 1
 286 1467 314 1490 348 1490 c 0
 352 1490 359 1487 363 1486 c 1
155 -19 m 1
 142 -19 126 -23 113 -23 c 0
 76 -23 60 19 59 49 c 1
 95 116 394 680 394 702 c 0
 394 908 139 1202 137 1411 c 1
 182 1446 l 1
 182 1444 l 1
 256 1410 268 1324 288 1255 c 0
 326 1123 509 803 512 698 c 1
 155 -19 l 1
EndSplineSet
EndChar

StartChar: AE
Encoding: 129 198 104
Width: 919
Flags: HW
LayerCount: 2
Fore
SplineSet
465 2 m 1
 465 3 l 1
 473 86 483 169 483 253 c 0
 483 380 473 506 473 633 c 1
 416 628 358 630 303 611 c 1
 202 226 l 2
 189 178 174 1 107 1 c 0
 84 1 67 27 67 48 c 0
 67 288 332 1103 415 1380 c 0
 431 1437 452 1544 528 1544 c 0
 581 1544 631 1554 684 1554 c 0
 721 1554 771 1546 771 1498 c 0
 771 1482 771 1466 771 1450 c 1
 706 1450 620 1447 558 1440 c 1
 560 1349 572 1258 572 1166 c 0
 572 1016 566 866 566 716 c 1
 614 720 662 735 712 735 c 1
 764 687 l 1
 764 625 688 621 642 621 c 2
 565 621 l 1
 566 441 571 262 571 82 c 1
 645 83 720 103 796 103 c 0
 825 103 864 87 864 53 c 0
 864 -8 700 -12 620 -12 c 2
 590 -12 l 2
 561 -12 538 -38 509 -43 c 1
 465 2 l 1
470 706 m 1
 472 855 477 1004 477 1153 c 0
 477 1196 477 1240 475 1283 c 1
 418 1087 363 889 323 688 c 1
 372 691 422 695 470 706 c 1
EndSplineSet
EndChar

StartChar: Ccedilla
Encoding: 130 199 105
Width: 684
Flags: HW
LayerCount: 2
Fore
SplineSet
449 1443 m 1
 449 1439 l 1
 417 1439 l 1
 417 1447 l 1
 220 1447 199 1293 199 1139 c 0
 199 1092 205 1045 205 998 c 0
 205 950 187 903 187 855 c 0
 187 753 228 219 268 159 c 0
 301 109 366 92 422 92 c 0
 472 92 521 112 554 151 c 1
 576 151 598 154 619 161 c 1
 619 134 l 2
 619 32 555 -14 466 -28 c 1
 461 -59 457 -91 456 -123 c 1
 568 -144 605 -248 605 -350 c 0
 605 -438 516 -536 426 -536 c 0
 379 -536 314 -513 314 -457 c 0
 314 -432 336 -413 360 -413 c 0
 383 -413 407 -420 426 -433 c 1
 447 -430 472 -394 472 -373 c 0
 472 -339 457 -305 449 -272 c 1
 484 -307 l 1
 484 -297 l 2
 484 -278 481 -260 467 -246 c 1
 447 -249 431 -251 419 -251 c 0
 383 -251 369 -237 338 -189 c 1
 355 -154 357 -114 357 -76 c 2
 357 -30 l 1
 278 -13 196 49 162 123 c 0
 101 257 82 844 82 1036 c 0
 82 1099 84 1163 96 1225 c 1
 92 1247 90 1269 90 1289 c 0
 90 1462 239 1564 416 1564 c 0
 472 1564 559 1530 559 1464 c 0
 559 1433 530 1418 502 1418 c 0
 483 1418 458 1425 449 1443 c 1
EndSplineSet
EndChar

StartChar: Egrave
Encoding: 131 200 106
Width: 672
Flags: HW
LayerCount: 2
Fore
SplineSet
617 56 m 2
 617 49 l 1
 586 -12 504 -13 445 -13 c 2
 381 -13 l 2
 333 -13 277 -11 277 54 c 2
 277 1532 l 1
 328 1532 403 1550 454 1550 c 0
 490 1550 548 1526 548 1483 c 0
 548 1431 497 1422 455 1422 c 0
 435 1422 416 1424 396 1424 c 0
 389 1424 381 1424 374 1423 c 1
 374 1310 390 1198 390 1085 c 0
 390 1007 381 929 380 851 c 1
 412 857 443 869 476 869 c 0
 506 869 536 843 536 812 c 0
 536 781 516 749 482 749 c 0
 469 749 450 751 431 751 c 0
 410 751 405 748 395 736 c 1
 395 104 l 1xf0
 430 106 468 110 503 110 c 0
 539 110 617 107 617 56 c 2
168 1763 m 1
 158 1762 145 1761 133 1761 c 0
 91 1761 44 1772 44 1823 c 0
 44 1848 49 1877 72 1891 c 1
 111 1891 155 1893 186 1866 c 1
 240 1847 426 1799 426 1730 c 0
 426 1706 400 1690 378 1690 c 0
 346 1690 207 1748 168 1763 c 1
EndSplineSet
EndChar

StartChar: Eacute
Encoding: 132 201 107
Width: 528
Flags: HW
LayerCount: 2
Fore
SplineSet
142 1744 m 2xf0
 142 1746 l 1
 144 1801 362 1933 410 1978 c 1
 446 1978 488 1965 488 1922 c 0
 488 1905 482 1889 479 1873 c 1
 391 1837 276 1759 211 1690 c 1
 177 1690 142 1705 142 1744 c 2xf0
450 59 m 2
 450 52 l 1
 419 -9 337 -10 278 -10 c 2
 214 -10 l 2
 166 -10 110 -8 110 57 c 2
 110 1535 l 1
 161 1535 236 1553 287 1553 c 0
 323 1553 381 1529 381 1486 c 0
 381 1434 330 1425 288 1425 c 0
 268 1425 249 1427 229 1427 c 0
 222 1427 214 1427 207 1426 c 1
 207 1313 223 1201 223 1088 c 0
 223 1010 214 932 213 854 c 1
 245 860 276 872 309 872 c 0
 339 872 369 846 369 815 c 0
 369 784 349 752 315 752 c 0
 302 752 283 754 264 754 c 0
 243 754 238 751 228 739 c 1
 228 107 l 1
 263 109 301 113 336 113 c 0
 372 113 450 110 450 59 c 2
EndSplineSet
EndChar

StartChar: Ecircumflex
Encoding: 133 202 108
Width: 510
Flags: HW
LayerCount: 2
Fore
SplineSet
233 105 m 1xe0
 268 107 306 111 341 111 c 0
 377 111 455 108 455 57 c 2
 455 50 l 1
 424 -11 342 -12 283 -12 c 2
 219 -12 l 2
 171 -12 115 -10 115 55 c 2
 115 1533 l 1
 166 1533 241 1551 292 1551 c 0
 328 1551 386 1527 386 1484 c 0
 386 1432 335 1423 293 1423 c 0
 273 1423 254 1425 234 1425 c 0
 227 1425 219 1425 212 1424 c 1
 212 1311 228 1199 228 1086 c 0
 228 1008 219 930 218 852 c 1
 250 858 281 870 314 870 c 0
 344 870 374 844 374 813 c 0
 374 782 354 750 320 750 c 0
 307 750 288 752 269 752 c 0
 248 752 243 749 233 737 c 1
 233 105 l 1xe0
230 1957 m 1
 196 1859 184 1776 117 1692 c 1
 50 1740 l 1
 57 1809 172 2123 247 2123 c 0
 286 2123 299 2090 299 2056 c 0
 299 1970 361 1891 361 1818 c 2
 361 1766 l 1
 363 1759 379 1748 379 1741 c 0
 379 1708 342 1691 314 1691 c 2
 270 1691 l 1
 262 1771 249 1878 230 1957 c 1
EndSplineSet
EndChar

StartChar: Edieresis
Encoding: 134 203 109
Width: 648
Flags: HW
LayerCount: 2
Fore
SplineSet
566 56 m 2
 566 49 l 1
 535 -12 453 -13 394 -13 c 2
 330 -13 l 2
 282 -13 226 -11 226 54 c 2
 226 1532 l 1
 277 1532 352 1550 403 1550 c 0
 439 1550 497 1526 497 1483 c 0
 497 1431 446 1422 404 1422 c 0
 384 1422 365 1424 345 1424 c 0
 338 1424 330 1424 323 1423 c 1
 323 1310 339 1198 339 1085 c 0
 339 1007 330 929 329 851 c 1
 361 857 392 869 425 869 c 0
 455 869 485 843 485 812 c 0
 485 781 465 749 431 749 c 0
 418 749 399 751 380 751 c 0
 359 751 354 748 344 736 c 1
 344 104 l 1xf880
 379 106 417 110 452 110 c 0
 488 110 566 107 566 56 c 2
463 1759 m 0
 463 1798 497 1834 536 1834 c 0
 573 1834 604 1797 604 1761 c 0
 604 1719 567 1690 527 1690 c 0
 491 1690 463 1724 463 1759 c 0
102 1690 m 0
 65 1690 43 1722 43 1757 c 0
 43 1797 72 1831 113 1831 c 0
 151 1831 184 1801 184 1762 c 0
 184 1720 141 1690 102 1690 c 0
EndSplineSet
EndChar

StartChar: Igrave
Encoding: 135 204 110
Width: 681
Flags: HW
LayerCount: 2
Fore
SplineSet
498 17 m 1xb4
 498 18 l 1
 461 18 l 2
 435 18 407 -5 385 11 c 1
 352 11 256 16 256 63 c 0
 256 100 286 112 318 112 c 0x74
 335 112 349 109 361 109 c 0
 380 109 391 117 391 157 c 0
 391 473 353 788 353 1104 c 0
 353 1174 357 1243 357 1313 c 0
 357 1351 356 1389 352 1427 c 1
 337 1422 319 1418 304 1418 c 0
 277 1418 256 1429 256 1467 c 0
 256 1539 457 1552 509 1552 c 0
 540 1552 569 1528 569 1496 c 0
 569 1469 551 1441 521 1441 c 0
 507 1441 495 1442 485 1442 c 0
 461 1442 446 1436 446 1400 c 0xb8
 446 1000 498 602 498 202 c 2
 498 123 l 1
 512 125 524 126 538 126 c 0
 583 126 623 112 623 54 c 2
 623 42 l 1
 572 7 l 1
 547 7 523 16 498 17 c 1xb4
169 1763 m 1
 159 1762 146 1761 134 1761 c 0
 92 1761 45 1772 45 1823 c 0
 45 1848 50 1877 73 1891 c 1
 112 1891 156 1893 187 1866 c 1
 241 1847 427 1799 427 1730 c 0
 427 1706 401 1690 379 1690 c 0
 347 1690 208 1748 169 1763 c 1
EndSplineSet
EndChar

StartChar: Iacute
Encoding: 136 205 111
Width: 502
Flags: HW
LayerCount: 2
Fore
SplineSet
116 1744 m 2xb8
 116 1746 l 1
 118 1801 336 1933 384 1978 c 1
 420 1978 462 1965 462 1922 c 0
 462 1905 456 1889 453 1873 c 1
 365 1837 250 1759 185 1690 c 1
 151 1690 116 1705 116 1744 c 2xb8
303 20 m 1
 303 21 l 1
 266 21 l 2
 240 21 212 -2 190 14 c 1
 157 14 61 19 61 66 c 0
 61 103 91 115 123 115 c 0
 140 115 154 112 166 112 c 0x78
 185 112 196 120 196 160 c 0
 196 476 158 791 158 1107 c 0
 158 1177 162 1246 162 1316 c 0
 162 1354 161 1392 157 1430 c 1
 142 1425 124 1421 109 1421 c 0
 82 1421 61 1432 61 1470 c 0
 61 1542 262 1555 314 1555 c 0
 345 1555 374 1531 374 1499 c 0
 374 1472 356 1444 326 1444 c 0
 312 1444 300 1445 290 1445 c 0
 266 1445 251 1439 251 1403 c 0
 251 1003 303 605 303 205 c 2
 303 126 l 1xb4
 317 128 329 129 343 129 c 0
 388 129 428 115 428 57 c 2
 428 45 l 1
 377 10 l 1x78
 352 10 328 19 303 20 c 1
EndSplineSet
EndChar

StartChar: Icircumflex
Encoding: 137 206 112
Width: 512
Flags: HW
LayerCount: 2
Fore
SplineSet
329 18 m 1xa8
 329 19 l 1
 292 19 l 2
 266 19 238 -4 216 12 c 1
 183 12 87 17 87 64 c 0
 87 101 117 113 149 113 c 0
 166 113 180 110 192 110 c 0
 211 110 222 118 222 158 c 0
 222 474 184 789 184 1105 c 0
 184 1175 188 1244 188 1314 c 0
 188 1352 187 1390 183 1428 c 1
 168 1423 150 1419 135 1419 c 0
 108 1419 87 1430 87 1468 c 0
 87 1540 288 1553 340 1553 c 0
 371 1553 400 1529 400 1497 c 0
 400 1470 382 1442 352 1442 c 0
 338 1442 326 1443 316 1443 c 0
 292 1443 277 1437 277 1401 c 0xb0
 277 1001 329 603 329 203 c 2
 329 124 l 1
 343 126 355 127 369 127 c 0
 414 127 454 113 454 55 c 2
 454 43 l 1
 403 8 l 1x68
 378 8 354 17 329 18 c 1xa8
223 1958 m 1
 189 1860 177 1777 110 1693 c 1
 43 1741 l 1
 50 1810 165 2124 240 2124 c 0
 279 2124 292 2091 292 2057 c 0
 292 1971 354 1892 354 1819 c 2
 354 1767 l 1
 356 1760 372 1749 372 1742 c 0
 372 1709 335 1692 307 1692 c 2
 263 1692 l 1
 255 1772 242 1879 223 1958 c 1
EndSplineSet
EndChar

StartChar: Idieresis
Encoding: 138 207 113
Width: 650
Flags: HW
LayerCount: 2
Fore
SplineSet
448 17 m 1xbd
 448 18 l 1
 411 18 l 2
 385 18 357 -5 335 11 c 1
 302 11 206 16 206 63 c 0
 206 100 236 112 268 112 c 0x7d
 285 112 299 109 311 109 c 0
 330 109 341 117 341 157 c 0
 341 473 303 788 303 1104 c 0
 303 1174 307 1243 307 1313 c 0
 307 1351 306 1389 302 1427 c 1
 287 1422 269 1418 254 1418 c 0
 227 1418 206 1429 206 1467 c 0
 206 1539 407 1552 459 1552 c 0
 490 1552 519 1528 519 1496 c 0
 519 1469 501 1441 471 1441 c 0
 457 1441 445 1442 435 1442 c 0
 411 1442 396 1436 396 1400 c 0
 396 1000 448 602 448 202 c 2
 448 123 l 1xbb
 462 125 474 126 488 126 c 0
 533 126 573 112 573 54 c 2
 573 42 l 1
 522 7 l 1
 497 7 473 16 448 17 c 1xbd
465 1759 m 0
 465 1798 499 1834 538 1834 c 0
 575 1834 606 1797 606 1761 c 0
 606 1719 569 1690 529 1690 c 0
 493 1690 465 1724 465 1759 c 0
104 1690 m 0
 67 1690 45 1722 45 1757 c 0
 45 1797 74 1831 115 1831 c 0
 153 1831 186 1801 186 1762 c 0
 186 1720 143 1690 104 1690 c 0
EndSplineSet
EndChar

StartChar: Eth
Encoding: 139 208 114
Width: 868
Flags: HW
HStem: 1125 119<49.9124 203> 1153 121<324.126 585>
VStem: 159 118<1699 2097> 258 117<204 558.563> 659 117<582.93 1238.45>
LayerCount: 2
Fore
SplineSet
320 1141 m 1x68
 320 1140 l 1
 328 827 370 517 375 204 c 1x58
 622 419 659 677 659 983 c 0
 659 1314 650 1955 277 2097 c 1
 277 1829 l 2
 277 1635 281 1440 319 1252 c 1
 397 1256 474 1274 552 1274 c 0
 594 1274 617 1230 619 1194 c 1
 585 1153 l 1
 497 1153 408 1152 320 1141 c 1x68
340 45 m 1
 340 47 l 1
 306 57 275 74 258 107 c 1x98
 258 450 258 797 206 1137 c 1
 171 1132 135 1125 99 1125 c 0
 66 1125 47 1154 47 1184 c 0
 47 1239 133 1245 172 1244 c 1
 203 1244 l 1
 201 1548 159 1850 159 2154 c 0xa8
 159 2182 184 2220 215 2220 c 0
 349 2220 659 1966 659 1831 c 0
 659 1486 776 1154 776 809 c 0
 776 507 614 186 340 45 c 1
EndSplineSet
EndChar

StartChar: Ntilde
Encoding: 140 209 115
Width: 793
Flags: HW
LayerCount: 2
Fore
SplineSet
238 1112 m 1
 240 1183 209 1235 197 1298 c 1
 197 2 l 1
 125 2 l 1
 125 40 l 1x98
 132 67 119 116 119 177 c 0
 119 371 93 688 93 812 c 2
 93 1073 l 2xc8
 93 1198 107 1324 107 1449 c 0
 107 1514 104 1554 184 1554 c 0
 217 1554 254 1528 254 1492 c 0
 254 1419 291 1356 311 1288 c 0
 331 1220 329 1148 343 1078 c 0
 395 817 520 564 538 298 c 1
 551 276 557 250 559 225 c 1
 559 463 566 701 566 939 c 2
 566 1545 l 1
 574 1580 600 1596 633 1596 c 0
 678 1596 689 1553 689 1516 c 2
 689 1504 l 1
 680 1485 676 1465 676 1444 c 0
 676 1193 668 939 668 687 c 2
 668 61 l 2
 668 17 639 -21 578 -21 c 0
 508 -21 515 65 502 113 c 0
 417 421 309 721 254 1037 c 0xa8
 250 1061 254 1092 238 1112 c 1
125 1755 m 0
 125 1843 179 1924 272 1924 c 1
 372 1872 l 1
 382 1845 414 1800 445 1800 c 1
 445 1801 l 1
 463 1817 497 1820 497 1846 c 0
 497 1859 486 1876 484 1891 c 1
 493 1909 508 1923 529 1923 c 0
 577 1923 598 1871 598 1829 c 0
 598 1758 538 1697 468 1697 c 0
 385 1697 325 1764 275 1823 c 1
 275 1825 l 1
 223 1794 l 1
 223 1696 l 1
 187 1696 125 1713 125 1755 c 0
EndSplineSet
EndChar

StartChar: Ocircumflex
Encoding: 143 212 118
Width: 694
Flags: HW
LayerCount: 2
Fore
SplineSet
319 1957 m 1
 286 1859 274 1776 208 1692 c 1
 142 1740 l 1
 149 1809 262 2123 336 2123 c 0
 374 2123 387 2090 387 2056 c 0
 387 1970 447 1891 447 1818 c 2
 447 1766 l 1
 449 1759 465 1748 465 1741 c 0
 465 1708 428 1691 401 1691 c 2
 358 1691 l 1
 350 1771 338 1878 319 1957 c 1
304 1477 m 0
 501 1477 506 797 506 653 c 0
 506 561 495 55 379 55 c 0
 217 55 173 720 173 852 c 0
 173 950 171 1477 304 1477 c 0
569 215 m 0
 569 261 576 306 586 350 c 1
 586 359 l 1
 587 446 599 531 599 618 c 0
 599 827 579 1035 550 1242 c 0
 528 1400 489 1585 295 1585 c 0
 82 1585 105 1292 97 1146 c 0
 91 1030 81 915 81 799 c 0
 81 609 107 -57 375 -57 c 0
 493 -57 569 113 569 215 c 0
EndSplineSet
EndChar

StartChar: Otilde
Encoding: 144 213 119
Width: 698
Flags: HW
LayerCount: 2
Fore
SplineSet
67 1749 m 0
 67 1837 121 1918 215 1918 c 1
 315 1866 l 1
 325 1839 357 1794 388 1794 c 1
 388 1795 l 1
 406 1811 440 1814 440 1840 c 0
 440 1853 429 1870 427 1885 c 1
 436 1903 451 1917 472 1917 c 0
 520 1917 541 1865 541 1823 c 0
 541 1752 481 1691 411 1691 c 0
 328 1691 268 1758 218 1817 c 1
 218 1819 l 1
 166 1788 l 1
 166 1690 l 1
 129 1690 67 1707 67 1749 c 0
308 1477 m 0
 505 1477 510 797 510 653 c 0
 510 561 499 55 383 55 c 0
 221 55 177 720 177 852 c 0
 177 950 175 1477 308 1477 c 0
573 215 m 0
 573 261 580 306 590 350 c 1
 590 359 l 1
 591 446 603 531 603 618 c 0
 603 827 583 1035 554 1242 c 0
 532 1400 493 1585 299 1585 c 0
 86 1585 109 1292 101 1146 c 0
 95 1030 85 915 85 799 c 0
 85 609 111 -57 379 -57 c 0
 497 -57 573 113 573 215 c 0
EndSplineSet
EndChar

StartChar: Odieresis
Encoding: 145 214 120
Width: 719
Flags: HW
LayerCount: 2
Fore
SplineSet
593 214 m 0
 593 260 600 305 610 349 c 1
 610 358 l 1
 611 445 623 530 623 617 c 0xea
 623 826 603 1034 574 1241 c 0
 552 1399 513 1584 319 1584 c 0
 106 1584 129 1291 121 1145 c 0
 115 1029 105 914 105 798 c 0
 105 608 131 -58 399 -58 c 0
 517 -58 593 112 593 214 c 0
328 1476 m 0
 525 1476 530 796 530 652 c 0
 530 560 519 54 403 54 c 0
 241 54 197 719 197 851 c 0
 197 949 195 1476 328 1476 c 0
463 1759 m 0
 463 1798 496 1834 534 1834 c 0
 571 1834 602 1797 602 1761 c 0
 602 1719 565 1690 525 1690 c 0
 490 1690 463 1724 463 1759 c 0
107 1690 m 0
 68 1690 48 1720 48 1757 c 0
 48 1797 77 1831 118 1831 c 0
 156 1831 189 1801 189 1762 c 0xf4
 189 1720 146 1690 107 1690 c 0
EndSplineSet
EndChar

StartChar: Oslash
Encoding: 147 216 121
Width: 619
Flags: HW
LayerCount: 2
Fore
SplineSet
153.060546875 129 m 1
 99.060546875 309 88.060546875 536 89.060546875 747 c 0
 89.060546875 870 92.060546875 991 92.060546875 1108 c 0
 92.060546875 1226 92.060546875 1570 262.060546875 1570 c 0
 281.060546875 1570 302.060546875 1560 316.060546875 1548 c 1
 316.060546875 1552 l 1
 337.060546875 1633 349.060546875 1717 368.060546875 1799 c 1
 445.060546875 1799 l 1
 441.060546875 1689 400.060546875 1583 400.060546875 1473 c 0
 400.060546875 1456 423.060546875 1431 435.060546875 1420 c 1
 435.060546875 1402 435.060546875 1384 435.060546875 1366 c 0
 436.060546875 1317 483.060546875 1272 483.060546875 1223 c 2
 483.060546875 1207 l 1
 486.060546875 1086 512.060546875 962 514.060546875 843 c 0
 516.060546875 715 520.060546875 587 520.060546875 459 c 0
 520.060546875 301 519.060546875 -16 299.060546875 -16 c 0
 270.060546875 -16 242.060546875 -10 217.060546875 4 c 1
 202.060546875 -91 181.060546875 -185 164.060546875 -280 c 1
 94.060546875 -224 l 1
 94.060546875 -103 153.060546875 8 153.060546875 129 c 1
315.060546875 72 m 0
 411.060546875 72 421.060546875 319 421.060546875 464 c 0
 421.060546875 742 423.060546875 1022 378.060546875 1297 c 1
 333.060546875 945 330.060546875 586 265.060546875 237 c 0
 259.060546875 207 251.060546875 176 251.060546875 145 c 0
 251.060546875 92 260.060546875 72 315.060546875 72 c 0
267.060546875 1492 m 1
 267.060546875 1491 l 1
 233.060546875 1491 l 1
 233.060546875 1480 l 1
 189.060546875 1386 183.060546875 996 183.060546875 850 c 0
 183.060546875 734 201.060546875 619 211.060546875 503 c 1
 238.060546875 745 255.060546875 989 282.060546875 1231 c 0
 291.060546875 1307 305.060546875 1382 305.060546875 1458 c 0
 305.060546875 1478 283.060546875 1491 267.060546875 1492 c 1
EndSplineSet
EndChar

StartChar: oslash
Encoding: 179 248 148
Width: 578
Flags: HW
LayerCount: 2
Fore
SplineSet
449.090820312 1064 m 2
 449.090820312 1048 l 1
 451.090820312 956 475.090820312 860 476.090820312 773 c 0
 478.090820312 656 482.090820312 539 482.090820312 422 c 0
 482.090820312 276 479.090820312 -12 276.090820312 -12 c 0
 252.090820312 -12 227.090820312 -7 204.090820312 4 c 1
 199.090820312 -39 188.090820312 -246 131.090820312 -246 c 0
 103.090820312 -246 89.0908203125 -218 89.0908203125 -194 c 2
 89.0908203125 -192 l 1
 99.0908203125 -87 140.090820312 15 140.090820312 122 c 0
 140.090820312 143 131.090820312 162 126.090820312 182 c 0
 81.0908203125 373 85.0908203125 583 85.0908203125 778 c 2
 85.0908203125 995 l 2
 85.0908203125 1106 85.0908203125 1384 244.090820312 1384 c 0
 262.090820312 1384 280.090820312 1375 296.090820312 1366 c 1
 296.090820312 1370 l 1
 309.090820312 1444 324.090820312 1520 342.090820312 1593 c 1
 416.090820312 1593 l 1
 416.090820312 1493 380.090820312 1397 375.090820312 1297 c 0
 375.090820312 1277 375.090820312 1257 375.090820312 1237 c 1
 410.090820312 1185 449.090820312 1126 449.090820312 1064 c 2
292.090820312 73 m 0
 380.090820312 73 385.090820312 314 385.090820312 423 c 0
 385.090820312 657 386.090820312 893 348.090820312 1125 c 1
 308.090820312 825 313.090820312 515 247.090820312 220 c 0
 240.090820312 192 233.090820312 164 233.090820312 135 c 0
 233.090820312 87 245.090820312 73 292.090820312 73 c 0
245.090820312 1280 m 1
 214.090820312 1308 l 1
 214.090820312 1298 l 1
 175.090820312 1215 170.090820312 906 170.090820312 780 c 0
 170.090820312 684 182.090820312 588 192.090820312 492 c 1
 221.090820312 753 279.090820312 1017 279.090820312 1280 c 1
 245.090820312 1280 l 1
EndSplineSet
EndChar

StartChar: quoteright
Encoding: 368 8217 155
Width: 438
Flags: HW
LayerCount: 2
Fore
SplineSet
90 1193 m 1
 90 1264 l 1
 125 1298 194 1338 204 1389 c 1
 171 1413 145 1449 145 1491 c 0
 145 1543 198 1578 246 1578 c 0
 300 1578 323 1536 340 1491 c 1
 340 1485 l 2
 340 1481 336 1476 336 1471 c 0
 336 1379 246 1193 151 1193 c 2
 90 1193 l 1
EndSplineSet
EndChar

StartChar: quoteleft
Encoding: 367 8216 156
Width: 433
Flags: HW
LayerCount: 2
Fore
SplineSet
341.131835938 1577 m 1
 341.131835938 1506 l 1
 304.131835938 1476 238.131835938 1429 228.131835938 1381 c 1
 260.131835938 1357 286.131835938 1320 286.131835938 1279 c 0
 286.131835938 1227 233.131835938 1192 185.131835938 1192 c 0
 131.131835938 1192 108.131835938 1234 91.1318359375 1279 c 1
 91.1318359375 1285 l 1
 90.1318359375 1289 95.1318359375 1294 95.1318359375 1298 c 0
 95.1318359375 1391 186.131835938 1577 281.131835938 1577 c 2
 341.131835938 1577 l 1
EndSplineSet
EndChar

StartChar: fraction
Encoding: 377 8260 157
Width: 567
Flags: HW
LayerCount: 2
Fore
SplineSet
64 30 m 0
 64 340 324 1099 393 1453 c 0
 399 1483 405 1553 450 1553 c 0
 478 1553 505 1533 505 1503 c 0
 505 1437 478 1374 463 1311 c 0
 384 972 306 632 232 292 c 0
 219 233 185 -31 110 -31 c 1
 89 -18 64 5 64 30 c 0
EndSplineSet
EndChar

StartChar: quotedblleft
Encoding: 370 8220 158
Width: 646
Flags: HW
LayerCount: 2
Fore
SplineSet
554.131835938 1578 m 1
 554.131835938 1507 l 1
 519.131835938 1473 451.131835938 1433 441.131835938 1382 c 1
 473.131835938 1358 499.131835938 1321 499.131835938 1280 c 0
 499.131835938 1228 446.131835938 1193 398.131835938 1193 c 0
 344.131835938 1193 321.131835938 1235 304.131835938 1280 c 1
 304.131835938 1286 l 1
 303.131835938 1290 308.131835938 1295 308.131835938 1299 c 0
 308.131835938 1392 399.131835938 1578 494.131835938 1578 c 2
 554.131835938 1578 l 1
341.131835938 1577 m 1
 341.131835938 1506 l 1
 304.131835938 1476 238.131835938 1429 228.131835938 1381 c 1
 260.131835938 1357 286.131835938 1320 286.131835938 1279 c 0
 286.131835938 1227 233.131835938 1192 185.131835938 1192 c 0
 131.131835938 1192 108.131835938 1234 91.1318359375 1279 c 1
 91.1318359375 1285 l 1
 90.1318359375 1289 95.1318359375 1294 95.1318359375 1298 c 0
 95.1318359375 1391 186.131835938 1577 281.131835938 1577 c 2
 341.131835938 1577 l 1
EndSplineSet
EndChar

StartChar: guilsinglleft
Encoding: 375 8249 159
Width: 553
Flags: HW
LayerCount: 2
Fore
SplineSet
465 -22 m 0
 450 -22 436 -19 421 -18 c 1
 280 197 177 465 65 698 c 1
 68 798 251 1125 289 1255 c 0
 300 1293 327 1447 388 1447 c 0
 390 1447 392 1446 395 1446 c 1
 440 1411 l 1
 413 1193 182 869 182 702 c 0
 182 679 456 135 493 69 c 1
 491 39 502 -22 465 -22 c 0
EndSplineSet
EndChar

StartChar: guilsinglright
Encoding: 376 8250 160
Width: 578
Flags: HW
LayerCount: 2
Fore
SplineSet
155 -19 m 1
 142 -19 126 -23 113 -23 c 0
 76 -23 60 19 59 49 c 1
 95 116 394 680 394 702 c 0
 394 908 139 1202 137 1411 c 1
 182 1446 l 1
 182 1444 l 1
 256 1410 268 1324 288 1255 c 0
 326 1123 509 803 512 698 c 1
 155 -19 l 1
EndSplineSet
EndChar

StartChar: quotesinglbase
Encoding: 369 8218 161
Width: 425
Flags: HW
LayerCount: 2
Fore
SplineSet
82 -202 m 1
 82 -130 l 1
 116 -96 186 -54 196 -4 c 1
 163 20 137 55 137 97 c 0
 137 149 190 184 238 184 c 0
 292 184 315 143 332 98 c 1
 332 91 l 2
 332 87 329 82 329 77 c 0
 329 -15 238 -202 143 -202 c 2
 82 -202 l 1
EndSplineSet
EndChar

StartChar: quotedblbase
Encoding: 372 8222 162
Width: 649
Flags: HW
LayerCount: 2
Fore
SplineSet
309 -201 m 1
 309 -130 l 1
 345 -100 412 -52 422 -4 c 1
 389 19 364 56 364 97 c 0
 364 149 417 184 465 184 c 0
 518 184 556 134 556 83 c 0
 556 -3 471 -201 369 -201 c 2
 309 -201 l 1
79 -164 m 1
 103 -114 190 -44 198 -4 c 1
 165 20 139 55 139 97 c 0
 139 150 192 184 241 184 c 0
 294 184 332 134 332 83 c 0
 332 -12 242 -197 132 -197 c 1
 79 -164 l 1
EndSplineSet
EndChar

StartChar: quotedblright
Encoding: 371 8221 163
Width: 685
Flags: HW
LayerCount: 2
Fore
SplineSet
585 1493 m 1
 585 1474 l 2
 585 1382 492 1194 396 1194 c 2
 336 1194 l 1
 336 1266 l 1
 373 1296 439 1343 449 1391 c 1
 417 1415 391 1452 391 1493 c 0
 391 1545 444 1580 492 1580 c 0
 544 1580 571 1538 585 1493 c 1
90 1196 m 1
 90 1267 l 1
 125 1301 194 1341 204 1392 c 1
 171 1416 145 1452 145 1494 c 0
 145 1546 198 1581 246 1581 c 0
 300 1581 323 1539 340 1494 c 1
 340 1488 l 2
 340 1484 336 1479 336 1474 c 0
 336 1382 246 1196 151 1196 c 2
 90 1196 l 1
EndSplineSet
EndChar

StartChar: circumflex
Encoding: 352 710 164
Width: 501
Flags: HW
LayerCount: 2
Fore
SplineSet
264 1193 m 1
 230 1095 218 1012 151 928 c 1
 84 976 l 1
 91 1045 206 1359 281 1359 c 0
 320 1359 333 1326 333 1292 c 0
 333 1206 395 1127 395 1054 c 2
 395 1002 l 1
 397 995 413 984 413 977 c 0
 413 944 376 927 348 927 c 2
 304 927 l 1
 296 1007 283 1114 264 1193 c 1
EndSplineSet
EndChar

StartChar: tilde
Encoding: 358 732 165
Width: 670
Flags: HW
LayerCount: 2
Fore
SplineSet
93 1055 m 0x70
 93 1143 147 1224 242 1224 c 1
 344 1172 l 1
 354 1145 386 1100 418 1100 c 1x70
 418 1101 l 1
 436 1117 471 1120 471 1146 c 0
 471 1159 460 1176 458 1191 c 1
 467 1209 483 1223 504 1223 c 0xb0
 553 1223 574 1171 574 1129 c 0
 574 1058 513 997 442 997 c 0
 357 997 296 1064 245 1123 c 1
 245 1125 l 1
 192 1094 l 1
 192 996 l 1
 155 996 93 1013 93 1055 c 0x70
EndSplineSet
EndChar

StartChar: breve
Encoding: 354 728 166
Width: 537
Flags: HW
LayerCount: 2
Fore
SplineSet
435 1048 m 1
 435 1031 l 1
 398 945 377 867 268 867 c 0
 141 867 95 992 95 1100 c 2
 95 1110 l 1
 133 1142 l 1
 204 1142 186 1001 242 962 c 1
 285 962 l 2
 306 962 332 1025 332 1043 c 0
 332 1088 332 1133 390 1133 c 0
 418 1133 444 1110 444 1081 c 0
 444 1075 437 1055 435 1048 c 1
EndSplineSet
EndChar

StartChar: ring
Encoding: 356 730 167
Width: 415
Flags: HW
LayerCount: 2
Fore
SplineSet
92 1169 m 0
 92 1230 145 1291 208 1291 c 0
 266 1291 317 1232 317 1176 c 0
 317 1105 261 1062 193 1062 c 0
 137 1062 92 1115 92 1169 c 0
206 1178 m 1
 182 1148 l 1
 220 1148 l 1
 220 1162 216 1195 206 1205 c 1
 206 1178 l 1
EndSplineSet
EndChar

StartChar: hungarumlaut
Encoding: 359 733 168
Width: 1221
Flags: HW
LayerCount: 2
Fore
SplineSet
475.911644323 1.40658086543 m 1
 461.122911164 4.06907282872 453.705623868 16.3646478119 453.022433257 38.4749368497 c 1
 471.923266643 82.1250498476 877.42389089 375.096679688 927.020507812 375.096679688 c 4
 959.384089753 375.096679688 989.122679623 343.940079779 999.020507812 312.244140625 c 5
 999.020507812 294.737304688 l 5
 817.868745886 222.145779332 633.042344629 100.527979013 475.911644323 1.40658086543 c 1
595.020507812 317.096679688 m 0
 595.020507812 280.446214088 368.794474739 128.70571868 307.52097914 88.5090576518 c 1
 246.620696097 80.5354766259 187.306131781 10.9332946709 129.810124867 -5.806040309 c 1
 112.041679295 16.2699072196 l 1
 155.147064994 88.1290730141 509.665519687 363.096679688 548.020507812 363.096679688 c 0
 572.749184389 363.096679688 595.020507812 343.174538076 595.020507812 317.096679688 c 0
EndSplineSet
EndChar

StartChar: caron
Encoding: 353 711 169
Width: 500
Flags: HW
LayerCount: 2
Fore
SplineSet
404 1279 m 1
 404 1242 l 2
 404 1241 391 1240 391 1239 c 0
 391 1213 330 1047 330 994 c 0
 330 960 317 928 278 928 c 0
 204 928 89 1241 82 1309 c 1
 148 1356 l 1
 201 1285 l 1
 202 1244 244 1134 260 1091 c 1
 280 1170 294 1251 302 1332 c 1
 346 1332 l 1
 374 1331 411 1343 411 1310 c 0
 411 1300 406 1288 404 1279 c 1
EndSplineSet
EndChar

StartChar: OE
Encoding: 268 338 170
Width: 1147
Flags: HW
LayerCount: 2
Fore
SplineSet
171 751 m 1
 202 689 183 241 279 232 c 1
 339 158 427 112 520 112 c 0
 552 112 692 122 692 168 c 0
 692 569 659 970 653 1371 c 1
 597 1436 499 1449 420 1449 c 0
 197 1449 171 1127 171 957 c 0
 171 911 172 865 172 820 c 0
 172 797 172 774 171 751 c 1
925 87 m 1
 925 85 l 1
 958 85 l 2
 1012 85 1094 80 1094 25 c 2
 1094 -16 l 1
 986 -16 855 -22 747 -22 c 0
 721 -22 674 -6 674 26 c 2
 674 33 l 1
 640 22 607 9 571 9 c 0
 109 9 77 438 77 809 c 0
 77 1032 79 1551 389 1551 c 0
 478 1551 577 1546 655 1494 c 1
 655 1525 l 1
 980 1525 l 1
 1002 1513 1027 1498 1027 1470 c 0
 1027 1439 993 1426 967 1426 c 0
 894 1426 822 1432 749 1433 c 1
 749 1294 777 1157 777 1018 c 0
 777 983 773 948 773 913 c 0
 773 894 774 875 778 856 c 1
 840 856 l 2
 843 856 846 854 849 854 c 0
 866 854 881 855 894 855 c 0
 919 855 939 850 964 818 c 1
 964 780 950 754 908 754 c 0
 874 754 842 758 808 758 c 0
 799 758 789 758 780 757 c 1
 778 531 791 306 792 80 c 1
 836 83 881 87 925 87 c 1
EndSplineSet
EndChar

StartChar: trademark
Encoding: 380 8482 171
Width: 1080
Flags: HW
LayerCount: 2
Fore
SplineSet
250 787 m 0
 250 924 240 1061 240 1198 c 0
 240 1266 246 1332 246 1400 c 0
 246 1428 245 1456 242 1484 c 1
 224 1482 185 1475 148 1475 c 0
 106 1475 66 1484 66 1520 c 0
 66 1538 66 1556 66 1574 c 1
 171 1583 299 1595 402 1595 c 0
 423 1595 444 1591 465 1591 c 1
 503 1552 l 1
 503 1547 l 1
 506 1574 551 1616 578 1616 c 0
 605 1616 623 1594 638 1575 c 1
 635 1565 634 1554 634 1542 c 0
 634 1433 717 1229 729 1129 c 1
 774 1259 808 1393 837 1528 c 0
 848 1576 853 1639 917 1639 c 0
 946 1639 973 1617 973 1587 c 0
 973 1442 951 1298 951 1153 c 0
 951 1033 964 913 965 793 c 0
 965 738 968 625 889 625 c 0
 860 625 836 642 836 673 c 0
 836 752 847 829 847 908 c 0
 847 985 841 1062 839 1139 c 1
 827 1102 810 1077 810 1036 c 2
 810 1027 l 1
 806 981 780 845 720 845 c 0
 635 845 611 1174 591 1254 c 1
 587 1168 587 1082 587 996 c 0
 587 928 599 861 599 793 c 0
 599 742 597 621 522 621 c 0
 483 621 474 658 474 690 c 0
 474 764 487 836 487 910 c 0
 487 1002 485 1095 485 1189 c 0
 485 1303 488 1417 500 1529 c 1
 490 1486 442 1485 407 1485 c 2
 351 1485 l 1
 347 1446 346 1408 346 1369 c 0
 346 1206 359 1044 359 881 c 0
 359 827 358 773 354 719 c 1
 356 712 362 698 362 691 c 0
 362 654 323 637 293 629 c 1
 239 629 l 1
 252 669 250 746 250 787 c 0
EndSplineSet
EndChar

StartChar: braceleft
Encoding: 91 123 172
Width: 600
Flags: HW
LayerCount: 2
Fore
SplineSet
399 -48 m 0
 234 -48 197 52 197 198 c 2
 197 621 l 1
 196 785 57 673 57 766 c 0
 57 866 196 754 196 916 c 0
 196 958 186 1054 186 1130 c 0
 186 1173 189 1209 199 1226 c 1
 196 1244 194 1262 194 1280 c 0
 194 1399 262 1495 399 1495 c 0
 433 1495 542 1482 542 1435 c 0
 542 1404 512 1389 485 1389 c 0
 450 1389 419 1408 384 1408 c 0
 286 1408 286 1222 286 1157 c 0
 286 1106 294 1024 294 947 c 0
 294 875 287 806 258 768 c 1
 290 728 295 672 295 622 c 2
 295 192 l 1
 294 127 298 39 384 39 c 0
 426 39 463 62 505 62 c 0
 517 62 522 25 522 16 c 0
 522 -36 437 -48 399 -48 c 0
EndSplineSet
EndChar

StartChar: braceright
Encoding: 93 125 173
Width: 595
Flags: HW
LayerCount: 2
Fore
SplineSet
203 1495 m 0
 366 1495 405 1394 405 1249 c 2
 405 876 l 2
 405 712 535 821 535 731 c 0
 535 630 406 745 406 581 c 0
 406 538 414 421 414 330 c 0
 414 279 412 236 403 221 c 1
 406 202 407 184 407 166 c 0
 407 47 340 -48 203 -48 c 0
 169 -48 60 -35 60 12 c 0
 60 43 90 58 117 58 c 0
 152 58 183 39 218 39 c 0
 315 39 316 224 316 289 c 0
 316 346 306 443 306 534 c 0
 306 615 314 691 344 729 c 1
 312 770 307 825 307 875 c 0
 307 915 317 1021 317 1127 c 0
 317 1267 300 1408 218 1408 c 0
 176 1408 139 1385 97 1385 c 0
 85 1385 80 1422 80 1431 c 0
 80 1483 165 1495 203 1495 c 0
EndSplineSet
EndChar

StartChar: logicalnot
Encoding: 104 172 174
Width: 993
Flags: HW
LayerCount: 2
Fore
SplineSet
150 711 m 0
 122 711 99 735 99 763 c 0
 99 822 210 835 317 835 c 0
 394 835 467 828 494 828 c 0
 602 828 708 848 817 848 c 0
 849 848 884 824 884 790 c 0
 884 766 877 741 865 720 c 1
 865 658 870 596 889 537 c 1
 885 509 867 475 835 475 c 0
 781 475 772 536 772 592 c 0
 772 618 774 643 774 659 c 0
 774 682 773 705 769 727 c 1
 745 728 720 733 696 733 c 0
 516 733 337 711 150 711 c 0
EndSplineSet
EndChar

StartChar: ellipsis
Encoding: 374 8230 175
Width: 934
Flags: HW
LayerCount: 2
Fore
SplineSet
105 41 m 0
 105 82 141 120 182 120 c 0
 221 120 255 81 255 43 c 0
 255 -4 219 -32 174 -32 c 0
 136 -32 105 4 105 41 c 0
394 41 m 0
 394 82 430 120 471 120 c 0
 510 120 544 81 544 43 c 0
 544 -4 508 -32 463 -32 c 0
 425 -32 394 4 394 41 c 0
684 41 m 0
 684 82 720 120 761 120 c 0
 800 120 834 81 834 43 c 0
 834 -4 798 -32 753 -32 c 0
 715 -32 684 4 684 41 c 0
EndSplineSet
EndChar

StartChar: periodcentered
Encoding: 115 183 176
Width: 361
Flags: HW
HStem: 633 152<114.707 247.769>
VStem: 106 150<640.168 776.635>
LayerCount: 2
Fore
SplineSet
106 706 m 0
 106 747 142 785 183 785 c 0
 222 785 256 746 256 708 c 0
 256 661 220 633 175 633 c 0
 137 633 106 669 106 706 c 0
EndSplineSet
EndChar

StartChar: ae
Encoding: 161 230 179
Width: 921
Flags: HW
LayerCount: 2
Fore
SplineSet
470 666 m 1
 472 762 477 857 477 953 c 0
 477 996 477 1040 475 1083 c 1
 419 940 361 797 323 648 c 1
 372 650 422 655 470 666 c 1
509 -13 m 0
 493 -13 468 -1 468 19 c 0
 468 96 483 175 483 253 c 0
 483 366 473 480 473 593 c 1
 416 588 358 590 303 571 c 1
 134 -7 l 1
 111 -7 67 27 67 48 c 0
 67 246 338 949 415 1180 c 0
 437 1247 444 1332 528 1344 c 0
 581 1351 630 1354 684 1354 c 0
 721 1354 771 1345 771 1298 c 0
 771 1282 771 1266 771 1250 c 1
 707 1240 621 1240 558 1240 c 1
 560 1149 572 1058 572 966 c 0
 572 869 566 773 566 676 c 1
 617 678 669 685 722 685 c 1
 764 647 l 1
 764 593 678 597 642 597 c 2
 565 597 l 1
 566 425 571 254 571 82 c 1
 645 83 720 103 796 103 c 0
 825 103 864 87 864 53 c 0
 864 -7 696 -14 589 -14 c 0
 554 -14 523 -13 509 -13 c 0
EndSplineSet
EndChar

StartChar: macron
Encoding: 107 175 182
Width: 652
Flags: HW
HStem: 700 104<109.103 545.981>
LayerCount: 2
Fore
SplineSet
548 749 m 0
 548 712 512 704 482 704 c 0
 462 704 401 700 334 700 c 0
 228 700 106 709 106 756 c 0
 106 797 167 800 196 800 c 0
 216 800 275 804 340 804 c 0
 438 804 548 795 548 749 c 0
EndSplineSet
EndChar

StartChar: bar
Encoding: 92 124 183
Width: 341
Flags: HW
LayerCount: 2
Fore
SplineSet
124 114 m 0
 124 580 110 1045 110 1510 c 0
 110 1556 133 1584 181 1584 c 0
 207 1584 223 1556 223 1533 c 0
 223 1148 230 763 230 379 c 2
 230 -29 l 2
 230 -57 203 -80 175 -80 c 0
 123 -80 124 82 124 114 c 0
EndSplineSet
EndChar

StartChar: brokenbar
Encoding: 99 166 184
Width: 331
Flags: HW
LayerCount: 2
Fore
SplineSet
159 695 m 0
 205 695 220 662 220 621 c 2
 220 -16 l 2
 220 -50 210 -80 171 -80 c 0
 143 -80 119 -57 119 -29 c 2
 119 644 l 2
 119 668 133 695 159 695 c 0
114 1020 m 0
 114 1183 106 1348 106 1510 c 0
 106 1556 129 1584 177 1584 c 0
 215 1584 220 1481 220 1393 c 2
 220 877 l 2
 220 849 193 826 165 826 c 0
 113 826 114 988 114 1020 c 0
EndSplineSet
EndChar

StartChar: germandbls
Encoding: 154 223 193
Width: 620
Flags: HW
LayerCount: 2
Fore
SplineSet
361 49 m 1
 357 48 350 45 346 45 c 0
 328 45 299 57 299 81 c 0
 299 134 440 240 440 409 c 0
 440 789 269 776 269 854 c 0
 269 898 383 1106 383 1274 c 0
 383 1321 362 1473 296 1473 c 0
 221 1473 201 1350 201 1294 c 0
 201 878 232 463 232 46 c 0
 232 -2 223 -47 166 -47 c 0
 131 -47 106 -37 106 4 c 0
 106 182 116 360 116 538 c 0
 116 775 101 1012 101 1249 c 0
 101 1375 133 1585 296 1585 c 0
 447 1585 480 1367 480 1249 c 0
 480 1109 427 977 358 859 c 1
 508 744 539 635 539 444 c 0
 539 294 477 143 361 49 c 1
EndSplineSet
EndChar

StartChar: eng
Encoding: 261 331 199
Width: 886
Flags: HW
LayerCount: 2
Fore
SplineSet
210 66 m 2
 210 32 203 2 169 2 c 0
 110 2 102 84 102 127 c 0xd0
 102 361 98 595 98 829 c 0
 98 956 110 1084 110 1211 c 0
 110 1274 119 1322 173 1362 c 1
 173 1349 l 1
 178 1352 195 1354 200 1354 c 0
 229 1354 247 1300 253 1280 c 0
 326 1013 454 773 535 511 c 1
 569 405 584 293 626 189 c 1
 659 534 667 881 667 1228 c 0
 667 1244 664 1264 664 1283 c 0
 664 1315 672 1344 715 1344 c 0
 757 1344 783 1302 783 1264 c 2
 783 1109 l 1
 782 951 751 92 699 11 c 1
 676 4 651 -6 627 -6 c 0
 568 -6 577 55 558 93 c 0
 558 95 559 98 559 102 c 0
 559 219 265 1016 210 1145 c 1
 210 66 l 2
EndSplineSet
EndChar

StartChar: gcedilla
Encoding: 222 291 206
Width: 683
Flags: HW
LayerCount: 2
Fore
SplineSet
394 624 m 1
 394 623 l 1
 455 623 600 619 600 560 c 0
 600 509 578 462 578 411 c 0
 578 341 588 266 588 194 c 0
 588 160 586 126 579 93 c 1
 516 36 443 -16 358 -16 c 0
 289 -16 211 -5 163 54 c 1
 94 136 73 506 73 622 c 0
 73 716 86 809 93 903 c 0
 107 1094 121 1354 368 1354 c 0
 402 1354 451 1349 451 1302 c 0
 451 1268 419 1247 389 1247 c 0
 375 1247 361 1252 348 1252 c 0
 205 1252 195 732 195 629 c 0
 195 584 196 538 201 493 c 1
 271 367 166 91 382 91 c 0
 484 91 477 380 477 450 c 2
 477 511 l 1
 463 519 447 519 431 519 c 0
 420 519 407 518 393 518 c 0
 359 518 325 524 325 565 c 0
 325 606 359 624 394 624 c 1
EndSplineSet
EndChar

StartChar: Hbar
Encoding: 225 294 213
Width: 627
Flags: HW
LayerCount: 2
Fore
SplineSet
375 1496 m 2
 375 1550 l 1
 473 1550 485 1469 485 1393 c 0
 485 943 523 491 523 43 c 0
 523 10 500 -31 463 -31 c 0
 424 -31 411 4 411 37 c 0
 411 278 406 519 394 759 c 1
 372 763 350 769 328 769 c 0
 289 769 247 769 211 753 c 1
 213 521 245 291 245 59 c 0
 245 34 229 5 202 5 c 0
 172 5 161 16 146 41 c 0
 121 83 128 514 122 602 c 0
 101 904 85 1207 85 1510 c 2
 85 1525 l 1
 192 1525 l 1
 187 1473 185 1411 185 1360 c 0
 185 1220 199 1079 199 939 c 0
 199 914 197 888 197 862 c 0
 197 844 198 827 201 809 c 1
 265 811 328 822 393 824 c 1
 392 1048 375 1272 375 1496 c 2
525 943 m 0
 525 906 489 898 459 898 c 0
 439 898 377 894 313 894 c 0
 211 894 90 903 90 950 c 0
 90 991 151 994 180 994 c 0
 200 994 257 998 319 998 c 0
 415 998 525 989 525 943 c 0
EndSplineSet
EndChar

StartChar: Euro
Encoding: 379 8364 214
Width: 739
Flags: HW
LayerCount: 2
Fore
SplineSet
463 700 m 0
 463 657 366 652 305 652 c 0
 288 652 273 653 265 653 c 1
 271 578 300 209 334 160 c 0
 368 111 431 93 488 93 c 0
 538 93 587 113 620 152 c 1
 642 152 664 155 685 162 c 1
 685 135 l 2
 685 4 567 -33 461 -33 c 0
 151 -33 171 450 159 654 c 1
 80 654 l 1
 72 661 67 677 67 687 c 0
 67 728 127 724 155 724 c 1
 155 808 l 1
 79 808 l 1
 65 813 60 833 60 845 c 0
 60 876 79 877 105 877 c 2
 150 877 l 1
 150 930 148 984 148 1038 c 0
 148 1101 151 1164 162 1226 c 1
 158 1248 156 1269 156 1289 c 0
 156 1462 304 1565 482 1565 c 0
 538 1565 625 1531 625 1465 c 0
 625 1434 596 1419 568 1419 c 0
 531 1419 493 1448 467 1448 c 0
 270 1448 265 1294 265 1140 c 0
 265 1047 264 972 254 879 c 1
 263 879 289 880 319 880 c 0
 378 880 456 876 456 852 c 0
 456 841 450 828 442 821 c 1
 380 814 317 813 254 811 c 1
 254 725 l 1
 317 726 386 726 449 731 c 1
 457 724 463 711 463 700 c 0
EndSplineSet
EndChar

StartChar: eth
Encoding: 171 240 215
Width: 559
Flags: HW
LayerCount: 2
Fore
SplineSet
487.609375 1326 m 0
 487.609375 1289 408.609375 1272 382.609375 1267 c 1
 426.609375 1062 434.609375 850 434.609375 641 c 0
 434.609375 522 425.609375 402 425.609375 283 c 0
 425.609375 159 418.609375 -15 253.609375 -15 c 0
 92.609375 -15 82.609375 173 82.609375 305 c 1
 82.609375 305 40.609375 956 293.609375 956 c 0
 301.609375 956 310.609375 955 319.609375 954 c 1
 306.609375 1053 292.609375 1153 271.609375 1251 c 1
 215.609375 1245 158.609375 1242 102.609375 1242 c 0
 89.609375 1242 85.609375 1265 85.609375 1272 c 0
 85.609375 1319 219.609375 1336 251.609375 1340 c 1
 242.609375 1374 223.609375 1450 195.609375 1473 c 1
 162.609375 1478 113.609375 1499 113.609375 1539 c 0
 113.609375 1565 143.609375 1582 166.609375 1582 c 0
 279.609375 1582 334.609375 1441 360.609375 1351 c 1
 397.609375 1353 433.609375 1355 470.609375 1355 c 0
 483.609375 1355 487.609375 1333 487.609375 1326 c 0
248.609375 72 m 0
 323.609375 72 314.609375 160 318.609375 211 c 0
 330.609375 370 339.609375 518 339.609375 681 c 0
 339.609375 761 332.609375 853 280.609375 885 c 1
 181.609375 859 181.609375 472 181.609375 390 c 0
 181.609375 378 180.609375 354 180.609375 325 c 0
 180.609375 228 187.609375 72 248.609375 72 c 0
EndSplineSet
EndChar

StartChar: kgreenlandic
Encoding: 243 312 231
Width: 696
Flags: HW
LayerCount: 2
Fore
SplineSet
603 1289 m 0
 603 1284 411 976 383 919 c 1
 383 878 379 838 379 797 c 0
 379 678 505 252 567 149 c 0
 592 108 633 71 633 19 c 0
 633 -13 605 -35 575 -35 c 0
 436 -35 302 626 281 752 c 1
 225 641 207 519 207 396 c 2
 207 17 l 2
 207 -14 193 -31 165 -31 c 0
 125 -31 97 -7 97 34 c 2
 97 656 l 2
 97 877 136 1097 136 1318 c 1
 147 1342 171 1357 197 1357 c 0
 231 1357 260 1328 260 1294 c 2
 260 1288 l 1
 234 1243 233 1038 233 915 c 2
 233 842 l 1
 272 912 471 1344 524 1344 c 0
 557 1344 603 1329 603 1289 c 0
EndSplineSet
EndChar

StartChar: mu
Encoding: 113 181 241
AltUni2: 0003bc.ffffffff.0
Width: 686
Flags: HW
LayerCount: 2
Fore
SplineSet
535 878 m 1
 491 672 570 -27 280 -31 c 0
 235 -31 199 -15 171 11 c 1
 173 -48 174 -107 174 -166 c 0
 174 -211 161 -248 111 -248 c 0
 83 -248 65 -230 65 -202 c 2
 65 99 l 2
 65 215 58 356 58 475 c 2
 58 484 l 2
 58 697 69 824 69 1013 c 0
 69 1114 64 1213 44 1306 c 1
 44 1355 l 1
 114 1355 150 1289 150 1232 c 2
 150 241 l 2
 150 152 191 31 299 31 c 0
 386 31 412 480 412 559 c 0xf0
 412 808 438 1057 438 1307 c 0
 438 1319 437 1330 437 1341 c 0
 437 1369 444 1389 493 1389 c 0xe8
 553 1389 556 1336 556 1290 c 0
 556 1221 542 1151 542 1084 c 0
 542 1027 533 970 533 913 c 0
 533 901 535 890 535 878 c 1
EndSplineSet
EndChar

StartChar: lslash
Encoding: 253 322 245
Width: 563
Flags: HW
LayerCount: 2
Fore
SplineSet
227 545 m 0
 227 435 219 333 219 219 c 0
 219 154 228 78 288 78 c 0
 307 78 340 81 373 81 c 0
 427 81 483 72 483 21 c 0
 483 -11 448 -29 421 -33 c 1
 362 -14 300 -9 238 -9 c 1
 217 -21 192 -28 168 -28 c 0
 134 -28 110 7 110 39 c 0
 110 344 130 649 130 954 c 2
 130 969 l 1
 124 1033 124 1097 124 1161 c 0
 124 1207 125 1355 195 1355 c 0
 223 1355 247 1332 247 1304 c 0
 247 1252 233 1200 233 1148 c 0
 233 984 239 820 239 656 c 1
 225 622 227 581 227 545 c 0
498 739 m 0
 498 666 181 656 123 656 c 0
 90 656 56 680 56 715 c 0
 56 787 373 798 430 798 c 0
 463 798 498 775 498 739 c 0
EndSplineSet
EndChar

StartChar: multiply
Encoding: 146 215 249
Width: 646
Flags: HW
LayerCount: 2
Fore
SplineSet
456 399 m 1
 433 421 325 557 310 562 c 1
 284 560 224 430 158 430 c 0
 128 430 96 460 96 490 c 0
 96 528 204 601 230 638 c 1
 184 681 65 755 65 823 c 0
 65 854 95 880 125 880 c 0
 151 880 282 748 314 721 c 1
 370 750 412 866 487 866 c 0
 515 866 541 839 541 811 c 0
 541 745 403 707 403 643 c 0
 403 583 562 539 562 473 c 0
 562 435 527 399 489 399 c 2
 456 399 l 1
EndSplineSet
EndChar

StartChar: oe
Encoding: 269 339 250
Width: 1148
Flags: HW
LayerCount: 2
Fore
SplineSet
475 1041 m 2
 475 1077 l 1
 472 1171 407 1269 309 1269 c 2
 237 1269 l 1
 209 1150 200 1028 200 906 c 0
 200 843 191 780 191 717 c 0
 191 613 202 47 333 47 c 0
 484 47 497 454 497 564 c 0
 497 723 476 882 475 1041 c 2
341 -38 m 0
 111 -38 80 410 80 626 c 0
 80 658 82 677 82 704 c 0
 82 711 81 714 79 714 c 1
 79 751 l 2
 79 860 78 1378 232 1378 c 0
 252 1378 272 1369 285 1353 c 1
 393 1319 446 1351 517 1237 c 1
 590 1122 605 932 605 798 c 2
 605 551 l 2
 605 368 591 -38 341 -38 c 0
735 36 m 2x62
 735 90 l 1
 746 117 744 145 744 174 c 0
 744 261 735 349 735 436 c 0
 735 635 748 835 748 1034 c 0
 748 1092 738 1149 738 1207 c 0
 738 1266 747 1352 822 1352 c 0
 838 1352 854 1346 867 1337 c 1
 914 1330 1067 1330 1067 1261 c 0
 1067 1229 1034 1207 1007 1197 c 1
 957 1214 905 1230 852 1236 c 1
 854 1207 855 1177 855 1148 c 0
 855 1050 846 952 846 854 c 0
 846 844 850 832 852 822 c 1
 869 822 897 825 925 825 c 0
 974 825 1024 816 1024 769 c 0
 1024 732 1000 693 959 693 c 0
 939 693 917 699 901 711 c 1
 849 711 l 1
 853 659 855 615 855 563 c 0
 855 440 846 315 846 192 c 0
 846 139 854 77 920 77 c 0
 938 77 970 82 1001 82 c 0
 1041 82 1079 73 1079 32 c 0
 1079 -13 1028 -27 991 -27 c 2
 798 -27 l 2
 763 -27 735 1 735 36 c 2x62
EndSplineSet
EndChar

StartChar: ogonek
Encoding: 357 731 251
Width: 422
Flags: HW
LayerCount: 2
Fore
SplineSet
328 20 m 1
 257 -39 151 -145 151 -250 c 0
 151 -266 156 -301 178 -301 c 0
 209 -301 239 -286 264 -268 c 1
 264 -302 l 2
 264 -342 204 -366 172 -366 c 0
 113 -366 81 -313 81 -259 c 0
 81 -141 178 -38 273 20 c 1
 328 20 l 1
EndSplineSet
EndChar

StartChar: tbar
Encoding: 289 359 276
Width: 578
Flags: HW
LayerCount: 2
Fore
SplineSet
293 260 m 1
 281 299 235 1154 233 1255 c 1
 191 1256 59 1255 59 1316 c 0
 59 1344 101 1360 124 1360 c 0
 217 1360 309 1341 402 1341 c 0
 412 1341 423 1342 435 1342 c 0
 467 1342 499 1336 499 1293 c 0
 499 1257 463 1237 431 1237 c 0
 399 1237 368 1247 337 1251 c 1
 336 1245 333 1237 333 1230 c 0
 333 841 401 456 401 67 c 0
 401 34 372 6 339 6 c 2
 293 6 l 1
 293 58 289 138 289 190 c 0
 289 213 292 237 293 260 c 1
504 749 m 0
 504 712 468 704 438 704 c 0
 418 704 357 700 290 700 c 0
 184 700 62 709 62 756 c 0
 62 797 123 800 152 800 c 0
 172 800 231 804 296 804 c 0
 394 804 504 795 504 749 c 0
EndSplineSet
EndChar

StartChar: Thorn
Encoding: 153 222 277
Width: 553
Flags: HW
LayerCount: 2
Fore
SplineSet
98 1297 m 2
 98 1487 l 2
 98 1522 108 1548 147 1548 c 0
 207 1548 217 1483 217 1424 c 0
 217 1396 215 1370 215 1353 c 1
 390 1327 471 1128 471 965 c 0
 471 773 389 595 221 502 c 1
 222 359 236 217 236 74 c 0
 236 29 220 -11 169 -11 c 0
 133 -11 120 29 120 58 c 0
 120 471 98 884 98 1297 c 2
365 948 m 0
 365 1117 342 1147 218 1249 c 1
 218 1033 216 817 216 601 c 1
 316 699 365 804 365 948 c 0
EndSplineSet
EndChar

StartChar: thorn
Encoding: 185 254 278
Width: 553
Flags: HW
LayerCount: 2
Fore
SplineSet
99 1178 m 2
 99 1487 l 2
 99 1522 109 1548 148 1548 c 0
 210 1548 223 1463 223 1380 c 0
 223 1318 216 1258 216 1233 c 1
 391 1207 472 1008 472 845 c 0
 472 670 374 540 222 472 c 1
 223 339 237 207 237 74 c 0
 237 29 221 -11 170 -11 c 0
 134 -11 121 28 121 58 c 0
 121 432 99 805 99 1178 c 2
366 828 m 0
 366 998 343 1027 219 1129 c 1
 219 943 217 757 217 571 c 1
 308 635 366 710 366 828 c 0
EndSplineSet
EndChar

StartChar: onehalf
Encoding: 120 189 279
Width: 1610
Flags: HW
LayerCount: 2
Fore
SplineSet
461 102 m 1
 461 103 l 1
 496 103 544 99 544 52 c 0
 544 -4 388 -8 317 -8 c 0
 287 -8 279 -9 256 -9 c 0
 215 -9 173 -3 173 47 c 2
 173 91 l 1
 186 90 226 86 245 86 c 0
 269 86 290 93 290 120 c 0
 290 388 274 656 255 924 c 0
 246 1052 228 1179 228 1308 c 0
 228 1329 231 1356 231 1383 c 0
 231 1432 220 1479 160 1479 c 0
 147 1479 130 1477 113 1477 c 0
 83 1477 55 1483 55 1521 c 0
 55 1574 177 1575 220 1575 c 0
 253 1575 292 1574 310 1541 c 1
 304 1513 313 1484 313 1455 c 0
 313 1329 344 1205 344 1079 c 0
 344 756 389 433 389 109 c 2
 389 96 l 1
 413 98 437 102 461 102 c 1
609 30 m 0
 609 340 859 1099 925 1453 c 0
 931 1483 937 1553 980 1553 c 0
 1007 1553 1032 1533 1032 1503 c 0
 1032 1437 1006 1374 992 1311 c 0
 916 972 841 632 770 292 c 0
 758 233 725 -31 653 -31 c 1
 633 -18 609 5 609 30 c 0
1310 1586 m 1
 1310 1587 l 1
 1529 1587 1530 1357 1530 1201 c 0
 1530 970 1466 633 1372 422 c 0
 1322 309 1257 204 1220 86 c 1
 1294 99 1371 107 1449 107 c 1
 1511 55 l 1
 1475 4 l 1
 1371 4 1268 -15 1168 -15 c 0
 1133 -15 1096 7 1096 47 c 2
 1096 55 l 1
 1152 125 1168 218 1204 299 c 0
 1343 614 1432 886 1432 1236 c 0
 1432 1305 1428 1492 1334 1500 c 1
 1278 1470 1304 1327 1230 1327 c 0
 1194 1327 1182 1357 1182 1390 c 0
 1182 1465 1221 1586 1310 1586 c 1
EndSplineSet
EndChar

StartChar: onequarter
Encoding: 119 188 280
Width: 1561
Flags: HW
LayerCount: 2
Fore
SplineSet
461 102 m 1
 461 103 l 1
 496 103 544 99 544 52 c 0
 544 -4 388 -8 317 -8 c 0
 287 -8 279 -9 256 -9 c 0
 215 -9 173 -3 173 47 c 2
 173 91 l 1
 186 90 226 86 245 86 c 0
 269 86 290 93 290 120 c 0
 290 388 274 656 255 924 c 0
 246 1052 228 1179 228 1308 c 0
 228 1329 231 1356 231 1383 c 0
 231 1432 220 1479 160 1479 c 0
 147 1479 130 1477 113 1477 c 0
 83 1477 55 1483 55 1521 c 0
 55 1574 177 1575 220 1575 c 0
 253 1575 292 1574 310 1541 c 1
 304 1513 313 1484 313 1455 c 0
 313 1329 344 1205 344 1079 c 0
 344 756 389 433 389 109 c 2
 389 96 l 1
 413 98 437 102 461 102 c 1
609 30 m 0
 609 340 859 1099 925 1453 c 0
 931 1483 937 1553 980 1553 c 0
 1007 1553 1032 1533 1032 1503 c 0
 1032 1437 1006 1374 992 1311 c 0
 916 972 841 632 770 292 c 0
 758 233 725 -31 653 -31 c 1
 633 -18 609 5 609 30 c 0
1196 480 m 1
 1196 479 l 1
 1165 479 1139 493 1115 512 c 1
 1115 539 1117 565 1124 591 c 1
 1117 628 1115 666 1115 706 c 0
 1115 844 1146 991 1146 1124 c 2
 1146 1503 l 2
 1146 1525 1148 1543 1185 1543 c 0
 1214 1543 1245 1524 1245 1492 c 0
 1245 1440 1236 1386 1236 1333 c 0
 1236 1308 1238 1283 1244 1259 c 1
 1244 1252 l 1
 1248 1216 1245 1179 1245 1143 c 0
 1245 969 1217 796 1217 622 c 0
 1217 607 1218 591 1220 576 c 1
 1244 577 1268 581 1293 587 c 1
 1292 725 1287 863 1279 1000 c 0
 1276 1054 1262 1106 1262 1160 c 0
 1262 1191 1299 1206 1325 1206 c 1
 1367 1170 l 1
 1367 979 1364 785 1393 596 c 1
 1408 597 1430 601 1452 601 c 0
 1483 601 1513 593 1513 557 c 0
 1513 513 1482 507 1446 507 c 0
 1431 507 1398 505 1398 489 c 0
 1398 436 1398 190 1413 155 c 1
 1411 143 1409 130 1409 117 c 0
 1409 103 1411 89 1419 76 c 1
 1419 39 l 2
 1419 9 1408 -38 1370 -38 c 0
 1324 -38 1309 23 1309 59 c 2
 1309 66 l 1
 1316 90 1316 115 1316 140 c 0
 1316 207 1301 272 1301 339 c 0
 1301 369 1303 398 1309 428 c 1
 1309 449 1308 470 1305 491 c 1
 1268 489 1232 480 1196 480 c 1
EndSplineSet
EndChar

StartChar: threequarters
Encoding: 121 190 281
Width: 1556
Flags: HW
LayerCount: 2
Fore
SplineSet
234 865 m 1
 234 889 l 1
 235 950 354 1016 354 1150 c 0
 354 1216 340 1477 247 1477 c 0
 171 1477 195 1360 112 1360 c 0
 80 1360 58 1387 53 1416 c 1
 87 1501 154 1573 251 1573 c 0
 292 1573 330 1551 357 1522 c 1
 426 1521 456 1184 456 1124 c 0
 456 1040 407 993 364 927 c 1
 502 844 535 509 535 361 c 0
 535 213 522 -20 323 -20 c 0
 266 -20 172 5 172 76 c 2
 172 89 l 1
 206 89 l 1
 248 83 274 88 307 64 c 1
 422 69 432 207 432 294 c 0
 432 482 430 694 307 849 c 1
 303 848 299 848 294 848 c 0
 274 848 252 857 234 865 c 1
604 30 m 0
 604 340 854 1099 920 1453 c 0
 926 1483 932 1553 975 1553 c 0
 1002 1553 1028 1533 1028 1503 c 0
 1028 1437 1001 1374 987 1311 c 0
 911 972 836 632 765 292 c 0
 753 233 720 -31 648 -31 c 1
 628 -18 604 5 604 30 c 0
1191 480 m 1
 1191 479 l 1
 1160 479 1134 493 1110 512 c 1
 1110 539 1112 565 1119 591 c 1
 1112 628 1110 666 1110 706 c 0
 1110 844 1141 991 1141 1124 c 2
 1141 1503 l 2
 1141 1525 1143 1543 1180 1543 c 0
 1209 1543 1240 1524 1240 1492 c 0
 1240 1440 1231 1386 1231 1333 c 0
 1231 1308 1233 1283 1239 1259 c 1
 1239 1252 l 1
 1243 1216 1240 1179 1240 1143 c 0
 1240 969 1212 796 1212 622 c 0
 1212 607 1213 591 1215 576 c 1
 1239 577 1263 581 1288 587 c 1
 1287 725 1282 863 1274 1000 c 0
 1271 1054 1257 1106 1257 1160 c 0
 1257 1191 1294 1206 1320 1206 c 1
 1362 1170 l 1
 1362 979 1359 785 1388 596 c 1
 1403 597 1425 601 1447 601 c 0
 1478 601 1508 593 1508 557 c 0
 1508 513 1477 507 1441 507 c 0
 1426 507 1393 505 1393 489 c 0
 1393 436 1393 190 1408 155 c 1
 1406 143 1404 130 1404 117 c 0
 1404 103 1406 89 1414 76 c 1
 1414 39 l 2
 1414 9 1403 -38 1365 -38 c 0
 1319 -38 1304 23 1304 59 c 2
 1304 66 l 1
 1311 90 1311 115 1311 140 c 0
 1311 207 1297 272 1297 339 c 0
 1297 369 1298 398 1304 428 c 1
 1304 449 1303 470 1300 491 c 1
 1263 489 1227 480 1191 480 c 1
EndSplineSet
EndChar

StartChar: onesuperior
Encoding: 117 185 282
Width: 602
Flags: HW
LayerCount: 2
Fore
SplineSet
464 102 m 1
 464 103 l 1
 500 103 550 99 550 52 c 0
 550 -4 388 -8 317 -8 c 0
 287 -8 279 -9 256 -9 c 0
 215 -9 173 -3 173 47 c 2
 173 91 l 1
 186 90 226 86 245 86 c 0
 269 86 290 93 290 120 c 0
 290 388 274 656 255 924 c 0
 246 1052 228 1179 228 1308 c 0
 228 1329 231 1356 231 1383 c 0
 231 1432 220 1479 160 1479 c 0
 147 1479 130 1477 113 1477 c 0
 83 1477 55 1483 55 1521 c 0
 55 1574 177 1575 220 1575 c 0
 253 1575 292 1574 310 1541 c 1
 304 1513 313 1484 313 1455 c 0
 313 1329 344 1205 344 1079 c 0
 344 756 389 433 389 109 c 2
 389 96 l 1
 414 98 439 102 464 102 c 1
EndSplineSet
EndChar

StartChar: twosuperior
Encoding: 110 178 283
Width: 578
Flags: HW
LayerCount: 2
Fore
SplineSet
278 1586 m 1
 278 1587 l 1
 497 1587 498 1357 498 1201 c 0
 498 970 434 633 340 422 c 0
 290 309 224 204 185 86 c 1
 262 99 339 107 417 107 c 1
 454 98 467 81 467 61 c 0
 467 43 457 23 443 4 c 1
 339 4 235 -15 131 -15 c 0
 95 -15 56 7 56 47 c 2
 56 55 l 1
 114 125 132 218 169 299 c 0
 311 614 400 886 400 1236 c 0
 400 1305 396 1492 302 1500 c 1
 246 1470 272 1327 196 1327 c 0
 158 1327 146 1357 146 1390 c 0
 146 1465 186 1586 278 1586 c 1
EndSplineSet
EndChar

StartChar: threesuperior
Encoding: 111 179 284
Width: 600
Flags: HW
LayerCount: 2
Fore
SplineSet
234 865 m 1
 234 889 l 1
 235 950 354 1016 354 1150 c 0
 354 1216 340 1477 247 1477 c 0
 171 1477 195 1360 112 1360 c 0
 80 1360 58 1387 53 1416 c 1
 87 1501 154 1573 251 1573 c 0
 292 1573 330 1551 357 1522 c 1
 426 1521 456 1184 456 1124 c 0
 456 1040 407 993 364 927 c 1
 502 844 535 509 535 361 c 0
 535 213 522 -20 323 -20 c 0
 266 -20 172 5 172 76 c 2
 172 89 l 1
 206 89 l 1
 248 83 274 88 307 64 c 1
 422 69 432 207 432 294 c 0
 432 482 430 694 307 849 c 1
 303 848 299 848 294 848 c 0
 274 848 252 857 234 865 c 1
EndSplineSet
EndChar

StartChar: foursuperior
Encoding: 378 8308 285
Width: 535
Flags: HW
LayerCount: 2
Fore
SplineSet
170 480 m 1
 170 479 l 1
 139 479 113 493 89 512 c 1
 89 539 91 565 98 591 c 1
 91 628 89 666 89 706 c 0
 89 844 120 991 120 1124 c 2
 120 1503 l 2
 120 1525 122 1543 159 1543 c 0
 188 1543 219 1524 219 1492 c 0
 219 1440 210 1386 210 1333 c 0
 210 1308 212 1283 218 1259 c 1
 218 1252 l 1
 222 1216 219 1179 219 1143 c 0
 219 969 191 796 191 622 c 0
 191 607 192 591 194 576 c 1
 218 577 242 581 267 587 c 1
 266 725 261 863 253 1000 c 0
 250 1054 236 1106 236 1160 c 0
 236 1191 273 1206 299 1206 c 1
 341 1170 l 1
 341 979 338 785 367 596 c 1
 382 597 404 601 426 601 c 0
 457 601 487 593 487 557 c 0
 487 513 456 507 420 507 c 0
 405 507 372 505 372 489 c 0
 372 436 378 190 393 155 c 1
 391 143 389 130 389 117 c 0
 389 103 391 89 399 76 c 1
 399 39 l 2
 399 9 388 -38 350 -38 c 0
 304 -38 289 23 289 59 c 2
 289 66 l 1
 296 90 296 115 296 140 c 0
 296 207 281 272 281 339 c 0
 281 369 283 398 283 428 c 0
 283 449 282 470 279 491 c 1
 242 489 206 480 170 480 c 1
EndSplineSet
EndChar

StartChar: questiondown
Encoding: 122 191 286
Width: 1161
Flags: HW
LayerCount: 2
Fore
SplineSet
566.015625 1525 m 0
 479.015625 1525 461.015625 1475 461.015625 1407 c 0
 461.015625 1364 469.015625 1312 469.015625 1263 c 0
 469.015625 1175 470.015625 1086 492.015625 1000 c 1
 608.015625 1049 670.015625 1142 670.015625 1272 c 0
 670.015625 1347 672.015625 1525 566.015625 1525 c 0
862.015625 199 m 0
 862.015625 175 829.015625 143 807.015625 143 c 0
 690.015625 143 592.015625 797 548.015625 914 c 1
 495.015625 914 l 1
 493.015625 882 490.015625 828 490.015625 796 c 0
 490.015625 600 534.015625 406 534.015625 210 c 0
 534.015625 174 518.015625 143 479.015625 143 c 0
 443.015625 143 406.015625 169 406.015625 208 c 0
 406.015625 295 372.015625 383 372.015625 470 c 2
 372.015625 1454 l 2
 372.015625 1603 429.015625 1635 560.015625 1635 c 0
 759.015625 1635 787.015625 1433 787.015625 1270 c 0
 787.015625 1023 663.015625 1007 652.015625 969 c 1
 655.015625 888 794.015625 425 827.015625 314 c 1
 827.015625 271 862.015625 239 862.015625 199 c 0
963.015625 706 m 0
 963.015625 1023 947.015625 1354 842.015625 1655 c 1
 842.015625 1670 l 1
 806.015625 1727 690.015625 1832 624.015625 1832 c 0
 233.015625 1832 211.015625 1241 211.015625 954 c 0
 211.015625 747 212.015625 179 345.015625 27 c 0
 380.015625 -13 426.015625 -31 467.015625 -64 c 1
 526.015625 -64 l 1
 526.015625 -84 l 1
 926.015625 -79 963.015625 396 963.015625 706 c 0
613.015625 -190 m 0
 118.015625 -190 93.015625 366 93.015625 765 c 0
 93.015625 1072 45.015625 1938 609.015625 1938 c 0
 729.015625 1938 839.015625 1851 907.015625 1755 c 1
 1029.015625 1679 1077.015625 968 1077.015625 807 c 0
 1077.015625 470 1076.015625 -190 613.015625 -190 c 0
EndSplineSet
EndChar

StartChar: plusminus
Encoding: 109 177 287
Width: 745
Flags: HW
LayerCount: 2
Fore
SplineSet
417 909 m 2
 417 884 l 1
 418 853 409 701 436 701 c 0
 461 701 509 709 555 709 c 0
 610 709 661 697 661 647 c 0
 661 615 635 591 603 591 c 0
 562 591 523 602 482 602 c 0
 448 602 417 593 417 553 c 0
 417 498 436 444 436 389 c 0
 436 353 401 333 369 333 c 0
 340 333 303 352 303 385 c 0
 303 451 309 518 309 584 c 2
 309 599 l 1
 281 599 216 590 176 590 c 0
 129 590 89 602 89 655 c 0
 89 682 106 708 135 708 c 0
 175 708 216 701 256 701 c 0
 272 701 287 702 303 705 c 1
 301 755 291 805 291 855 c 0
 291 900 298 968 357 968 c 0
 389 968 417 942 417 909 c 2
89 200 m 0
 89 228 107 246 135 246 c 2
 562 246 l 2
 604 246 661 246 661 192 c 0
 661 158 633 145 603 145 c 0
 459 145 314 135 171 135 c 0
 126 135 89 149 89 200 c 0
EndSplineSet
EndChar

StartChar: minus
Encoding: 381 8722 288
Width: 781
Flags: HW
LayerCount: 2
Fore
SplineSet
108 655 m 0
 108 683 126 701 154 701 c 2
 581 701 l 2
 623 701 680 701 680 647 c 0
 680 613 652 600 622 600 c 0
 478 600 333 590 190 590 c 0
 145 590 108 604 108 655 c 0
EndSplineSet
EndChar

StartChar: uni0111
Encoding: 204 273 300
Width: 673
Flags: HW
LayerCount: 2
Fore
SplineSet
239 141 m 2
 239 92 l 1
 281 92 l 1
 446 270 469 374 469 612 c 0
 469 784 463 1231 231 1258 c 1
 218 1188 216 1116 216 1045 c 0
 216 743 239 443 239 141 c 2
586 622 m 1
 534 355 591 136 304 -12 c 1
 156 -12 l 2
 106 -12 104 190 104 256 c 0
 104 471 110 686 110 901 c 0
 110 1013 108 1125 103 1237 c 1
 91 1251 86 1268 86 1286 c 0
 86 1322 124 1353 158 1353 c 0
 183 1353 207 1337 220 1317 c 1
 251 1304 286 1307 317 1294 c 0
 384 1266 428 1201 487 1161 c 1
 487 1148 l 1
 562 1011 577 967 577 808 c 0
 577 778 573 741 573 705 c 0
 573 675 576 645 586 622 c 1
EndSplineSet
EndChar

StartChar: exclamdown
Encoding: 94 161 310
Width: 346
Flags: HW
LayerCount: 2
Fore
SplineSet
161 1250 m 0
 201 1250 217 1127 217 1074 c 0
 217 714 258 357 258 -2 c 0
 258 -30 236 -52 208 -52 c 0
 166 -52 121 -17 121 27 c 0
 121 251 131 475 131 699 c 0
 131 806 123 924 123 1038 c 0
 123 1101 125 1163 133 1222 c 1
 139 1240 150 1250 161 1250 c 0
159 1395 m 0
 115 1395 74 1438 74 1481 c 2
 74 1487 l 1
 76 1532 96 1572 152 1572 c 0
 201 1572 243 1549 243 1494 c 0
 243 1443 214 1395 159 1395 c 0
EndSplineSet
EndChar

StartChar: divide
Encoding: 178 247 311
Width: 714
Flags: HW
LayerCount: 2
Fore
SplineSet
61 655 m 0
 61 683 79 701 107 701 c 2
 534 701 l 2
 576 701 633 701 633 647 c 0
 633 613 605 600 575 600 c 0
 431 600 286 590 143 590 c 0
 98 590 61 604 61 655 c 0
346 789 m 0
 307 789 271 823 271 862 c 0
 271 899 308 930 344 930 c 0
 386 930 415 893 415 853 c 0
 415 817 381 789 346 789 c 0
415 428 m 0
 415 389 384 369 348 369 c 0
 308 369 274 398 274 439 c 0
 274 477 304 510 343 510 c 0
 385 510 415 467 415 428 c 0
EndSplineSet
EndChar

StartChar: dotlessi
Encoding: 236 305 312
Width: 552
Flags: HW
HStem: 0 21G<268 297.5> 16 114<147 215.624 334 489.724> 1254 102<53.5369 206.779>
VStem: 202 112<227.891 1065.91 1074.67 1235> 216 113<128 674.203 687.094 1232.38>
LayerCount: 2
Fore
SplineSet
329 246 m 2xa8
 329 185 l 2
 329 166 323 147 334 131 c 1
 334 128 l 1
 349 128 386 130 409 130 c 0
 450 130 493 122 493 79 c 0
 493 43 460 16 425 16 c 0x68
 402 16 380 23 357 23 c 0
 341 23 316 0 279 0 c 0
 257 0 233 4 216 20 c 1
 208 19 199 18 191 18 c 0
 160 18 130 26 115 55 c 1
 115 78 126 100 147 110 c 1
 147 118 l 1
 212 118 l 1
 213 127 216 136 216 145 c 0xa8
 216 290 202 435 202 580 c 0
 202 732 213 884 213 1036 c 0
 213 1109 210 1182 203 1254 c 1
 164 1254 l 1
 149 1255 133 1254 117 1254 c 0
 83 1254 53 1262 53 1309 c 0
 53 1360 136 1356 171 1356 c 0
 227 1356 434 1355 434 1273 c 0
 434 1263 426 1244 422 1235 c 1
 317 1235 l 1
 323 1179 325 1129 325 1072 c 0
 325 942 314 811 314 681 c 0xb0
 314 536 329 391 329 246 c 2xa8
EndSplineSet
EndChar

StartChar: dotaccent
Encoding: 355 729 313
Width: 358
Flags: HW
LayerCount: 2
Fore
SplineSet
102 1463 m 0
 102 1504 138 1542 179 1542 c 0
 218 1542 252 1503 252 1465 c 0
 252 1418 216 1390 171 1390 c 0
 133 1390 102 1426 102 1463 c 0
EndSplineSet
EndChar

StartChar: dotaccentcmb
Encoding: 360 775 314
Width: 358
Flags: HW
LayerCount: 2
Fore
SplineSet
102 1463 m 0
 102 1504 138 1542 179 1542 c 0
 218 1542 252 1503 252 1465 c 0
 252 1418 216 1390 171 1390 c 0
 133 1390 102 1426 102 1463 c 0
EndSplineSet
EndChar

StartChar: greater
Encoding: 30 62 315
Width: 578
Flags: HW
LayerCount: 2
Fore
SplineSet
155 -19 m 1
 142 -19 126 -23 113 -23 c 0
 76 -23 60 19 59 49 c 1
 95 116 394 680 394 702 c 0
 394 908 139 1202 137 1411 c 1
 182 1446 l 1
 182 1444 l 1
 256 1410 268 1324 288 1255 c 0
 326 1123 509 803 512 698 c 1
 155 -19 l 1
EndSplineSet
EndChar

StartChar: less
Encoding: 28 60 316
Width: 553
Flags: HW
LayerCount: 2
Fore
SplineSet
465 -22 m 0
 450 -22 436 -19 421 -18 c 1
 280 197 177 465 65 698 c 1
 68 798 251 1125 289 1255 c 0
 300 1293 327 1447 388 1447 c 0
 390 1447 392 1446 395 1446 c 1
 440 1411 l 1
 413 1193 182 869 182 702 c 0
 182 679 456 135 493 69 c 1
 491 39 502 -22 465 -22 c 0
EndSplineSet
EndChar

StartChar: section
Encoding: 100 167 317
Width: 505
Flags: HW
LayerCount: 2
Fore
SplineSet
430 634 m 0
 430 566 398 502 341 465 c 1
 383 399 415 326 415 246 c 0
 415 139 353 1 234 1 c 0
 192 1 135 33 135 82 c 0
 135 109 162 121 185 121 c 0
 198 121 214 116 226 109 c 1
 286 110 315 206 315 257 c 0
 315 457 76 550 76 820 c 0
 76 895 106 972 167 1018 c 1
 128 1099 109 1186 109 1275 c 0
 109 1385 164 1443 272 1443 c 0
 298 1443 371 1430 371 1392 c 0
 371 1308 190 1405 190 1277 c 0
 190 1046 430 943 430 634 c 0
330 649 m 0
 330 754 270 840 218 925 c 1
 191 890 176 840 176 795 c 0
 176 701 231 622 283 549 c 1
 310 573 330 612 330 649 c 0
EndSplineSet
EndChar

StartChar: uni030F
Encoding: 361 783 318
Width: 1206
Flags: HW
LayerCount: 2
Fore
SplineSet
595.973632812 335.09375 m 0
 595.973632812 361.189793048 618.225842589 381.09375 642.973632812 381.09375 c 0
 683.775202577 381.09375 1053.46367296 89.2147899676 1096.94773609 16.2567566365 c 1
 1079.18447271 -5.81275241535 l 1
 1019.32857095 11.0102547096 959.897934579 80.8265457038 901.481688667 88.507416527 c 1
 834.999854837 132.791936363 595.973632812 295.490775576 595.973632812 335.09375 c 0
733.086992534 1.41056176003 m 1
 581.539999559 97.6962073258 417.185995599 214.437957152 247.973632812 282.729492188 c 5
 247.973632812 289.356529941 248.079101562 294.996555527 248.079101562 300.385742188 c 5
 259.776567134 341.352173668 272.492725431 363.09375 300.973632812 363.09375 c 4
 349.534580074 363.09375 737.677784266 79.3901472813 755.974882987 38.3682856262 c 1
 755.18603374 13.6976821354 745.94617064 3.66850584505 733.086992534 1.41056176003 c 1
EndSplineSet
EndChar

StartChar: uni0311
Encoding: 362 785 319
Width: 538
Flags: HW
LayerCount: 2
Fore
SplineSet
440 978 m 1
 437 973 437 966 435 961 c 1
 437 954 444 934 444 928 c 0
 444 899 418 876 390 876 c 0
 339 876 332 910 332 953 c 0
 332 975 312 1047 285 1047 c 2
 242 1047 l 1
 186 1008 204 867 133 867 c 1
 95 899 l 1
 95 1010 134 1142 268 1142 c 0
 377 1142 403 1064 440 978 c 1
EndSplineSet
EndChar

StartChar: uni0326
Encoding: 363 806 320
Width: 519
Flags: HW
LayerCount: 2
Fore
SplineSet
132 -560 m 1
 132 -488 l 1
 166 -454 236 -412 246 -362 c 1
 213 -338 187 -303 187 -261 c 0
 187 -209 240 -174 288 -174 c 0
 342 -174 365 -215 382 -260 c 1
 382 -267 l 2
 382 -271 379 -276 379 -281 c 0
 379 -373 288 -560 193 -560 c 2
 132 -560 l 1
EndSplineSet
EndChar

StartChar: equal
Encoding: 29 61 321
Width: 783
Flags: HW
LayerCount: 2
Fore
SplineSet
463 680 m 2
 561 680 672 674 672 626 c 0
 672 597 652 579 624 579 c 0
 480 579 336 589 192 589 c 0
 161 589 110 592 110 634 c 0
 110 662 128 680 156 680 c 2
 463 680 l 2
523 872 m 2
 592 872 682 866 682 818 c 0
 682 774 568 764 466 764 c 0
 387 764 314 770 311 770 c 0
 293 770 263 767 233 767 c 0
 174 767 110 776 110 826 c 0
 110 854 128 872 156 872 c 2
 523 872 l 2
EndSplineSet
EndChar

StartChar: emdash
Encoding: 366 8212 322
Width: 1110
Flags: HW
LayerCount: 2
Fore
SplineSet
766 779 m 2
 877 779 1005 773 1005 725 c 0
 1005 683 920 680 833 680 c 2
 231 680 l 2
 172 680 108 683 108 733 c 0
 108 761 126 779 154 779 c 2
 766 779 l 2
EndSplineSet
EndChar

StartChar: endash
Encoding: 365 8211 323
Width: 895
Flags: HW
LayerCount: 2
Fore
SplineSet
324 737 m 2
 353 737 429 741 512 741 c 0
 644 741 792 731 792 683 c 0
 792 654 772 636 744 636 c 0
 556 636 376 646 189 646 c 0
 158 646 107 649 107 691 c 0
 107 719 125 737 153 737 c 2
 324 737 l 2
EndSplineSet
EndChar

StartChar: foundryicon
Encoding: 382 -1 324
Width: 1304
Flags: HW
LayerCount: 2
Fore
SplineSet
912 528 m 1
 912 510 l 2
 912 457 928 389 940 344 c 1
 948 342 991 135 991 106 c 0
 991 86 979 72 959 72 c 0
 908 72 749 375 635 375 c 1
 586 332 485 261 436 221 c 0
 412 202 336 115 310 115 c 0
 292 115 275 119 275 141 c 0
 275 160 286 168 290 186 c 0
 316 298 365 421 396 520 c 1
 396 522 l 1
 339 604 257 668 181 735 c 0
 148 764 62 791 62 840 c 0
 62 860 77 870 101 870 c 0
 112 870 241 848 322 848 c 2
 505 848 l 1
 595 1075 l 1
 625 1122 638 1235 694 1235 c 0
 711 1235 741 1206 741 1188 c 0
 741 1110 775 971 792 895 c 1
 792 848 l 1
 848 844 928 842 997 842 c 0
 1067 842 1126 848 1187 848 c 0
 1214 848 1241 838 1241 807 c 0
 1241 793 1162 751 1144 735 c 0
 1070 669 999 573 912 528 c 1
EndSplineSet
EndChar

StartChar: quotesingle
Encoding: 7 39 325
Width: 318
Flags: HW
LayerCount: 2
Fore
SplineSet
100 1531 m 0
 100 1559 133 1578 161 1578 c 0
 191 1578 206 1556 215 1531 c 1
 215 1525 l 2
 215 1521 211 1514 211 1511 c 0
 211 1407 176 1193 136 1193 c 0
 123 1193 100 1435 100 1531 c 0
EndSplineSet
EndChar

StartChar: quotedbl
Encoding: 2 34 326
Width: 489
Flags: HW
LayerCount: 2
Fore
SplineSet
103 1531 m 0
 103 1559 126 1578 144 1578 c 0
 174 1578 189 1556 193 1525 c 0
 193 1521 194 1514 194 1511 c 0
 194 1407 159 1193 119 1193 c 0
 115 1193 103 1435 103 1531 c 0
289 1531 m 0
 289 1559 322 1578 350 1578 c 0
 369 1578 379 1556 384 1531 c 1
 381 1433 358 1193 325 1193 c 0
 312 1193 289 1435 289 1531 c 0
EndSplineSet
EndChar

StartChar: uni00AD
Encoding: 105 173 327
Width: 648
Flags: HW
LayerCount: 2
Fore
SplineSet
546 739 m 0
 546 666 229 656 171 656 c 0
 138 656 104 680 104 715 c 0
 104 787 421 798 478 798 c 0
 511 798 546 775 546 739 c 0
EndSplineSet
EndChar

StartChar: degree
Encoding: 108 176 328
Width: 704
Flags: HW
LayerCount: 2
Fore
SplineSet
334 901 m 0
 209 901 176 773 176 665 c 0
 176 607 248 515 334 515 c 0
 509 515 542 668 542 729 c 0
 542 792 501 901 334 901 c 0
99 731 m 0
 99 867 190 970 325 970 c 0
 553 970 610 821 610 733 c 0
 610 649 562 438 326 438 c 0
 141 438 99 617 99 731 c 0
EndSplineSet
EndChar

StartChar: bullet
Encoding: 373 8226 329
Width: 630
Flags: HW
LayerCount: 2
Fore
SplineSet
102 727 m 0
 102 814 144 876 171 920 c 0
 187 945 268 1011 298 1011 c 0
 488 1011 534 866 534 779 c 0
 534 694 497 485 307 485 c 0
 193 485 103 595 103 665 c 0
 103 687 102 705 102 727 c 0
EndSplineSet
EndChar

StartChar: dotlessj
Encoding: 351 567 330
Width: 578
Flags: HW
LayerCount: 2
Fore
SplineSet
382 158 m 1x90
 306 33 394 -254 136 -254 c 1
 42 -187 l 1
 42 -146 176 -64 211 -46 c 1
 257 8 270 117 270 187 c 0x90
 270 536 252 884 252 1233 c 2
 252 1242 l 1
 210 1247 90 1252 90 1312 c 0
 90 1342 133 1359 157 1359 c 0x60
 217 1359 522 1327 522 1253 c 0
 522 1222 494 1205 466 1205 c 0
 431 1205 397 1219 362 1225 c 1
 362 1208 l 2xa0
 362 933 382 657 382 382 c 2
 382 158 l 1x90
EndSplineSet
EndChar

StartChar: commaaccent
Encoding: 383 -1 331
Width: 512
Flags: HW
LayerCount: 2
Fore
SplineSet
128 -501 m 1
 128 -429 l 1
 162 -395 232 -353 242 -303 c 1
 209 -279 183 -244 183 -202 c 0
 183 -150 236 -115 284 -115 c 0
 338 -115 361 -156 378 -201 c 1
 378 -208 l 2
 378 -212 375 -217 375 -222 c 0
 375 -314 284 -501 189 -501 c 2
 128 -501 l 1
EndSplineSet
EndChar

StartChar: ordfeminine
Encoding: 384 170 383
Width: 692
Flags: HW
LayerCount: 2
Fore
SplineSet
365 817.400390625 m 1
 311 815.400390625 l 1
 301.760416667 819.223307292 280.427083333 823.223307292 247 827.400390625 c 0
 195 652.400390625 l 0
 171.001953125 562.944661458 154.335286459 513.611328125 145 504.400390625 c 0
 141.158203125 500.609375 132.158203125 504.276041667 118 515.400390625 c 0
 108.666666667 522.733723958 104 530.733723958 104 539.400390625 c 1
 131.332682292 584.06640625 193.119791667 807.798828125 289.361328125 1210.59765625 c 1
 299.12890625 1301.9921875 307.341796875 1353.79296875 314 1366 c 1
 342 1364 l 1
 358.666666667 1364 371 1368 379 1376 c 1
 387.666666667 1376 396 1373.16666667 404 1367.5 c 128
 412 1361.83333333 416 1354.33333333 416 1345 c 1
 550 665.900390625 l 1
 561.333333333 606.233723958 567 564.233723958 567 539.900390625 c 128
 567 515.567057292 561.666666667 500.400390625 551 494.400390625 c 1
 523.28515625 494.400390625 506.189778646 498.400390625 499.713867188 506.400390625 c 128
 493.237955729 514.400390625 490 527.233723958 490 544.900390625 c 128
 490 562.567057292 488.833333333 584.233723958 486.5 609.900390625 c 128
 484.166666667 635.567057292 481.833333333 656.067057292 479.5 671.400390625 c 128
 477.166666667 686.733723958 473.166666667 710.900390625 467.5 743.900390625 c 128
 461.833333333 776.900390625 458.333333333 798.067057292 457 807.400390625 c 1
 431 814.067057292 400.333333333 817.400390625 365 817.400390625 c 1
263 892.400390625 m 0
 337 876.400390625 l 0
 393.456380208 871.067708334 426.456380208 866.401041667 436 862.400390625 c 2
 457 862.400390625 l 1
 359 1282.40039062 l 1
 321.666015625 1115.73307291 289.666015625 985.733072915 263 892.400390625 c 0
557.5 392.900390625 m 0
 557.5 388.233723958 513.333333333 384.067057292 425 380.400390625 c 128
 336.666666667 376.733723958 263.5 374.900390625 205.5 374.900390625 c 0
 195.5 374.900390625 185.833333333 378.067057292 176.5 384.400390625 c 128
 167.166666667 390.733723958 162.5 399.233723958 162.5 409.900390625 c 0
 162.5 414.567057292 207.166666667 418.733723958 296.5 422.400390625 c 128
 385.833333333 426.067057292 457.833333333 427.900390625 512.5 427.900390625 c 0
 522.5 427.900390625 532.5 424.400390625 542.5 417.400390625 c 128
 552.5 410.400390625 557.5 402.233723958 557.5 392.900390625 c 0
EndSplineSet
EndChar

StartChar: ordmasculine
Encoding: 385 186 384
Width: 729
Flags: HW
LayerCount: 2
Fore
SplineSet
606.866210938 825.5 m 1
 606.866210938 717.6484375 557.532877605 630.1484375 458.866210938 563 c 0
 434.866210938 546.666666667 407.866210938 538.5 377.866210938 538.5 c 0
 216.622070313 538.5 136 654.829427083 136 887.48828125 c 0
 136 907.927734375 136.622070313 929.264973959 137.866210938 951.5 c 0
 139.926757813 988.925130207 153.426757813 1078.59179687 178.366210938 1220.5 c 0
 185.362955729 1261.08007813 207.324869792 1292.38020833 244.251953125 1314.40039062 c 1
 264.526041667 1327.09570313 294.335286459 1333.44335938 333.6796875 1333.44335938 c 0
 364.179036459 1333.44335938 400.407877605 1329.62890625 442.366210938 1322 c 0
 469.654622396 1317.03841146 495.821289063 1290.70507813 520.866210938 1243 c 1
 575.115559896 1156.26953125 603.782226563 1017.10286459 606.866210938 825.5 c 1
201.866210938 953.5 m 1
 204.859700521 716.166666667 260.693033854 597.5 369.366210938 597.5 c 0
 485.699544271 597.5 543.866210938 678.833333333 543.866210938 841.5 c 1
 543.866210938 1044.16666667 522.699544271 1166.91666667 480.366210938 1209.75 c 0
 424.855794271 1265.91666667 379.689127605 1294 344.866210938 1294 c 0
 261.346679687 1294 213.680013021 1180.5 201.866210938 953.5 c 1
551.866210938 448.900390625 m 0
 551.866210938 444.233723958 507.699544271 440.067057292 419.366210938 436.400390625 c 128
 331.032877605 432.733723958 257.866210938 430.900390625 199.866210938 430.900390625 c 0
 189.866210938 430.900390625 180.199544271 434.067057292 170.866210938 440.400390625 c 128
 161.532877605 446.733723958 156.866210938 455.233723958 156.866210938 465.900390625 c 0
 156.866210938 470.567057292 201.532877605 474.733723958 290.866210938 478.400390625 c 128
 380.199544271 482.067057292 452.199544271 483.900390625 506.866210938 483.900390625 c 0
 516.866210938 483.900390625 526.866210938 480.400390625 536.866210938 473.400390625 c 128
 546.866210938 466.400390625 551.866210938 458.233723958 551.866210938 448.900390625 c 0
EndSplineSet
EndChar
